G04 (created by PCBNEW (2013-07-07 BZR 4022)-stable) date 19-01-2019 19:24:24*
%MOIN*%
G04 Gerber Fmt 3.4, Leading zero omitted, Abs format*
%FSLAX34Y34*%
G01*
G70*
G90*
G04 APERTURE LIST*
%ADD10C,0.00590551*%
%ADD11R,0.055X0.035*%
%ADD12O,0.12X0.06*%
%ADD13O,0.06X0.12*%
%ADD14R,0.09X0.062*%
%ADD15O,0.09X0.062*%
%ADD16R,0.062X0.09*%
%ADD17O,0.062X0.09*%
%ADD18C,0.07*%
%ADD19R,0.07X0.07*%
%ADD20O,0.06X0.1*%
%ADD21C,0.155*%
%ADD22R,0.035X0.055*%
%ADD23C,0.0393701*%
%ADD24C,0.0255906*%
%ADD25C,0.0314961*%
%ADD26C,0.01*%
G04 APERTURE END LIST*
G54D10*
G54D11*
X82480Y-54546D03*
X82480Y-55296D03*
X64566Y-51987D03*
X64566Y-52737D03*
X64566Y-50018D03*
X64566Y-50768D03*
X76574Y-54546D03*
X76574Y-55296D03*
X64763Y-63760D03*
X64763Y-63010D03*
G54D12*
X63311Y-63889D03*
X63311Y-62889D03*
X63311Y-61889D03*
X63311Y-60889D03*
X63311Y-59889D03*
X63311Y-58889D03*
X63311Y-57889D03*
X63311Y-56889D03*
X63311Y-55889D03*
X63311Y-54889D03*
X63311Y-53889D03*
X63311Y-52889D03*
X63311Y-51889D03*
X63311Y-50889D03*
X63311Y-49889D03*
G54D13*
X76913Y-45397D03*
X77913Y-45397D03*
X78913Y-45397D03*
X79913Y-45397D03*
X80913Y-45397D03*
X81913Y-45397D03*
X82913Y-45397D03*
X83913Y-45397D03*
X68350Y-45397D03*
X69350Y-45397D03*
X70350Y-45397D03*
X71350Y-45397D03*
X72350Y-45397D03*
X73350Y-45397D03*
X74350Y-45397D03*
X75350Y-45397D03*
X76909Y-68185D03*
X75909Y-68185D03*
X74909Y-68185D03*
X73909Y-68185D03*
X72909Y-68185D03*
X71909Y-68185D03*
G54D12*
X80488Y-49098D03*
X80488Y-50098D03*
G54D13*
X66429Y-45374D03*
X67429Y-45374D03*
X69972Y-68208D03*
X70972Y-68208D03*
G54D12*
X64763Y-60917D03*
X64763Y-61917D03*
G54D14*
X69807Y-52968D03*
G54D15*
X69807Y-51968D03*
X69807Y-50968D03*
X66807Y-50968D03*
X66807Y-51968D03*
X66807Y-52968D03*
G54D14*
X69807Y-63992D03*
G54D15*
X69807Y-62992D03*
X69807Y-61992D03*
X66807Y-61992D03*
X66807Y-62992D03*
X66807Y-63992D03*
G54D14*
X69807Y-56905D03*
G54D15*
X69807Y-55905D03*
X69807Y-54905D03*
X66807Y-54905D03*
X66807Y-55905D03*
X66807Y-56905D03*
G54D14*
X73500Y-51559D03*
G54D15*
X73500Y-52559D03*
X73500Y-53559D03*
X76500Y-53559D03*
X76500Y-52559D03*
X76500Y-51559D03*
G54D14*
X79405Y-51559D03*
G54D15*
X79405Y-52559D03*
X79405Y-53559D03*
X82405Y-53559D03*
X82405Y-52559D03*
X82405Y-51559D03*
G54D16*
X81059Y-58933D03*
G54D17*
X80059Y-58933D03*
X79059Y-58933D03*
X78059Y-58933D03*
X77059Y-58933D03*
X76059Y-58933D03*
X75059Y-58933D03*
X74059Y-58933D03*
X74059Y-61933D03*
X75059Y-61933D03*
X76059Y-61933D03*
X77059Y-61933D03*
X78059Y-61933D03*
X79059Y-61933D03*
X80059Y-61933D03*
X81059Y-61933D03*
G54D18*
X72047Y-58433D03*
G54D19*
X72047Y-62433D03*
G54D20*
X83933Y-66240D03*
X82933Y-66240D03*
X81933Y-66240D03*
X78933Y-66240D03*
X79933Y-66240D03*
X80933Y-66240D03*
X76933Y-66240D03*
X75933Y-66240D03*
X74933Y-66240D03*
X72933Y-66240D03*
X71933Y-66240D03*
X83933Y-47240D03*
X82933Y-47240D03*
X81933Y-47240D03*
X80933Y-47240D03*
X79933Y-47240D03*
X78933Y-47240D03*
X77933Y-47240D03*
X76933Y-47240D03*
X75333Y-47240D03*
X74333Y-47240D03*
X73333Y-47240D03*
X72333Y-47240D03*
X71333Y-47240D03*
X70333Y-47240D03*
X69333Y-47240D03*
X68333Y-47240D03*
X73933Y-66240D03*
G54D21*
X84933Y-64240D03*
X84933Y-53240D03*
X64933Y-47240D03*
X64433Y-66240D03*
G54D13*
X83897Y-68086D03*
X82897Y-68086D03*
X81897Y-68086D03*
X80897Y-68086D03*
X79897Y-68086D03*
X78897Y-68086D03*
X69972Y-66240D03*
X70972Y-66240D03*
X66429Y-47244D03*
X67429Y-47244D03*
G54D11*
X71259Y-48247D03*
X71259Y-48997D03*
X72244Y-48247D03*
X72244Y-48997D03*
X74409Y-48247D03*
X74409Y-48997D03*
X75393Y-48247D03*
X75393Y-48997D03*
X70275Y-48247D03*
X70275Y-48997D03*
G54D22*
X81711Y-48228D03*
X82461Y-48228D03*
G54D11*
X79330Y-49329D03*
X79330Y-50079D03*
G54D23*
X69488Y-58464D03*
X66929Y-58267D03*
X72933Y-54330D03*
X64862Y-54724D03*
X62007Y-63582D03*
X60826Y-63385D03*
X69488Y-49803D03*
X69291Y-48228D03*
X75000Y-64763D03*
X73031Y-64960D03*
X73031Y-49409D03*
X71850Y-50590D03*
X73622Y-49803D03*
X72244Y-51181D03*
X69488Y-60039D03*
X66929Y-59842D03*
X69488Y-59251D03*
X66929Y-59055D03*
X69488Y-60629D03*
X66732Y-60629D03*
G54D24*
X69488Y-58464D02*
X69251Y-58464D01*
X69783Y-58433D02*
X69519Y-58433D01*
X69519Y-58433D02*
X69488Y-58464D01*
X66929Y-58267D02*
X67125Y-58464D01*
X67125Y-58464D02*
X67322Y-58464D01*
X63311Y-53889D02*
X64913Y-53889D01*
X69783Y-58433D02*
X72047Y-58433D01*
X69488Y-58464D02*
X69519Y-58433D01*
X65748Y-57086D02*
X66929Y-58267D01*
X65748Y-54724D02*
X65748Y-57086D01*
X64913Y-53889D02*
X65748Y-54724D01*
X72909Y-68185D02*
X72909Y-66263D01*
X72909Y-66263D02*
X72933Y-66240D01*
X73909Y-68185D02*
X73909Y-66263D01*
X73909Y-66263D02*
X73933Y-66240D01*
X78897Y-68086D02*
X78897Y-66275D01*
X78897Y-66275D02*
X78933Y-66240D01*
X79933Y-66240D02*
X79933Y-68051D01*
X79933Y-68051D02*
X79897Y-68086D01*
X80897Y-68086D02*
X80897Y-66275D01*
X80897Y-66275D02*
X80933Y-66240D01*
X81897Y-68086D02*
X81897Y-66275D01*
X81897Y-66275D02*
X81933Y-66240D01*
X82897Y-68086D02*
X82897Y-66275D01*
X82897Y-66275D02*
X82933Y-66240D01*
X83897Y-68086D02*
X83897Y-66275D01*
X83897Y-66275D02*
X83933Y-66240D01*
X60826Y-63385D02*
X61061Y-63385D01*
X62007Y-63582D02*
X61850Y-63425D01*
X72933Y-54330D02*
X72933Y-54311D01*
X72933Y-54311D02*
X72795Y-54173D01*
X64862Y-54724D02*
X64862Y-54704D01*
X64862Y-54704D02*
X65039Y-54527D01*
X63311Y-54889D02*
X64696Y-54889D01*
X74458Y-55856D02*
X74458Y-58021D01*
X72933Y-54330D02*
X74458Y-55856D01*
X64696Y-54889D02*
X64862Y-54724D01*
X76574Y-55296D02*
X76574Y-55905D01*
X76574Y-55905D02*
X74458Y-58021D01*
X74059Y-58421D02*
X74059Y-58933D01*
X74458Y-58021D02*
X74059Y-58421D01*
X62204Y-54724D02*
X62007Y-54724D01*
X62314Y-63889D02*
X62007Y-63582D01*
X60826Y-63385D02*
X60629Y-63188D01*
X60629Y-63188D02*
X60629Y-55708D01*
X60629Y-55708D02*
X61614Y-54724D01*
X61614Y-54724D02*
X62007Y-54724D01*
X62314Y-63889D02*
X63311Y-63889D01*
X63311Y-63889D02*
X64634Y-63889D01*
X64634Y-63889D02*
X64763Y-63760D01*
X63311Y-54889D02*
X62370Y-54889D01*
X62303Y-52854D02*
X62303Y-52889D01*
X62007Y-53149D02*
X62303Y-52854D01*
X62007Y-54527D02*
X62007Y-53149D01*
X62370Y-54889D02*
X62204Y-54724D01*
X62204Y-54724D02*
X62007Y-54527D01*
X63311Y-52889D02*
X62303Y-52889D01*
X62303Y-52889D02*
X62338Y-52889D01*
X62692Y-50889D02*
X63311Y-50889D01*
X62007Y-51574D02*
X62692Y-50889D01*
X62007Y-52559D02*
X62007Y-51574D01*
X62338Y-52889D02*
X62007Y-52559D01*
X63311Y-50889D02*
X64445Y-50889D01*
X64445Y-50889D02*
X64566Y-50768D01*
X63311Y-52889D02*
X64414Y-52889D01*
X64414Y-52889D02*
X64566Y-52737D01*
X74059Y-58933D02*
X74059Y-59885D01*
X82480Y-59055D02*
X82480Y-55296D01*
X81692Y-59842D02*
X82480Y-59055D01*
X74102Y-59842D02*
X81692Y-59842D01*
X74059Y-59885D02*
X74102Y-59842D01*
X68333Y-47240D02*
X68333Y-45414D01*
X68333Y-45414D02*
X68350Y-45397D01*
X83933Y-47240D02*
X83933Y-45417D01*
X83933Y-45417D02*
X83913Y-45397D01*
X82933Y-47240D02*
X82933Y-45417D01*
X82933Y-45417D02*
X82913Y-45397D01*
X73333Y-47240D02*
X73333Y-45414D01*
X73333Y-45414D02*
X73350Y-45397D01*
X72333Y-47240D02*
X72333Y-45414D01*
X72333Y-45414D02*
X72350Y-45397D01*
G54D25*
X72244Y-48247D02*
X72244Y-47329D01*
X72244Y-47329D02*
X72333Y-47240D01*
G54D24*
X71333Y-47240D02*
X71333Y-45414D01*
X71333Y-45414D02*
X71350Y-45397D01*
G54D25*
X71259Y-48247D02*
X71259Y-47313D01*
X71259Y-47313D02*
X71333Y-47240D01*
G54D24*
X70333Y-47240D02*
X70333Y-45414D01*
X70333Y-45414D02*
X70350Y-45397D01*
G54D25*
X70333Y-47240D02*
X70333Y-48189D01*
X70333Y-48189D02*
X70275Y-48247D01*
G54D24*
X81933Y-47240D02*
X81933Y-45417D01*
X81933Y-45417D02*
X81913Y-45397D01*
X81711Y-48228D02*
X81711Y-47461D01*
X81711Y-47461D02*
X81933Y-47240D01*
X80933Y-47240D02*
X80933Y-45417D01*
X80933Y-45417D02*
X80913Y-45397D01*
X79330Y-49329D02*
X79330Y-48818D01*
X80933Y-47610D02*
X80933Y-47240D01*
X80314Y-48228D02*
X80933Y-47610D01*
X79921Y-48228D02*
X80314Y-48228D01*
X79330Y-48818D02*
X79921Y-48228D01*
X79933Y-47240D02*
X79933Y-45417D01*
X79933Y-45417D02*
X79913Y-45397D01*
X78933Y-47240D02*
X78933Y-45417D01*
X78933Y-45417D02*
X78913Y-45397D01*
X77933Y-47240D02*
X77933Y-45417D01*
X77933Y-45417D02*
X77913Y-45397D01*
X76933Y-47240D02*
X76933Y-45417D01*
X76933Y-45417D02*
X76913Y-45397D01*
X75333Y-47240D02*
X75333Y-48186D01*
X75333Y-48186D02*
X75393Y-48247D01*
X75333Y-47240D02*
X75333Y-45414D01*
X75333Y-45414D02*
X75350Y-45397D01*
X74350Y-45397D02*
X74350Y-47222D01*
X74350Y-47222D02*
X74333Y-47240D01*
X74409Y-48247D02*
X74409Y-47316D01*
X74409Y-47316D02*
X74333Y-47240D01*
X69333Y-47240D02*
X69333Y-45414D01*
X69333Y-45414D02*
X69350Y-45397D01*
X74909Y-68185D02*
X74909Y-66263D01*
X74909Y-66263D02*
X74933Y-66240D01*
X75909Y-68185D02*
X75909Y-66263D01*
X75909Y-66263D02*
X75933Y-66240D01*
X69807Y-62992D02*
X70275Y-62992D01*
X74933Y-65681D02*
X74933Y-66240D01*
X73228Y-63976D02*
X74933Y-65681D01*
X71259Y-63976D02*
X73228Y-63976D01*
X70275Y-62992D02*
X71259Y-63976D01*
X68700Y-57874D02*
X70866Y-57874D01*
X72637Y-52559D02*
X73500Y-52559D01*
X72244Y-52952D02*
X72637Y-52559D01*
X72244Y-56496D02*
X72244Y-52952D01*
X70866Y-57874D02*
X72244Y-56496D01*
X69333Y-47240D02*
X69333Y-48186D01*
X68897Y-52362D02*
X68700Y-52559D01*
X68897Y-50393D02*
X68897Y-52362D01*
X69488Y-49803D02*
X68897Y-50393D01*
X69333Y-48186D02*
X69291Y-48228D01*
X73500Y-52559D02*
X74212Y-52559D01*
X74212Y-52559D02*
X75984Y-50787D01*
X75984Y-50787D02*
X76968Y-50787D01*
X76968Y-50787D02*
X77755Y-51574D01*
X77755Y-51574D02*
X78740Y-52559D01*
X78740Y-52559D02*
X79405Y-52559D01*
X69807Y-55905D02*
X69094Y-55905D01*
X69094Y-55905D02*
X68700Y-56299D01*
X69807Y-51968D02*
X69291Y-51968D01*
X69094Y-62992D02*
X69807Y-62992D01*
X68700Y-62598D02*
X69094Y-62992D01*
X68700Y-52559D02*
X68700Y-56299D01*
X68700Y-56299D02*
X68700Y-57874D01*
X68700Y-57874D02*
X68700Y-58661D01*
X68700Y-58661D02*
X68700Y-62598D01*
X69291Y-51968D02*
X68700Y-52559D01*
X75000Y-64763D02*
X74763Y-64763D01*
X73031Y-64960D02*
X73188Y-64803D01*
X65354Y-64763D02*
X72834Y-64763D01*
X82874Y-52559D02*
X82405Y-52559D01*
X83464Y-53149D02*
X82874Y-52559D01*
X83464Y-61417D02*
X83464Y-53149D01*
X80708Y-64173D02*
X83464Y-61417D01*
X75590Y-64173D02*
X80708Y-64173D01*
X75000Y-64763D02*
X75590Y-64173D01*
X72834Y-64763D02*
X73031Y-64960D01*
X66807Y-51968D02*
X67125Y-51968D01*
X67716Y-52559D02*
X67716Y-56299D01*
X67125Y-51968D02*
X67716Y-52559D01*
X66807Y-62992D02*
X67519Y-62992D01*
X67716Y-62795D02*
X67716Y-56299D01*
X67519Y-62992D02*
X67716Y-62795D01*
X76500Y-52559D02*
X76968Y-52559D01*
X76968Y-52559D02*
X79330Y-54921D01*
X79330Y-54921D02*
X80118Y-54921D01*
X80118Y-54921D02*
X81102Y-53937D01*
X81102Y-53937D02*
X81102Y-53346D01*
X81102Y-53346D02*
X81889Y-52559D01*
X81889Y-52559D02*
X82405Y-52559D01*
X67322Y-55905D02*
X66807Y-55905D01*
X67716Y-56299D02*
X67322Y-55905D01*
X63311Y-55889D02*
X62023Y-55889D01*
X65748Y-64051D02*
X66807Y-62992D01*
X65748Y-64370D02*
X65748Y-64051D01*
X65354Y-64763D02*
X65748Y-64370D01*
X62204Y-64763D02*
X65354Y-64763D01*
X61417Y-63976D02*
X62204Y-64763D01*
X61417Y-56496D02*
X61417Y-63976D01*
X62023Y-55889D02*
X61417Y-56496D01*
X79330Y-50079D02*
X80469Y-50079D01*
X80469Y-50079D02*
X80488Y-50098D01*
X71259Y-48997D02*
X71259Y-49212D01*
X73500Y-51452D02*
X73500Y-51559D01*
X71259Y-49212D02*
X73500Y-51452D01*
X73031Y-49409D02*
X72889Y-49551D01*
X71850Y-50590D02*
X71992Y-50448D01*
X69807Y-52968D02*
X70456Y-52968D01*
X73443Y-48997D02*
X74409Y-48997D01*
X73031Y-49409D02*
X73443Y-48997D01*
X71062Y-51377D02*
X71850Y-50590D01*
X71062Y-52362D02*
X71062Y-51377D01*
X70456Y-52968D02*
X71062Y-52362D01*
X72244Y-48997D02*
X72244Y-49409D01*
X78043Y-50196D02*
X79405Y-51559D01*
X75787Y-50196D02*
X78043Y-50196D01*
X75393Y-50590D02*
X75787Y-50196D01*
X73425Y-50590D02*
X75393Y-50590D01*
X72244Y-49409D02*
X73425Y-50590D01*
X70972Y-66240D02*
X70972Y-68208D01*
X69972Y-68208D02*
X69972Y-66240D01*
X69807Y-63992D02*
X68913Y-63992D01*
X69310Y-48997D02*
X70275Y-48997D01*
X68110Y-50196D02*
X69310Y-48997D01*
X68110Y-63188D02*
X68110Y-50196D01*
X68913Y-63992D02*
X68110Y-63188D01*
X73622Y-49803D02*
X73425Y-50000D01*
X72244Y-51181D02*
X72440Y-50984D01*
X69807Y-56905D02*
X70653Y-56905D01*
X75393Y-49212D02*
X75393Y-48997D01*
X74803Y-49803D02*
X75393Y-49212D01*
X73622Y-49803D02*
X74803Y-49803D01*
X71653Y-51771D02*
X72244Y-51181D01*
X71653Y-55905D02*
X71653Y-51771D01*
X70653Y-56905D02*
X71653Y-55905D01*
X67429Y-47244D02*
X67429Y-45374D01*
X66429Y-47244D02*
X66429Y-45374D01*
X80488Y-49098D02*
X81905Y-49098D01*
X82461Y-48542D02*
X82461Y-48228D01*
X81905Y-49098D02*
X82461Y-48542D01*
X71909Y-68185D02*
X71909Y-66263D01*
X71909Y-66263D02*
X71933Y-66240D01*
X69488Y-60039D02*
X69251Y-60039D01*
X66929Y-59842D02*
X67125Y-60039D01*
X67125Y-60039D02*
X67322Y-60039D01*
X63311Y-58889D02*
X64007Y-58889D01*
X72047Y-61614D02*
X72047Y-62433D01*
X70472Y-60039D02*
X72047Y-61614D01*
X69488Y-60039D02*
X70472Y-60039D01*
X66338Y-59251D02*
X66929Y-59842D01*
X64370Y-59251D02*
X66338Y-59251D01*
X64007Y-58889D02*
X64370Y-59251D01*
X72047Y-62433D02*
X73559Y-62433D01*
X73559Y-62433D02*
X74059Y-61933D01*
X63311Y-58889D02*
X62236Y-58889D01*
X62401Y-56889D02*
X63311Y-56889D01*
X62007Y-57283D02*
X62401Y-56889D01*
X62007Y-58661D02*
X62007Y-57283D01*
X62236Y-58889D02*
X62007Y-58661D01*
X69488Y-59251D02*
X69251Y-59251D01*
X66929Y-59055D02*
X67125Y-59251D01*
X67125Y-59251D02*
X67322Y-59251D01*
X63311Y-57889D02*
X64188Y-57889D01*
X80059Y-61358D02*
X80059Y-61933D01*
X79724Y-61023D02*
X80059Y-61358D01*
X76574Y-61023D02*
X79724Y-61023D01*
X72244Y-61023D02*
X76574Y-61023D01*
X70472Y-59251D02*
X72244Y-61023D01*
X69488Y-59251D02*
X70472Y-59251D01*
X66535Y-58661D02*
X66929Y-59055D01*
X64960Y-58661D02*
X66535Y-58661D01*
X64188Y-57889D02*
X64960Y-58661D01*
X69488Y-60629D02*
X69251Y-60629D01*
X66732Y-60629D02*
X67125Y-60629D01*
X63311Y-59889D02*
X65598Y-59889D01*
X81059Y-62641D02*
X81059Y-61933D01*
X80314Y-63385D02*
X81059Y-62641D01*
X71456Y-63385D02*
X80314Y-63385D01*
X71062Y-62992D02*
X71456Y-63385D01*
X71062Y-62204D02*
X71062Y-62992D01*
X69488Y-60629D02*
X71062Y-62204D01*
X66338Y-60629D02*
X66732Y-60629D01*
X65598Y-59889D02*
X66338Y-60629D01*
X63311Y-60889D02*
X64736Y-60889D01*
X64736Y-60889D02*
X64763Y-60917D01*
X63311Y-61889D02*
X64736Y-61889D01*
X64736Y-61889D02*
X64763Y-61917D01*
X63311Y-49889D02*
X64437Y-49889D01*
X64437Y-49889D02*
X64566Y-50018D01*
X66807Y-50968D02*
X66125Y-50968D01*
X65176Y-50018D02*
X64566Y-50018D01*
X66125Y-50968D02*
X65176Y-50018D01*
X63311Y-51889D02*
X64469Y-51889D01*
X64469Y-51889D02*
X64566Y-51987D01*
X66807Y-54905D02*
X66807Y-54602D01*
X64782Y-51987D02*
X64566Y-51987D01*
X65354Y-52559D02*
X64782Y-51987D01*
X65354Y-53149D02*
X65354Y-52559D01*
X66807Y-54602D02*
X65354Y-53149D01*
X63311Y-62889D02*
X64642Y-62889D01*
X64642Y-62889D02*
X64763Y-63010D01*
X64763Y-63010D02*
X65335Y-63010D01*
X66354Y-61992D02*
X66807Y-61992D01*
X65335Y-63010D02*
X66354Y-61992D01*
X81059Y-58933D02*
X81059Y-55161D01*
X81674Y-54546D02*
X82480Y-54546D01*
X81059Y-55161D02*
X81674Y-54546D01*
X82405Y-53559D02*
X82405Y-54471D01*
X82405Y-54471D02*
X82480Y-54546D01*
X76574Y-54546D02*
X77774Y-54546D01*
X79724Y-58598D02*
X80059Y-58933D01*
X79724Y-56496D02*
X79724Y-58598D01*
X77774Y-54546D02*
X79724Y-56496D01*
X76500Y-53559D02*
X76500Y-54471D01*
X76500Y-54471D02*
X76574Y-54546D01*
X76909Y-68185D02*
X76909Y-66263D01*
X76909Y-66263D02*
X76933Y-66240D01*
G54D10*
G36*
X85950Y-65242D02*
X84848Y-66344D01*
X84790Y-66432D01*
X84769Y-66535D01*
X84769Y-72171D01*
X84483Y-72171D01*
X84483Y-66454D01*
X84483Y-66025D01*
X84441Y-65814D01*
X84321Y-65636D01*
X84143Y-65517D01*
X83933Y-65475D01*
X83842Y-65493D01*
X83842Y-61417D01*
X83842Y-61417D01*
X83842Y-61417D01*
X83842Y-53149D01*
X83813Y-53004D01*
X83731Y-52882D01*
X83731Y-52882D01*
X83141Y-52291D01*
X83018Y-52209D01*
X82981Y-52202D01*
X82955Y-52163D01*
X82799Y-52059D01*
X82955Y-51955D01*
X83076Y-51773D01*
X83119Y-51559D01*
X83076Y-51344D01*
X82955Y-51163D01*
X82773Y-51041D01*
X82559Y-50999D01*
X82251Y-50999D01*
X82037Y-51041D01*
X81855Y-51163D01*
X81734Y-51344D01*
X81691Y-51559D01*
X81734Y-51773D01*
X81855Y-51955D01*
X82011Y-52059D01*
X81855Y-52163D01*
X81836Y-52191D01*
X81745Y-52209D01*
X81622Y-52291D01*
X81622Y-52291D01*
X80835Y-53079D01*
X80753Y-53201D01*
X80724Y-53346D01*
X80724Y-53346D01*
X80724Y-53780D01*
X79961Y-54543D01*
X79487Y-54543D01*
X78985Y-54041D01*
X79037Y-54076D01*
X79251Y-54119D01*
X79559Y-54119D01*
X79773Y-54076D01*
X79955Y-53955D01*
X80076Y-53773D01*
X80119Y-53559D01*
X80105Y-53490D01*
X80105Y-51819D01*
X80105Y-51199D01*
X80067Y-51107D01*
X79997Y-51037D01*
X79905Y-50999D01*
X79806Y-50999D01*
X79379Y-50999D01*
X78310Y-49929D01*
X78187Y-49847D01*
X78043Y-49818D01*
X78043Y-49818D01*
X75787Y-49818D01*
X75642Y-49847D01*
X75520Y-49929D01*
X75520Y-49929D01*
X75237Y-50212D01*
X73801Y-50212D01*
X73874Y-50182D01*
X73875Y-50181D01*
X74803Y-50181D01*
X74803Y-50181D01*
X74803Y-50181D01*
X74947Y-50152D01*
X75070Y-50070D01*
X75660Y-49479D01*
X75660Y-49479D01*
X75660Y-49479D01*
X75699Y-49422D01*
X75718Y-49422D01*
X75810Y-49384D01*
X75880Y-49313D01*
X75918Y-49221D01*
X75918Y-49122D01*
X75918Y-48772D01*
X75880Y-48680D01*
X75822Y-48622D01*
X75880Y-48563D01*
X75918Y-48471D01*
X75918Y-48372D01*
X75918Y-48022D01*
X75880Y-47930D01*
X75810Y-47860D01*
X75732Y-47827D01*
X75841Y-47665D01*
X75883Y-47454D01*
X75883Y-47025D01*
X75841Y-46814D01*
X75721Y-46636D01*
X75711Y-46629D01*
X75711Y-46122D01*
X75739Y-46103D01*
X75858Y-45924D01*
X75900Y-45714D01*
X75900Y-45080D01*
X75858Y-44870D01*
X75739Y-44692D01*
X75560Y-44572D01*
X75350Y-44530D01*
X75139Y-44572D01*
X74961Y-44692D01*
X74850Y-44858D01*
X74739Y-44692D01*
X74560Y-44572D01*
X74350Y-44530D01*
X74139Y-44572D01*
X73961Y-44692D01*
X73850Y-44858D01*
X73739Y-44692D01*
X73560Y-44572D01*
X73350Y-44530D01*
X73139Y-44572D01*
X72961Y-44692D01*
X72850Y-44858D01*
X72739Y-44692D01*
X72560Y-44572D01*
X72350Y-44530D01*
X72139Y-44572D01*
X71961Y-44692D01*
X71850Y-44858D01*
X71739Y-44692D01*
X71560Y-44572D01*
X71350Y-44530D01*
X71139Y-44572D01*
X70961Y-44692D01*
X70850Y-44858D01*
X70739Y-44692D01*
X70560Y-44572D01*
X70350Y-44530D01*
X70139Y-44572D01*
X69961Y-44692D01*
X69846Y-44864D01*
X69839Y-44840D01*
X69703Y-44673D01*
X69514Y-44570D01*
X69485Y-44564D01*
X69400Y-44612D01*
X69400Y-45347D01*
X69408Y-45347D01*
X69408Y-45447D01*
X69400Y-45447D01*
X69400Y-46182D01*
X69485Y-46230D01*
X69514Y-46224D01*
X69703Y-46121D01*
X69839Y-45954D01*
X69846Y-45930D01*
X69955Y-46093D01*
X69955Y-46629D01*
X69944Y-46636D01*
X69829Y-46808D01*
X69822Y-46783D01*
X69686Y-46615D01*
X69497Y-46512D01*
X69468Y-46507D01*
X69383Y-46555D01*
X69383Y-47190D01*
X69390Y-47190D01*
X69390Y-47290D01*
X69383Y-47290D01*
X69383Y-47925D01*
X69468Y-47973D01*
X69497Y-47967D01*
X69686Y-47864D01*
X69822Y-47696D01*
X69829Y-47672D01*
X69925Y-47815D01*
X69925Y-47832D01*
X69859Y-47859D01*
X69788Y-47930D01*
X69750Y-48022D01*
X69750Y-48121D01*
X69750Y-48471D01*
X69788Y-48563D01*
X69844Y-48619D01*
X69310Y-48619D01*
X69310Y-48619D01*
X69281Y-48624D01*
X69165Y-48647D01*
X69042Y-48729D01*
X69042Y-48729D01*
X67842Y-49929D01*
X67761Y-50052D01*
X67732Y-50196D01*
X67732Y-50196D01*
X67732Y-52040D01*
X67486Y-51794D01*
X67478Y-51754D01*
X67356Y-51572D01*
X67201Y-51468D01*
X67356Y-51364D01*
X67478Y-51182D01*
X67520Y-50968D01*
X67478Y-50754D01*
X67356Y-50572D01*
X67175Y-50451D01*
X66960Y-50408D01*
X66653Y-50408D01*
X66439Y-50451D01*
X66261Y-50569D01*
X65443Y-49751D01*
X65320Y-49669D01*
X65176Y-49640D01*
X65176Y-49640D01*
X64992Y-49640D01*
X64983Y-49631D01*
X64891Y-49593D01*
X64792Y-49593D01*
X64662Y-49593D01*
X64582Y-49540D01*
X64437Y-49511D01*
X64437Y-49511D01*
X64023Y-49511D01*
X64016Y-49500D01*
X63838Y-49381D01*
X63627Y-49339D01*
X62994Y-49339D01*
X62783Y-49381D01*
X62605Y-49500D01*
X62486Y-49679D01*
X62444Y-49889D01*
X62486Y-50100D01*
X62605Y-50278D01*
X62771Y-50389D01*
X62605Y-50500D01*
X62583Y-50533D01*
X62548Y-50540D01*
X62425Y-50622D01*
X62425Y-50622D01*
X61740Y-51307D01*
X61658Y-51430D01*
X61629Y-51574D01*
X61629Y-51574D01*
X61629Y-52559D01*
X61629Y-52559D01*
X61658Y-52703D01*
X61740Y-52826D01*
X61768Y-52854D01*
X61740Y-52882D01*
X61658Y-53004D01*
X61629Y-53149D01*
X61629Y-53149D01*
X61629Y-54346D01*
X61614Y-54346D01*
X61614Y-54346D01*
X61585Y-54352D01*
X61469Y-54375D01*
X61346Y-54457D01*
X61346Y-54457D01*
X60362Y-55441D01*
X60280Y-55564D01*
X60251Y-55708D01*
X60251Y-55708D01*
X60251Y-63188D01*
X60251Y-63188D01*
X60280Y-63333D01*
X60362Y-63456D01*
X60379Y-63473D01*
X60379Y-63474D01*
X60447Y-63638D01*
X60573Y-63764D01*
X60737Y-63832D01*
X60915Y-63832D01*
X61039Y-63781D01*
X61039Y-63976D01*
X61039Y-63976D01*
X61068Y-64121D01*
X61150Y-64243D01*
X61937Y-65031D01*
X61937Y-65031D01*
X62060Y-65112D01*
X62204Y-65141D01*
X62204Y-65141D01*
X62204Y-65141D01*
X65354Y-65141D01*
X65354Y-65141D01*
X65354Y-65141D01*
X65354Y-65141D01*
X72622Y-65141D01*
X72652Y-65213D01*
X72778Y-65339D01*
X72942Y-65407D01*
X73119Y-65407D01*
X73284Y-65339D01*
X73410Y-65214D01*
X73478Y-65049D01*
X73478Y-65037D01*
X73538Y-64947D01*
X73566Y-64803D01*
X73538Y-64658D01*
X73456Y-64535D01*
X73333Y-64453D01*
X73188Y-64425D01*
X73044Y-64453D01*
X73041Y-64456D01*
X72979Y-64414D01*
X72834Y-64385D01*
X72834Y-64385D01*
X70493Y-64385D01*
X70507Y-64352D01*
X70507Y-64252D01*
X70507Y-63632D01*
X70469Y-63540D01*
X70398Y-63470D01*
X70307Y-63432D01*
X70279Y-63432D01*
X70378Y-63352D01*
X70483Y-63160D01*
X70490Y-63128D01*
X70442Y-63042D01*
X69857Y-63042D01*
X69857Y-63050D01*
X69757Y-63050D01*
X69757Y-63042D01*
X69172Y-63042D01*
X69124Y-63128D01*
X69130Y-63160D01*
X69235Y-63352D01*
X69334Y-63432D01*
X69307Y-63432D01*
X69215Y-63470D01*
X69145Y-63540D01*
X69114Y-63614D01*
X69069Y-63614D01*
X68488Y-63032D01*
X68488Y-50353D01*
X69466Y-49375D01*
X69849Y-49375D01*
X69858Y-49383D01*
X69950Y-49422D01*
X70050Y-49422D01*
X70600Y-49422D01*
X70692Y-49384D01*
X70762Y-49313D01*
X70767Y-49301D01*
X70772Y-49313D01*
X70843Y-49383D01*
X70934Y-49422D01*
X70953Y-49422D01*
X70992Y-49479D01*
X71687Y-50174D01*
X71597Y-50211D01*
X71471Y-50337D01*
X71403Y-50501D01*
X71403Y-50502D01*
X70795Y-51110D01*
X70713Y-51233D01*
X70685Y-51377D01*
X70685Y-51377D01*
X70685Y-52205D01*
X70520Y-52369D01*
X70520Y-50968D01*
X70478Y-50754D01*
X70356Y-50572D01*
X70175Y-50451D01*
X69960Y-50408D01*
X69653Y-50408D01*
X69439Y-50451D01*
X69257Y-50572D01*
X69136Y-50754D01*
X69093Y-50968D01*
X69136Y-51182D01*
X69257Y-51364D01*
X69412Y-51468D01*
X69406Y-51470D01*
X69235Y-51607D01*
X69130Y-51800D01*
X69124Y-51831D01*
X69172Y-51918D01*
X69757Y-51918D01*
X69757Y-51910D01*
X69857Y-51910D01*
X69857Y-51918D01*
X70442Y-51918D01*
X70490Y-51831D01*
X70483Y-51800D01*
X70378Y-51607D01*
X70207Y-51470D01*
X70201Y-51468D01*
X70356Y-51364D01*
X70478Y-51182D01*
X70520Y-50968D01*
X70520Y-52369D01*
X70421Y-52469D01*
X70398Y-52446D01*
X70307Y-52408D01*
X70279Y-52408D01*
X70378Y-52329D01*
X70483Y-52136D01*
X70490Y-52105D01*
X70442Y-52018D01*
X69857Y-52018D01*
X69857Y-52026D01*
X69757Y-52026D01*
X69757Y-52018D01*
X69172Y-52018D01*
X69124Y-52105D01*
X69130Y-52136D01*
X69235Y-52329D01*
X69334Y-52408D01*
X69307Y-52408D01*
X69215Y-52446D01*
X69145Y-52516D01*
X69107Y-52608D01*
X69107Y-52708D01*
X69107Y-53328D01*
X69145Y-53419D01*
X69215Y-53490D01*
X69307Y-53528D01*
X69406Y-53528D01*
X70306Y-53528D01*
X70398Y-53490D01*
X70468Y-53420D01*
X70503Y-53337D01*
X70601Y-53317D01*
X70723Y-53235D01*
X71275Y-52684D01*
X71275Y-55748D01*
X70520Y-56503D01*
X70520Y-54905D01*
X70478Y-54691D01*
X70356Y-54509D01*
X70175Y-54388D01*
X69960Y-54345D01*
X69653Y-54345D01*
X69439Y-54388D01*
X69257Y-54509D01*
X69136Y-54691D01*
X69093Y-54905D01*
X69136Y-55119D01*
X69257Y-55301D01*
X69412Y-55405D01*
X69406Y-55407D01*
X69235Y-55544D01*
X69130Y-55737D01*
X69124Y-55768D01*
X69172Y-55855D01*
X69757Y-55855D01*
X69757Y-55847D01*
X69857Y-55847D01*
X69857Y-55855D01*
X70442Y-55855D01*
X70490Y-55768D01*
X70483Y-55737D01*
X70378Y-55544D01*
X70207Y-55407D01*
X70201Y-55405D01*
X70356Y-55301D01*
X70478Y-55119D01*
X70520Y-54905D01*
X70520Y-56503D01*
X70498Y-56525D01*
X70469Y-56454D01*
X70398Y-56383D01*
X70307Y-56345D01*
X70279Y-56345D01*
X70378Y-56266D01*
X70483Y-56073D01*
X70490Y-56042D01*
X70442Y-55955D01*
X69857Y-55955D01*
X69857Y-55963D01*
X69757Y-55963D01*
X69757Y-55955D01*
X69172Y-55955D01*
X69124Y-56042D01*
X69130Y-56073D01*
X69235Y-56266D01*
X69334Y-56345D01*
X69307Y-56345D01*
X69215Y-56383D01*
X69145Y-56453D01*
X69107Y-56545D01*
X69107Y-56645D01*
X69107Y-57265D01*
X69145Y-57356D01*
X69215Y-57427D01*
X69307Y-57465D01*
X69406Y-57465D01*
X70306Y-57465D01*
X70398Y-57427D01*
X70468Y-57357D01*
X70499Y-57283D01*
X70653Y-57283D01*
X70653Y-57283D01*
X70653Y-57283D01*
X70798Y-57254D01*
X70920Y-57172D01*
X71920Y-56172D01*
X71920Y-56172D01*
X71920Y-56172D01*
X72002Y-56050D01*
X72031Y-55905D01*
X72031Y-51928D01*
X72331Y-51628D01*
X72332Y-51628D01*
X72496Y-51560D01*
X72622Y-51434D01*
X72690Y-51270D01*
X72690Y-51268D01*
X72708Y-51251D01*
X72730Y-51217D01*
X72799Y-51287D01*
X72799Y-51298D01*
X72799Y-51918D01*
X72837Y-52010D01*
X72908Y-52080D01*
X73000Y-52119D01*
X73027Y-52119D01*
X72928Y-52198D01*
X72823Y-52390D01*
X72816Y-52422D01*
X72865Y-52509D01*
X73450Y-52509D01*
X73450Y-52501D01*
X73550Y-52501D01*
X73550Y-52509D01*
X74134Y-52509D01*
X74183Y-52422D01*
X74176Y-52390D01*
X74071Y-52198D01*
X73972Y-52119D01*
X73999Y-52119D01*
X74091Y-52081D01*
X74161Y-52010D01*
X74199Y-51919D01*
X74200Y-51819D01*
X74200Y-51199D01*
X74162Y-51107D01*
X74091Y-51037D01*
X73999Y-50999D01*
X73900Y-50999D01*
X73580Y-50999D01*
X73550Y-50968D01*
X75393Y-50968D01*
X75393Y-50968D01*
X75393Y-50968D01*
X75538Y-50939D01*
X75660Y-50857D01*
X75943Y-50574D01*
X77886Y-50574D01*
X78705Y-51393D01*
X78705Y-51918D01*
X78743Y-52010D01*
X78813Y-52080D01*
X78905Y-52119D01*
X78932Y-52119D01*
X78834Y-52198D01*
X78729Y-52390D01*
X78722Y-52422D01*
X78770Y-52509D01*
X79355Y-52509D01*
X79355Y-52501D01*
X79455Y-52501D01*
X79455Y-52509D01*
X80040Y-52509D01*
X80088Y-52422D01*
X80082Y-52390D01*
X79976Y-52198D01*
X79878Y-52119D01*
X79905Y-52119D01*
X79996Y-52081D01*
X80067Y-52010D01*
X80105Y-51919D01*
X80105Y-51819D01*
X80105Y-53490D01*
X80076Y-53344D01*
X79955Y-53163D01*
X79799Y-53059D01*
X79806Y-53057D01*
X79976Y-52919D01*
X80082Y-52727D01*
X80088Y-52695D01*
X80040Y-52609D01*
X79455Y-52609D01*
X79455Y-52616D01*
X79355Y-52616D01*
X79355Y-52609D01*
X78770Y-52609D01*
X78722Y-52695D01*
X78729Y-52727D01*
X78834Y-52919D01*
X79005Y-53057D01*
X79011Y-53059D01*
X78855Y-53163D01*
X78734Y-53344D01*
X78691Y-53559D01*
X78734Y-53773D01*
X78768Y-53824D01*
X77235Y-52291D01*
X77113Y-52209D01*
X77076Y-52202D01*
X77049Y-52163D01*
X76894Y-52059D01*
X77049Y-51955D01*
X77171Y-51773D01*
X77213Y-51559D01*
X77171Y-51344D01*
X77049Y-51163D01*
X76868Y-51041D01*
X76653Y-50999D01*
X76346Y-50999D01*
X76131Y-51041D01*
X75950Y-51163D01*
X75828Y-51344D01*
X75786Y-51559D01*
X75828Y-51773D01*
X75950Y-51955D01*
X76105Y-52059D01*
X75950Y-52163D01*
X75828Y-52344D01*
X75786Y-52559D01*
X75828Y-52773D01*
X75950Y-52955D01*
X76105Y-53059D01*
X75950Y-53163D01*
X75828Y-53344D01*
X75786Y-53559D01*
X75828Y-53773D01*
X75950Y-53955D01*
X76122Y-54069D01*
X76122Y-54195D01*
X76087Y-54229D01*
X76049Y-54321D01*
X76049Y-54420D01*
X76049Y-54770D01*
X76087Y-54862D01*
X76146Y-54921D01*
X76087Y-54979D01*
X76049Y-55071D01*
X76049Y-55170D01*
X76049Y-55520D01*
X76087Y-55612D01*
X76158Y-55683D01*
X76196Y-55699D01*
X76196Y-55748D01*
X74836Y-57109D01*
X74836Y-55856D01*
X74807Y-55711D01*
X74725Y-55589D01*
X74725Y-55589D01*
X73379Y-54243D01*
X73379Y-54242D01*
X73327Y-54115D01*
X73346Y-54119D01*
X73653Y-54119D01*
X73868Y-54076D01*
X74049Y-53955D01*
X74171Y-53773D01*
X74213Y-53559D01*
X74171Y-53344D01*
X74049Y-53163D01*
X73894Y-53059D01*
X73900Y-53057D01*
X74071Y-52919D01*
X74176Y-52727D01*
X74183Y-52695D01*
X74134Y-52609D01*
X73550Y-52609D01*
X73550Y-52616D01*
X73450Y-52616D01*
X73450Y-52609D01*
X72865Y-52609D01*
X72816Y-52695D01*
X72823Y-52727D01*
X72928Y-52919D01*
X73099Y-53057D01*
X73105Y-53059D01*
X72950Y-53163D01*
X72828Y-53344D01*
X72786Y-53559D01*
X72828Y-53773D01*
X72850Y-53806D01*
X72795Y-53795D01*
X72650Y-53824D01*
X72528Y-53905D01*
X72446Y-54028D01*
X72417Y-54173D01*
X72446Y-54317D01*
X72486Y-54377D01*
X72486Y-54419D01*
X72554Y-54583D01*
X72679Y-54709D01*
X72843Y-54777D01*
X72845Y-54777D01*
X74080Y-56012D01*
X74080Y-57865D01*
X73791Y-58154D01*
X73709Y-58276D01*
X73692Y-58363D01*
X73663Y-58383D01*
X73541Y-58565D01*
X73499Y-58779D01*
X73499Y-59086D01*
X73541Y-59301D01*
X73663Y-59482D01*
X73681Y-59494D01*
X73681Y-59885D01*
X73681Y-59885D01*
X73709Y-60030D01*
X73791Y-60153D01*
X73914Y-60235D01*
X74059Y-60263D01*
X74059Y-60263D01*
X74203Y-60235D01*
X74225Y-60220D01*
X81692Y-60220D01*
X81692Y-60220D01*
X81692Y-60220D01*
X81837Y-60191D01*
X81960Y-60109D01*
X82747Y-59322D01*
X82747Y-59322D01*
X82747Y-59322D01*
X82829Y-59199D01*
X82858Y-59055D01*
X82858Y-59055D01*
X82858Y-59055D01*
X82858Y-55699D01*
X82896Y-55683D01*
X82967Y-55613D01*
X83005Y-55521D01*
X83005Y-55421D01*
X83005Y-55071D01*
X82967Y-54979D01*
X82908Y-54921D01*
X82967Y-54863D01*
X83005Y-54771D01*
X83005Y-54671D01*
X83005Y-54321D01*
X82967Y-54229D01*
X82897Y-54159D01*
X82805Y-54121D01*
X82783Y-54121D01*
X82783Y-54069D01*
X82955Y-53955D01*
X83076Y-53773D01*
X83086Y-53723D01*
X83086Y-61260D01*
X81619Y-62728D01*
X81619Y-62086D01*
X81619Y-61779D01*
X81576Y-61565D01*
X81455Y-61383D01*
X81273Y-61261D01*
X81059Y-61219D01*
X80844Y-61261D01*
X80663Y-61383D01*
X80559Y-61539D01*
X80455Y-61383D01*
X80437Y-61371D01*
X80437Y-61358D01*
X80408Y-61213D01*
X80326Y-61091D01*
X80326Y-61091D01*
X79991Y-60756D01*
X79869Y-60674D01*
X79724Y-60645D01*
X79724Y-60645D01*
X76574Y-60645D01*
X72400Y-60645D01*
X70739Y-58984D01*
X70617Y-58902D01*
X70472Y-58874D01*
X70472Y-58874D01*
X69742Y-58874D01*
X69741Y-58873D01*
X69705Y-58858D01*
X69740Y-58843D01*
X69773Y-58811D01*
X69783Y-58811D01*
X71576Y-58811D01*
X71706Y-58941D01*
X71927Y-59032D01*
X72166Y-59033D01*
X72386Y-58942D01*
X72555Y-58773D01*
X72647Y-58552D01*
X72647Y-58314D01*
X72556Y-58093D01*
X72387Y-57924D01*
X72167Y-57833D01*
X71928Y-57832D01*
X71707Y-57924D01*
X71576Y-58055D01*
X69783Y-58055D01*
X69667Y-58055D01*
X69577Y-58017D01*
X69399Y-58017D01*
X69235Y-58085D01*
X69229Y-58091D01*
X69107Y-58115D01*
X68984Y-58197D01*
X68902Y-58319D01*
X68874Y-58464D01*
X68902Y-58609D01*
X68984Y-58731D01*
X69107Y-58813D01*
X69229Y-58838D01*
X69234Y-58843D01*
X69270Y-58858D01*
X69235Y-58872D01*
X69229Y-58878D01*
X69107Y-58902D01*
X68984Y-58984D01*
X68902Y-59107D01*
X68874Y-59251D01*
X68902Y-59396D01*
X68984Y-59519D01*
X69107Y-59601D01*
X69229Y-59625D01*
X69234Y-59630D01*
X69270Y-59645D01*
X69235Y-59660D01*
X69229Y-59665D01*
X69107Y-59690D01*
X68984Y-59772D01*
X68902Y-59894D01*
X68874Y-60039D01*
X68902Y-60184D01*
X68984Y-60306D01*
X69026Y-60334D01*
X68984Y-60362D01*
X68902Y-60485D01*
X68874Y-60629D01*
X68902Y-60774D01*
X68984Y-60897D01*
X69107Y-60979D01*
X69229Y-61003D01*
X69234Y-61008D01*
X69398Y-61076D01*
X69400Y-61076D01*
X69755Y-61432D01*
X69653Y-61432D01*
X69439Y-61474D01*
X69257Y-61596D01*
X69136Y-61777D01*
X69093Y-61992D01*
X69136Y-62206D01*
X69257Y-62388D01*
X69412Y-62492D01*
X69406Y-62493D01*
X69235Y-62631D01*
X69130Y-62824D01*
X69124Y-62855D01*
X69172Y-62942D01*
X69757Y-62942D01*
X69757Y-62934D01*
X69857Y-62934D01*
X69857Y-62942D01*
X70442Y-62942D01*
X70490Y-62855D01*
X70483Y-62824D01*
X70378Y-62631D01*
X70207Y-62493D01*
X70201Y-62492D01*
X70356Y-62388D01*
X70478Y-62206D01*
X70486Y-62163D01*
X70685Y-62361D01*
X70685Y-62992D01*
X70685Y-62992D01*
X70713Y-63136D01*
X70795Y-63259D01*
X71189Y-63653D01*
X71189Y-63653D01*
X71312Y-63735D01*
X71456Y-63763D01*
X80314Y-63763D01*
X80314Y-63763D01*
X80314Y-63763D01*
X80459Y-63735D01*
X80582Y-63653D01*
X81326Y-62908D01*
X81326Y-62908D01*
X81326Y-62908D01*
X81408Y-62786D01*
X81437Y-62641D01*
X81437Y-62494D01*
X81455Y-62482D01*
X81576Y-62301D01*
X81619Y-62086D01*
X81619Y-62728D01*
X80552Y-63795D01*
X75590Y-63795D01*
X75445Y-63824D01*
X75323Y-63905D01*
X75323Y-63905D01*
X74912Y-64316D01*
X74911Y-64316D01*
X74747Y-64384D01*
X74741Y-64390D01*
X74619Y-64414D01*
X74496Y-64496D01*
X74414Y-64619D01*
X74385Y-64763D01*
X74414Y-64908D01*
X74496Y-65031D01*
X74619Y-65112D01*
X74741Y-65137D01*
X74746Y-65142D01*
X74910Y-65210D01*
X75088Y-65210D01*
X75252Y-65142D01*
X75378Y-65017D01*
X75446Y-64853D01*
X75446Y-64851D01*
X75747Y-64551D01*
X80708Y-64551D01*
X80708Y-64551D01*
X80708Y-64551D01*
X80853Y-64522D01*
X80975Y-64440D01*
X83731Y-61684D01*
X83731Y-61684D01*
X83731Y-61684D01*
X83813Y-61561D01*
X83813Y-61561D01*
X83836Y-61446D01*
X83842Y-61417D01*
X83842Y-65493D01*
X83722Y-65517D01*
X83544Y-65636D01*
X83433Y-65802D01*
X83321Y-65636D01*
X83143Y-65517D01*
X82933Y-65475D01*
X82722Y-65517D01*
X82544Y-65636D01*
X82433Y-65802D01*
X82321Y-65636D01*
X82143Y-65517D01*
X81933Y-65475D01*
X81722Y-65517D01*
X81544Y-65636D01*
X81433Y-65802D01*
X81321Y-65636D01*
X81143Y-65517D01*
X80933Y-65475D01*
X80722Y-65517D01*
X80544Y-65636D01*
X80433Y-65802D01*
X80321Y-65636D01*
X80143Y-65517D01*
X79933Y-65475D01*
X79722Y-65517D01*
X79544Y-65636D01*
X79433Y-65802D01*
X79321Y-65636D01*
X79143Y-65517D01*
X78933Y-65475D01*
X78722Y-65517D01*
X78544Y-65636D01*
X78424Y-65814D01*
X78383Y-66025D01*
X78383Y-66454D01*
X78424Y-66665D01*
X78519Y-66807D01*
X78519Y-67373D01*
X78508Y-67381D01*
X78389Y-67559D01*
X78347Y-67769D01*
X78347Y-68403D01*
X78389Y-68613D01*
X78508Y-68792D01*
X78687Y-68911D01*
X78897Y-68953D01*
X79108Y-68911D01*
X79286Y-68792D01*
X79397Y-68625D01*
X79508Y-68792D01*
X79687Y-68911D01*
X79897Y-68953D01*
X80108Y-68911D01*
X80286Y-68792D01*
X80397Y-68625D01*
X80508Y-68792D01*
X80687Y-68911D01*
X80897Y-68953D01*
X81108Y-68911D01*
X81286Y-68792D01*
X81397Y-68625D01*
X81508Y-68792D01*
X81687Y-68911D01*
X81897Y-68953D01*
X82108Y-68911D01*
X82286Y-68792D01*
X82397Y-68625D01*
X82508Y-68792D01*
X82687Y-68911D01*
X82897Y-68953D01*
X83108Y-68911D01*
X83286Y-68792D01*
X83397Y-68625D01*
X83508Y-68792D01*
X83687Y-68911D01*
X83897Y-68953D01*
X84108Y-68911D01*
X84286Y-68792D01*
X84405Y-68613D01*
X84447Y-68403D01*
X84447Y-67769D01*
X84405Y-67559D01*
X84286Y-67381D01*
X84275Y-67373D01*
X84275Y-66874D01*
X84321Y-66843D01*
X84441Y-66665D01*
X84483Y-66454D01*
X84483Y-72171D01*
X77483Y-72171D01*
X77483Y-66454D01*
X77483Y-66025D01*
X77441Y-65814D01*
X77321Y-65636D01*
X77143Y-65517D01*
X76933Y-65475D01*
X76722Y-65517D01*
X76544Y-65636D01*
X76429Y-65808D01*
X76422Y-65783D01*
X76286Y-65615D01*
X76097Y-65512D01*
X76068Y-65507D01*
X75983Y-65555D01*
X75983Y-66190D01*
X75990Y-66190D01*
X75990Y-66290D01*
X75983Y-66290D01*
X75983Y-66925D01*
X76068Y-66973D01*
X76097Y-66967D01*
X76286Y-66864D01*
X76422Y-66696D01*
X76429Y-66672D01*
X76531Y-66824D01*
X76531Y-67472D01*
X76520Y-67479D01*
X76405Y-67651D01*
X76398Y-67628D01*
X76263Y-67460D01*
X76073Y-67357D01*
X76044Y-67351D01*
X75959Y-67400D01*
X75959Y-68135D01*
X75967Y-68135D01*
X75967Y-68235D01*
X75959Y-68235D01*
X75959Y-68969D01*
X76044Y-69018D01*
X76073Y-69012D01*
X76263Y-68909D01*
X76398Y-68741D01*
X76405Y-68718D01*
X76520Y-68890D01*
X76698Y-69009D01*
X76909Y-69051D01*
X77119Y-69009D01*
X77298Y-68890D01*
X77417Y-68712D01*
X77459Y-68501D01*
X77459Y-67868D01*
X77417Y-67657D01*
X77298Y-67479D01*
X77287Y-67472D01*
X77287Y-66866D01*
X77321Y-66843D01*
X77441Y-66665D01*
X77483Y-66454D01*
X77483Y-72171D01*
X75883Y-72171D01*
X75883Y-66925D01*
X75883Y-66290D01*
X75883Y-66190D01*
X75883Y-65555D01*
X75798Y-65507D01*
X75768Y-65512D01*
X75579Y-65615D01*
X75444Y-65783D01*
X75433Y-65820D01*
X75422Y-65783D01*
X75286Y-65615D01*
X75097Y-65512D01*
X75068Y-65507D01*
X74983Y-65555D01*
X74983Y-66190D01*
X75383Y-66190D01*
X75483Y-66190D01*
X75883Y-66190D01*
X75883Y-66290D01*
X75483Y-66290D01*
X75383Y-66290D01*
X74983Y-66290D01*
X74983Y-66925D01*
X75068Y-66973D01*
X75097Y-66967D01*
X75286Y-66864D01*
X75422Y-66696D01*
X75433Y-66659D01*
X75444Y-66696D01*
X75579Y-66864D01*
X75768Y-66967D01*
X75798Y-66973D01*
X75883Y-66925D01*
X75883Y-72171D01*
X75859Y-72171D01*
X75859Y-68969D01*
X75859Y-68235D01*
X75859Y-68135D01*
X75859Y-67400D01*
X75774Y-67351D01*
X75745Y-67357D01*
X75555Y-67460D01*
X75420Y-67628D01*
X75409Y-67665D01*
X75398Y-67628D01*
X75263Y-67460D01*
X75073Y-67357D01*
X75044Y-67351D01*
X74959Y-67400D01*
X74959Y-68135D01*
X75359Y-68135D01*
X75459Y-68135D01*
X75859Y-68135D01*
X75859Y-68235D01*
X75459Y-68235D01*
X75359Y-68235D01*
X74959Y-68235D01*
X74959Y-68969D01*
X75044Y-69018D01*
X75073Y-69012D01*
X75263Y-68909D01*
X75398Y-68741D01*
X75409Y-68704D01*
X75420Y-68741D01*
X75555Y-68909D01*
X75745Y-69012D01*
X75774Y-69018D01*
X75859Y-68969D01*
X75859Y-72171D01*
X74883Y-72171D01*
X74883Y-66925D01*
X74883Y-66290D01*
X74875Y-66290D01*
X74875Y-66190D01*
X74883Y-66190D01*
X74883Y-65555D01*
X74798Y-65507D01*
X74768Y-65512D01*
X74579Y-65615D01*
X74444Y-65783D01*
X74436Y-65808D01*
X74321Y-65636D01*
X74143Y-65517D01*
X73933Y-65475D01*
X73722Y-65517D01*
X73544Y-65636D01*
X73433Y-65802D01*
X73321Y-65636D01*
X73143Y-65517D01*
X72933Y-65475D01*
X72722Y-65517D01*
X72544Y-65636D01*
X72433Y-65802D01*
X72321Y-65636D01*
X72143Y-65517D01*
X71933Y-65475D01*
X71722Y-65517D01*
X71544Y-65636D01*
X71483Y-65727D01*
X71480Y-65713D01*
X71361Y-65534D01*
X71182Y-65415D01*
X70972Y-65373D01*
X70761Y-65415D01*
X70583Y-65534D01*
X70472Y-65700D01*
X70361Y-65534D01*
X70182Y-65415D01*
X69972Y-65373D01*
X69761Y-65415D01*
X69583Y-65534D01*
X69464Y-65713D01*
X69422Y-65923D01*
X69422Y-66556D01*
X69464Y-66767D01*
X69583Y-66945D01*
X69594Y-66953D01*
X69594Y-67495D01*
X69583Y-67503D01*
X69464Y-67681D01*
X69422Y-67892D01*
X69422Y-68525D01*
X69464Y-68735D01*
X69583Y-68914D01*
X69761Y-69033D01*
X69972Y-69075D01*
X70182Y-69033D01*
X70361Y-68914D01*
X70472Y-68747D01*
X70583Y-68914D01*
X70761Y-69033D01*
X70972Y-69075D01*
X71182Y-69033D01*
X71361Y-68914D01*
X71448Y-68783D01*
X71520Y-68890D01*
X71698Y-69009D01*
X71909Y-69051D01*
X72119Y-69009D01*
X72298Y-68890D01*
X72409Y-68724D01*
X72520Y-68890D01*
X72698Y-69009D01*
X72909Y-69051D01*
X73119Y-69009D01*
X73298Y-68890D01*
X73409Y-68724D01*
X73520Y-68890D01*
X73698Y-69009D01*
X73909Y-69051D01*
X74119Y-69009D01*
X74298Y-68890D01*
X74413Y-68718D01*
X74420Y-68741D01*
X74555Y-68909D01*
X74745Y-69012D01*
X74774Y-69018D01*
X74859Y-68969D01*
X74859Y-68235D01*
X74851Y-68235D01*
X74851Y-68135D01*
X74859Y-68135D01*
X74859Y-67400D01*
X74774Y-67351D01*
X74745Y-67357D01*
X74555Y-67460D01*
X74420Y-67628D01*
X74413Y-67651D01*
X74298Y-67479D01*
X74287Y-67472D01*
X74287Y-66866D01*
X74321Y-66843D01*
X74436Y-66672D01*
X74444Y-66696D01*
X74579Y-66864D01*
X74768Y-66967D01*
X74798Y-66973D01*
X74883Y-66925D01*
X74883Y-72171D01*
X69167Y-72171D01*
X69167Y-67716D01*
X69146Y-67613D01*
X69088Y-67525D01*
X69000Y-67467D01*
X68897Y-67446D01*
X65458Y-67446D01*
X65458Y-66037D01*
X65302Y-65660D01*
X65014Y-65371D01*
X64637Y-65215D01*
X64230Y-65214D01*
X63853Y-65370D01*
X63564Y-65658D01*
X63408Y-66035D01*
X63407Y-66443D01*
X63563Y-66820D01*
X63851Y-67108D01*
X64228Y-67264D01*
X64636Y-67265D01*
X65012Y-67109D01*
X65301Y-66821D01*
X65457Y-66444D01*
X65458Y-66037D01*
X65458Y-67446D01*
X59324Y-67446D01*
X59324Y-46332D01*
X64445Y-46332D01*
X64353Y-46370D01*
X64064Y-46658D01*
X63908Y-47035D01*
X63907Y-47443D01*
X64063Y-47820D01*
X64351Y-48108D01*
X64728Y-48264D01*
X65136Y-48265D01*
X65512Y-48109D01*
X65801Y-47821D01*
X65889Y-47610D01*
X65921Y-47771D01*
X66040Y-47949D01*
X66218Y-48068D01*
X66429Y-48110D01*
X66639Y-48068D01*
X66818Y-47949D01*
X66929Y-47783D01*
X67040Y-47949D01*
X67218Y-48068D01*
X67429Y-48110D01*
X67639Y-48068D01*
X67818Y-47949D01*
X67916Y-47802D01*
X67944Y-47843D01*
X68122Y-47962D01*
X68333Y-48004D01*
X68543Y-47962D01*
X68721Y-47843D01*
X68836Y-47672D01*
X68844Y-47696D01*
X68979Y-47864D01*
X69168Y-47967D01*
X69198Y-47973D01*
X69283Y-47925D01*
X69283Y-47290D01*
X69275Y-47290D01*
X69275Y-47190D01*
X69283Y-47190D01*
X69283Y-46555D01*
X69198Y-46507D01*
X69168Y-46512D01*
X68979Y-46615D01*
X68844Y-46783D01*
X68836Y-46808D01*
X68721Y-46636D01*
X68711Y-46629D01*
X68711Y-46122D01*
X68739Y-46103D01*
X68854Y-45930D01*
X68861Y-45954D01*
X68996Y-46121D01*
X69186Y-46224D01*
X69215Y-46230D01*
X69300Y-46182D01*
X69300Y-45447D01*
X69292Y-45447D01*
X69292Y-45347D01*
X69300Y-45347D01*
X69300Y-44612D01*
X69215Y-44564D01*
X69186Y-44570D01*
X68996Y-44673D01*
X68861Y-44840D01*
X68854Y-44864D01*
X68739Y-44692D01*
X68560Y-44572D01*
X68350Y-44530D01*
X68139Y-44572D01*
X67961Y-44692D01*
X67897Y-44787D01*
X67818Y-44668D01*
X67639Y-44549D01*
X67429Y-44507D01*
X67218Y-44549D01*
X67040Y-44668D01*
X66929Y-44834D01*
X66818Y-44668D01*
X66639Y-44549D01*
X66429Y-44507D01*
X66218Y-44549D01*
X66040Y-44668D01*
X65921Y-44846D01*
X65879Y-45057D01*
X65879Y-45690D01*
X65921Y-45901D01*
X66040Y-46079D01*
X66051Y-46086D01*
X66051Y-46531D01*
X66040Y-46538D01*
X65921Y-46716D01*
X65890Y-46872D01*
X65802Y-46660D01*
X65514Y-46371D01*
X65399Y-46323D01*
X65457Y-46312D01*
X65545Y-46253D01*
X65603Y-46166D01*
X65624Y-46062D01*
X65624Y-41214D01*
X84769Y-41214D01*
X84769Y-51181D01*
X84790Y-51284D01*
X84848Y-51371D01*
X85950Y-52473D01*
X85950Y-53019D01*
X85802Y-52660D01*
X85514Y-52371D01*
X85137Y-52215D01*
X84730Y-52214D01*
X84483Y-52317D01*
X84483Y-47454D01*
X84483Y-47025D01*
X84441Y-46814D01*
X84321Y-46636D01*
X84311Y-46629D01*
X84311Y-46090D01*
X84421Y-45924D01*
X84463Y-45714D01*
X84463Y-45080D01*
X84421Y-44870D01*
X84302Y-44692D01*
X84123Y-44572D01*
X83913Y-44530D01*
X83702Y-44572D01*
X83524Y-44692D01*
X83413Y-44858D01*
X83302Y-44692D01*
X83123Y-44572D01*
X82913Y-44530D01*
X82702Y-44572D01*
X82524Y-44692D01*
X82413Y-44858D01*
X82302Y-44692D01*
X82123Y-44572D01*
X81913Y-44530D01*
X81702Y-44572D01*
X81524Y-44692D01*
X81413Y-44858D01*
X81302Y-44692D01*
X81123Y-44572D01*
X80913Y-44530D01*
X80702Y-44572D01*
X80524Y-44692D01*
X80413Y-44858D01*
X80302Y-44692D01*
X80123Y-44572D01*
X79913Y-44530D01*
X79702Y-44572D01*
X79524Y-44692D01*
X79413Y-44858D01*
X79302Y-44692D01*
X79123Y-44572D01*
X78913Y-44530D01*
X78702Y-44572D01*
X78524Y-44692D01*
X78413Y-44858D01*
X78302Y-44692D01*
X78123Y-44572D01*
X77913Y-44530D01*
X77702Y-44572D01*
X77524Y-44692D01*
X77413Y-44858D01*
X77302Y-44692D01*
X77123Y-44572D01*
X76913Y-44530D01*
X76702Y-44572D01*
X76524Y-44692D01*
X76405Y-44870D01*
X76363Y-45080D01*
X76363Y-45714D01*
X76405Y-45924D01*
X76524Y-46103D01*
X76555Y-46123D01*
X76555Y-46629D01*
X76544Y-46636D01*
X76424Y-46814D01*
X76383Y-47025D01*
X76383Y-47454D01*
X76424Y-47665D01*
X76544Y-47843D01*
X76722Y-47962D01*
X76933Y-48004D01*
X77143Y-47962D01*
X77321Y-47843D01*
X77433Y-47677D01*
X77544Y-47843D01*
X77722Y-47962D01*
X77933Y-48004D01*
X78143Y-47962D01*
X78321Y-47843D01*
X78433Y-47677D01*
X78544Y-47843D01*
X78722Y-47962D01*
X78933Y-48004D01*
X79143Y-47962D01*
X79321Y-47843D01*
X79433Y-47677D01*
X79544Y-47843D01*
X79686Y-47939D01*
X79654Y-47961D01*
X79654Y-47961D01*
X79063Y-48551D01*
X78981Y-48674D01*
X78952Y-48818D01*
X78952Y-48818D01*
X78952Y-48926D01*
X78914Y-48942D01*
X78843Y-49012D01*
X78805Y-49104D01*
X78805Y-49204D01*
X78805Y-49554D01*
X78843Y-49646D01*
X78902Y-49704D01*
X78843Y-49762D01*
X78805Y-49854D01*
X78805Y-49954D01*
X78805Y-50304D01*
X78843Y-50396D01*
X78913Y-50466D01*
X79005Y-50504D01*
X79105Y-50504D01*
X79655Y-50504D01*
X79747Y-50466D01*
X79756Y-50457D01*
X79762Y-50457D01*
X79782Y-50487D01*
X79961Y-50606D01*
X80171Y-50648D01*
X80804Y-50648D01*
X81015Y-50606D01*
X81193Y-50487D01*
X81312Y-50308D01*
X81354Y-50098D01*
X81312Y-49887D01*
X81193Y-49709D01*
X81027Y-49598D01*
X81193Y-49487D01*
X81201Y-49476D01*
X81905Y-49476D01*
X81905Y-49476D01*
X81905Y-49476D01*
X82050Y-49447D01*
X82172Y-49365D01*
X82728Y-48809D01*
X82728Y-48809D01*
X82728Y-48809D01*
X82810Y-48686D01*
X82811Y-48681D01*
X82848Y-48645D01*
X82886Y-48553D01*
X82886Y-48453D01*
X82886Y-47995D01*
X82933Y-48004D01*
X83143Y-47962D01*
X83321Y-47843D01*
X83433Y-47677D01*
X83544Y-47843D01*
X83722Y-47962D01*
X83933Y-48004D01*
X84143Y-47962D01*
X84321Y-47843D01*
X84441Y-47665D01*
X84483Y-47454D01*
X84483Y-52317D01*
X84353Y-52370D01*
X84064Y-52658D01*
X83908Y-53035D01*
X83907Y-53443D01*
X84063Y-53820D01*
X84351Y-54108D01*
X84728Y-54264D01*
X85136Y-54265D01*
X85512Y-54109D01*
X85801Y-53821D01*
X85950Y-53462D01*
X85950Y-64019D01*
X85802Y-63660D01*
X85514Y-63371D01*
X85137Y-63215D01*
X84730Y-63214D01*
X84353Y-63370D01*
X84064Y-63658D01*
X83908Y-64035D01*
X83907Y-64443D01*
X84063Y-64820D01*
X84351Y-65108D01*
X84728Y-65264D01*
X85136Y-65265D01*
X85512Y-65109D01*
X85801Y-64821D01*
X85950Y-64462D01*
X85950Y-65242D01*
X85950Y-65242D01*
G37*
G54D26*
X85950Y-65242D02*
X84848Y-66344D01*
X84790Y-66432D01*
X84769Y-66535D01*
X84769Y-72171D01*
X84483Y-72171D01*
X84483Y-66454D01*
X84483Y-66025D01*
X84441Y-65814D01*
X84321Y-65636D01*
X84143Y-65517D01*
X83933Y-65475D01*
X83842Y-65493D01*
X83842Y-61417D01*
X83842Y-61417D01*
X83842Y-61417D01*
X83842Y-53149D01*
X83813Y-53004D01*
X83731Y-52882D01*
X83731Y-52882D01*
X83141Y-52291D01*
X83018Y-52209D01*
X82981Y-52202D01*
X82955Y-52163D01*
X82799Y-52059D01*
X82955Y-51955D01*
X83076Y-51773D01*
X83119Y-51559D01*
X83076Y-51344D01*
X82955Y-51163D01*
X82773Y-51041D01*
X82559Y-50999D01*
X82251Y-50999D01*
X82037Y-51041D01*
X81855Y-51163D01*
X81734Y-51344D01*
X81691Y-51559D01*
X81734Y-51773D01*
X81855Y-51955D01*
X82011Y-52059D01*
X81855Y-52163D01*
X81836Y-52191D01*
X81745Y-52209D01*
X81622Y-52291D01*
X81622Y-52291D01*
X80835Y-53079D01*
X80753Y-53201D01*
X80724Y-53346D01*
X80724Y-53346D01*
X80724Y-53780D01*
X79961Y-54543D01*
X79487Y-54543D01*
X78985Y-54041D01*
X79037Y-54076D01*
X79251Y-54119D01*
X79559Y-54119D01*
X79773Y-54076D01*
X79955Y-53955D01*
X80076Y-53773D01*
X80119Y-53559D01*
X80105Y-53490D01*
X80105Y-51819D01*
X80105Y-51199D01*
X80067Y-51107D01*
X79997Y-51037D01*
X79905Y-50999D01*
X79806Y-50999D01*
X79379Y-50999D01*
X78310Y-49929D01*
X78187Y-49847D01*
X78043Y-49818D01*
X78043Y-49818D01*
X75787Y-49818D01*
X75642Y-49847D01*
X75520Y-49929D01*
X75520Y-49929D01*
X75237Y-50212D01*
X73801Y-50212D01*
X73874Y-50182D01*
X73875Y-50181D01*
X74803Y-50181D01*
X74803Y-50181D01*
X74803Y-50181D01*
X74947Y-50152D01*
X75070Y-50070D01*
X75660Y-49479D01*
X75660Y-49479D01*
X75660Y-49479D01*
X75699Y-49422D01*
X75718Y-49422D01*
X75810Y-49384D01*
X75880Y-49313D01*
X75918Y-49221D01*
X75918Y-49122D01*
X75918Y-48772D01*
X75880Y-48680D01*
X75822Y-48622D01*
X75880Y-48563D01*
X75918Y-48471D01*
X75918Y-48372D01*
X75918Y-48022D01*
X75880Y-47930D01*
X75810Y-47860D01*
X75732Y-47827D01*
X75841Y-47665D01*
X75883Y-47454D01*
X75883Y-47025D01*
X75841Y-46814D01*
X75721Y-46636D01*
X75711Y-46629D01*
X75711Y-46122D01*
X75739Y-46103D01*
X75858Y-45924D01*
X75900Y-45714D01*
X75900Y-45080D01*
X75858Y-44870D01*
X75739Y-44692D01*
X75560Y-44572D01*
X75350Y-44530D01*
X75139Y-44572D01*
X74961Y-44692D01*
X74850Y-44858D01*
X74739Y-44692D01*
X74560Y-44572D01*
X74350Y-44530D01*
X74139Y-44572D01*
X73961Y-44692D01*
X73850Y-44858D01*
X73739Y-44692D01*
X73560Y-44572D01*
X73350Y-44530D01*
X73139Y-44572D01*
X72961Y-44692D01*
X72850Y-44858D01*
X72739Y-44692D01*
X72560Y-44572D01*
X72350Y-44530D01*
X72139Y-44572D01*
X71961Y-44692D01*
X71850Y-44858D01*
X71739Y-44692D01*
X71560Y-44572D01*
X71350Y-44530D01*
X71139Y-44572D01*
X70961Y-44692D01*
X70850Y-44858D01*
X70739Y-44692D01*
X70560Y-44572D01*
X70350Y-44530D01*
X70139Y-44572D01*
X69961Y-44692D01*
X69846Y-44864D01*
X69839Y-44840D01*
X69703Y-44673D01*
X69514Y-44570D01*
X69485Y-44564D01*
X69400Y-44612D01*
X69400Y-45347D01*
X69408Y-45347D01*
X69408Y-45447D01*
X69400Y-45447D01*
X69400Y-46182D01*
X69485Y-46230D01*
X69514Y-46224D01*
X69703Y-46121D01*
X69839Y-45954D01*
X69846Y-45930D01*
X69955Y-46093D01*
X69955Y-46629D01*
X69944Y-46636D01*
X69829Y-46808D01*
X69822Y-46783D01*
X69686Y-46615D01*
X69497Y-46512D01*
X69468Y-46507D01*
X69383Y-46555D01*
X69383Y-47190D01*
X69390Y-47190D01*
X69390Y-47290D01*
X69383Y-47290D01*
X69383Y-47925D01*
X69468Y-47973D01*
X69497Y-47967D01*
X69686Y-47864D01*
X69822Y-47696D01*
X69829Y-47672D01*
X69925Y-47815D01*
X69925Y-47832D01*
X69859Y-47859D01*
X69788Y-47930D01*
X69750Y-48022D01*
X69750Y-48121D01*
X69750Y-48471D01*
X69788Y-48563D01*
X69844Y-48619D01*
X69310Y-48619D01*
X69310Y-48619D01*
X69281Y-48624D01*
X69165Y-48647D01*
X69042Y-48729D01*
X69042Y-48729D01*
X67842Y-49929D01*
X67761Y-50052D01*
X67732Y-50196D01*
X67732Y-50196D01*
X67732Y-52040D01*
X67486Y-51794D01*
X67478Y-51754D01*
X67356Y-51572D01*
X67201Y-51468D01*
X67356Y-51364D01*
X67478Y-51182D01*
X67520Y-50968D01*
X67478Y-50754D01*
X67356Y-50572D01*
X67175Y-50451D01*
X66960Y-50408D01*
X66653Y-50408D01*
X66439Y-50451D01*
X66261Y-50569D01*
X65443Y-49751D01*
X65320Y-49669D01*
X65176Y-49640D01*
X65176Y-49640D01*
X64992Y-49640D01*
X64983Y-49631D01*
X64891Y-49593D01*
X64792Y-49593D01*
X64662Y-49593D01*
X64582Y-49540D01*
X64437Y-49511D01*
X64437Y-49511D01*
X64023Y-49511D01*
X64016Y-49500D01*
X63838Y-49381D01*
X63627Y-49339D01*
X62994Y-49339D01*
X62783Y-49381D01*
X62605Y-49500D01*
X62486Y-49679D01*
X62444Y-49889D01*
X62486Y-50100D01*
X62605Y-50278D01*
X62771Y-50389D01*
X62605Y-50500D01*
X62583Y-50533D01*
X62548Y-50540D01*
X62425Y-50622D01*
X62425Y-50622D01*
X61740Y-51307D01*
X61658Y-51430D01*
X61629Y-51574D01*
X61629Y-51574D01*
X61629Y-52559D01*
X61629Y-52559D01*
X61658Y-52703D01*
X61740Y-52826D01*
X61768Y-52854D01*
X61740Y-52882D01*
X61658Y-53004D01*
X61629Y-53149D01*
X61629Y-53149D01*
X61629Y-54346D01*
X61614Y-54346D01*
X61614Y-54346D01*
X61585Y-54352D01*
X61469Y-54375D01*
X61346Y-54457D01*
X61346Y-54457D01*
X60362Y-55441D01*
X60280Y-55564D01*
X60251Y-55708D01*
X60251Y-55708D01*
X60251Y-63188D01*
X60251Y-63188D01*
X60280Y-63333D01*
X60362Y-63456D01*
X60379Y-63473D01*
X60379Y-63474D01*
X60447Y-63638D01*
X60573Y-63764D01*
X60737Y-63832D01*
X60915Y-63832D01*
X61039Y-63781D01*
X61039Y-63976D01*
X61039Y-63976D01*
X61068Y-64121D01*
X61150Y-64243D01*
X61937Y-65031D01*
X61937Y-65031D01*
X62060Y-65112D01*
X62204Y-65141D01*
X62204Y-65141D01*
X62204Y-65141D01*
X65354Y-65141D01*
X65354Y-65141D01*
X65354Y-65141D01*
X65354Y-65141D01*
X72622Y-65141D01*
X72652Y-65213D01*
X72778Y-65339D01*
X72942Y-65407D01*
X73119Y-65407D01*
X73284Y-65339D01*
X73410Y-65214D01*
X73478Y-65049D01*
X73478Y-65037D01*
X73538Y-64947D01*
X73566Y-64803D01*
X73538Y-64658D01*
X73456Y-64535D01*
X73333Y-64453D01*
X73188Y-64425D01*
X73044Y-64453D01*
X73041Y-64456D01*
X72979Y-64414D01*
X72834Y-64385D01*
X72834Y-64385D01*
X70493Y-64385D01*
X70507Y-64352D01*
X70507Y-64252D01*
X70507Y-63632D01*
X70469Y-63540D01*
X70398Y-63470D01*
X70307Y-63432D01*
X70279Y-63432D01*
X70378Y-63352D01*
X70483Y-63160D01*
X70490Y-63128D01*
X70442Y-63042D01*
X69857Y-63042D01*
X69857Y-63050D01*
X69757Y-63050D01*
X69757Y-63042D01*
X69172Y-63042D01*
X69124Y-63128D01*
X69130Y-63160D01*
X69235Y-63352D01*
X69334Y-63432D01*
X69307Y-63432D01*
X69215Y-63470D01*
X69145Y-63540D01*
X69114Y-63614D01*
X69069Y-63614D01*
X68488Y-63032D01*
X68488Y-50353D01*
X69466Y-49375D01*
X69849Y-49375D01*
X69858Y-49383D01*
X69950Y-49422D01*
X70050Y-49422D01*
X70600Y-49422D01*
X70692Y-49384D01*
X70762Y-49313D01*
X70767Y-49301D01*
X70772Y-49313D01*
X70843Y-49383D01*
X70934Y-49422D01*
X70953Y-49422D01*
X70992Y-49479D01*
X71687Y-50174D01*
X71597Y-50211D01*
X71471Y-50337D01*
X71403Y-50501D01*
X71403Y-50502D01*
X70795Y-51110D01*
X70713Y-51233D01*
X70685Y-51377D01*
X70685Y-51377D01*
X70685Y-52205D01*
X70520Y-52369D01*
X70520Y-50968D01*
X70478Y-50754D01*
X70356Y-50572D01*
X70175Y-50451D01*
X69960Y-50408D01*
X69653Y-50408D01*
X69439Y-50451D01*
X69257Y-50572D01*
X69136Y-50754D01*
X69093Y-50968D01*
X69136Y-51182D01*
X69257Y-51364D01*
X69412Y-51468D01*
X69406Y-51470D01*
X69235Y-51607D01*
X69130Y-51800D01*
X69124Y-51831D01*
X69172Y-51918D01*
X69757Y-51918D01*
X69757Y-51910D01*
X69857Y-51910D01*
X69857Y-51918D01*
X70442Y-51918D01*
X70490Y-51831D01*
X70483Y-51800D01*
X70378Y-51607D01*
X70207Y-51470D01*
X70201Y-51468D01*
X70356Y-51364D01*
X70478Y-51182D01*
X70520Y-50968D01*
X70520Y-52369D01*
X70421Y-52469D01*
X70398Y-52446D01*
X70307Y-52408D01*
X70279Y-52408D01*
X70378Y-52329D01*
X70483Y-52136D01*
X70490Y-52105D01*
X70442Y-52018D01*
X69857Y-52018D01*
X69857Y-52026D01*
X69757Y-52026D01*
X69757Y-52018D01*
X69172Y-52018D01*
X69124Y-52105D01*
X69130Y-52136D01*
X69235Y-52329D01*
X69334Y-52408D01*
X69307Y-52408D01*
X69215Y-52446D01*
X69145Y-52516D01*
X69107Y-52608D01*
X69107Y-52708D01*
X69107Y-53328D01*
X69145Y-53419D01*
X69215Y-53490D01*
X69307Y-53528D01*
X69406Y-53528D01*
X70306Y-53528D01*
X70398Y-53490D01*
X70468Y-53420D01*
X70503Y-53337D01*
X70601Y-53317D01*
X70723Y-53235D01*
X71275Y-52684D01*
X71275Y-55748D01*
X70520Y-56503D01*
X70520Y-54905D01*
X70478Y-54691D01*
X70356Y-54509D01*
X70175Y-54388D01*
X69960Y-54345D01*
X69653Y-54345D01*
X69439Y-54388D01*
X69257Y-54509D01*
X69136Y-54691D01*
X69093Y-54905D01*
X69136Y-55119D01*
X69257Y-55301D01*
X69412Y-55405D01*
X69406Y-55407D01*
X69235Y-55544D01*
X69130Y-55737D01*
X69124Y-55768D01*
X69172Y-55855D01*
X69757Y-55855D01*
X69757Y-55847D01*
X69857Y-55847D01*
X69857Y-55855D01*
X70442Y-55855D01*
X70490Y-55768D01*
X70483Y-55737D01*
X70378Y-55544D01*
X70207Y-55407D01*
X70201Y-55405D01*
X70356Y-55301D01*
X70478Y-55119D01*
X70520Y-54905D01*
X70520Y-56503D01*
X70498Y-56525D01*
X70469Y-56454D01*
X70398Y-56383D01*
X70307Y-56345D01*
X70279Y-56345D01*
X70378Y-56266D01*
X70483Y-56073D01*
X70490Y-56042D01*
X70442Y-55955D01*
X69857Y-55955D01*
X69857Y-55963D01*
X69757Y-55963D01*
X69757Y-55955D01*
X69172Y-55955D01*
X69124Y-56042D01*
X69130Y-56073D01*
X69235Y-56266D01*
X69334Y-56345D01*
X69307Y-56345D01*
X69215Y-56383D01*
X69145Y-56453D01*
X69107Y-56545D01*
X69107Y-56645D01*
X69107Y-57265D01*
X69145Y-57356D01*
X69215Y-57427D01*
X69307Y-57465D01*
X69406Y-57465D01*
X70306Y-57465D01*
X70398Y-57427D01*
X70468Y-57357D01*
X70499Y-57283D01*
X70653Y-57283D01*
X70653Y-57283D01*
X70653Y-57283D01*
X70798Y-57254D01*
X70920Y-57172D01*
X71920Y-56172D01*
X71920Y-56172D01*
X71920Y-56172D01*
X72002Y-56050D01*
X72031Y-55905D01*
X72031Y-51928D01*
X72331Y-51628D01*
X72332Y-51628D01*
X72496Y-51560D01*
X72622Y-51434D01*
X72690Y-51270D01*
X72690Y-51268D01*
X72708Y-51251D01*
X72730Y-51217D01*
X72799Y-51287D01*
X72799Y-51298D01*
X72799Y-51918D01*
X72837Y-52010D01*
X72908Y-52080D01*
X73000Y-52119D01*
X73027Y-52119D01*
X72928Y-52198D01*
X72823Y-52390D01*
X72816Y-52422D01*
X72865Y-52509D01*
X73450Y-52509D01*
X73450Y-52501D01*
X73550Y-52501D01*
X73550Y-52509D01*
X74134Y-52509D01*
X74183Y-52422D01*
X74176Y-52390D01*
X74071Y-52198D01*
X73972Y-52119D01*
X73999Y-52119D01*
X74091Y-52081D01*
X74161Y-52010D01*
X74199Y-51919D01*
X74200Y-51819D01*
X74200Y-51199D01*
X74162Y-51107D01*
X74091Y-51037D01*
X73999Y-50999D01*
X73900Y-50999D01*
X73580Y-50999D01*
X73550Y-50968D01*
X75393Y-50968D01*
X75393Y-50968D01*
X75393Y-50968D01*
X75538Y-50939D01*
X75660Y-50857D01*
X75943Y-50574D01*
X77886Y-50574D01*
X78705Y-51393D01*
X78705Y-51918D01*
X78743Y-52010D01*
X78813Y-52080D01*
X78905Y-52119D01*
X78932Y-52119D01*
X78834Y-52198D01*
X78729Y-52390D01*
X78722Y-52422D01*
X78770Y-52509D01*
X79355Y-52509D01*
X79355Y-52501D01*
X79455Y-52501D01*
X79455Y-52509D01*
X80040Y-52509D01*
X80088Y-52422D01*
X80082Y-52390D01*
X79976Y-52198D01*
X79878Y-52119D01*
X79905Y-52119D01*
X79996Y-52081D01*
X80067Y-52010D01*
X80105Y-51919D01*
X80105Y-51819D01*
X80105Y-53490D01*
X80076Y-53344D01*
X79955Y-53163D01*
X79799Y-53059D01*
X79806Y-53057D01*
X79976Y-52919D01*
X80082Y-52727D01*
X80088Y-52695D01*
X80040Y-52609D01*
X79455Y-52609D01*
X79455Y-52616D01*
X79355Y-52616D01*
X79355Y-52609D01*
X78770Y-52609D01*
X78722Y-52695D01*
X78729Y-52727D01*
X78834Y-52919D01*
X79005Y-53057D01*
X79011Y-53059D01*
X78855Y-53163D01*
X78734Y-53344D01*
X78691Y-53559D01*
X78734Y-53773D01*
X78768Y-53824D01*
X77235Y-52291D01*
X77113Y-52209D01*
X77076Y-52202D01*
X77049Y-52163D01*
X76894Y-52059D01*
X77049Y-51955D01*
X77171Y-51773D01*
X77213Y-51559D01*
X77171Y-51344D01*
X77049Y-51163D01*
X76868Y-51041D01*
X76653Y-50999D01*
X76346Y-50999D01*
X76131Y-51041D01*
X75950Y-51163D01*
X75828Y-51344D01*
X75786Y-51559D01*
X75828Y-51773D01*
X75950Y-51955D01*
X76105Y-52059D01*
X75950Y-52163D01*
X75828Y-52344D01*
X75786Y-52559D01*
X75828Y-52773D01*
X75950Y-52955D01*
X76105Y-53059D01*
X75950Y-53163D01*
X75828Y-53344D01*
X75786Y-53559D01*
X75828Y-53773D01*
X75950Y-53955D01*
X76122Y-54069D01*
X76122Y-54195D01*
X76087Y-54229D01*
X76049Y-54321D01*
X76049Y-54420D01*
X76049Y-54770D01*
X76087Y-54862D01*
X76146Y-54921D01*
X76087Y-54979D01*
X76049Y-55071D01*
X76049Y-55170D01*
X76049Y-55520D01*
X76087Y-55612D01*
X76158Y-55683D01*
X76196Y-55699D01*
X76196Y-55748D01*
X74836Y-57109D01*
X74836Y-55856D01*
X74807Y-55711D01*
X74725Y-55589D01*
X74725Y-55589D01*
X73379Y-54243D01*
X73379Y-54242D01*
X73327Y-54115D01*
X73346Y-54119D01*
X73653Y-54119D01*
X73868Y-54076D01*
X74049Y-53955D01*
X74171Y-53773D01*
X74213Y-53559D01*
X74171Y-53344D01*
X74049Y-53163D01*
X73894Y-53059D01*
X73900Y-53057D01*
X74071Y-52919D01*
X74176Y-52727D01*
X74183Y-52695D01*
X74134Y-52609D01*
X73550Y-52609D01*
X73550Y-52616D01*
X73450Y-52616D01*
X73450Y-52609D01*
X72865Y-52609D01*
X72816Y-52695D01*
X72823Y-52727D01*
X72928Y-52919D01*
X73099Y-53057D01*
X73105Y-53059D01*
X72950Y-53163D01*
X72828Y-53344D01*
X72786Y-53559D01*
X72828Y-53773D01*
X72850Y-53806D01*
X72795Y-53795D01*
X72650Y-53824D01*
X72528Y-53905D01*
X72446Y-54028D01*
X72417Y-54173D01*
X72446Y-54317D01*
X72486Y-54377D01*
X72486Y-54419D01*
X72554Y-54583D01*
X72679Y-54709D01*
X72843Y-54777D01*
X72845Y-54777D01*
X74080Y-56012D01*
X74080Y-57865D01*
X73791Y-58154D01*
X73709Y-58276D01*
X73692Y-58363D01*
X73663Y-58383D01*
X73541Y-58565D01*
X73499Y-58779D01*
X73499Y-59086D01*
X73541Y-59301D01*
X73663Y-59482D01*
X73681Y-59494D01*
X73681Y-59885D01*
X73681Y-59885D01*
X73709Y-60030D01*
X73791Y-60153D01*
X73914Y-60235D01*
X74059Y-60263D01*
X74059Y-60263D01*
X74203Y-60235D01*
X74225Y-60220D01*
X81692Y-60220D01*
X81692Y-60220D01*
X81692Y-60220D01*
X81837Y-60191D01*
X81960Y-60109D01*
X82747Y-59322D01*
X82747Y-59322D01*
X82747Y-59322D01*
X82829Y-59199D01*
X82858Y-59055D01*
X82858Y-59055D01*
X82858Y-59055D01*
X82858Y-55699D01*
X82896Y-55683D01*
X82967Y-55613D01*
X83005Y-55521D01*
X83005Y-55421D01*
X83005Y-55071D01*
X82967Y-54979D01*
X82908Y-54921D01*
X82967Y-54863D01*
X83005Y-54771D01*
X83005Y-54671D01*
X83005Y-54321D01*
X82967Y-54229D01*
X82897Y-54159D01*
X82805Y-54121D01*
X82783Y-54121D01*
X82783Y-54069D01*
X82955Y-53955D01*
X83076Y-53773D01*
X83086Y-53723D01*
X83086Y-61260D01*
X81619Y-62728D01*
X81619Y-62086D01*
X81619Y-61779D01*
X81576Y-61565D01*
X81455Y-61383D01*
X81273Y-61261D01*
X81059Y-61219D01*
X80844Y-61261D01*
X80663Y-61383D01*
X80559Y-61539D01*
X80455Y-61383D01*
X80437Y-61371D01*
X80437Y-61358D01*
X80408Y-61213D01*
X80326Y-61091D01*
X80326Y-61091D01*
X79991Y-60756D01*
X79869Y-60674D01*
X79724Y-60645D01*
X79724Y-60645D01*
X76574Y-60645D01*
X72400Y-60645D01*
X70739Y-58984D01*
X70617Y-58902D01*
X70472Y-58874D01*
X70472Y-58874D01*
X69742Y-58874D01*
X69741Y-58873D01*
X69705Y-58858D01*
X69740Y-58843D01*
X69773Y-58811D01*
X69783Y-58811D01*
X71576Y-58811D01*
X71706Y-58941D01*
X71927Y-59032D01*
X72166Y-59033D01*
X72386Y-58942D01*
X72555Y-58773D01*
X72647Y-58552D01*
X72647Y-58314D01*
X72556Y-58093D01*
X72387Y-57924D01*
X72167Y-57833D01*
X71928Y-57832D01*
X71707Y-57924D01*
X71576Y-58055D01*
X69783Y-58055D01*
X69667Y-58055D01*
X69577Y-58017D01*
X69399Y-58017D01*
X69235Y-58085D01*
X69229Y-58091D01*
X69107Y-58115D01*
X68984Y-58197D01*
X68902Y-58319D01*
X68874Y-58464D01*
X68902Y-58609D01*
X68984Y-58731D01*
X69107Y-58813D01*
X69229Y-58838D01*
X69234Y-58843D01*
X69270Y-58858D01*
X69235Y-58872D01*
X69229Y-58878D01*
X69107Y-58902D01*
X68984Y-58984D01*
X68902Y-59107D01*
X68874Y-59251D01*
X68902Y-59396D01*
X68984Y-59519D01*
X69107Y-59601D01*
X69229Y-59625D01*
X69234Y-59630D01*
X69270Y-59645D01*
X69235Y-59660D01*
X69229Y-59665D01*
X69107Y-59690D01*
X68984Y-59772D01*
X68902Y-59894D01*
X68874Y-60039D01*
X68902Y-60184D01*
X68984Y-60306D01*
X69026Y-60334D01*
X68984Y-60362D01*
X68902Y-60485D01*
X68874Y-60629D01*
X68902Y-60774D01*
X68984Y-60897D01*
X69107Y-60979D01*
X69229Y-61003D01*
X69234Y-61008D01*
X69398Y-61076D01*
X69400Y-61076D01*
X69755Y-61432D01*
X69653Y-61432D01*
X69439Y-61474D01*
X69257Y-61596D01*
X69136Y-61777D01*
X69093Y-61992D01*
X69136Y-62206D01*
X69257Y-62388D01*
X69412Y-62492D01*
X69406Y-62493D01*
X69235Y-62631D01*
X69130Y-62824D01*
X69124Y-62855D01*
X69172Y-62942D01*
X69757Y-62942D01*
X69757Y-62934D01*
X69857Y-62934D01*
X69857Y-62942D01*
X70442Y-62942D01*
X70490Y-62855D01*
X70483Y-62824D01*
X70378Y-62631D01*
X70207Y-62493D01*
X70201Y-62492D01*
X70356Y-62388D01*
X70478Y-62206D01*
X70486Y-62163D01*
X70685Y-62361D01*
X70685Y-62992D01*
X70685Y-62992D01*
X70713Y-63136D01*
X70795Y-63259D01*
X71189Y-63653D01*
X71189Y-63653D01*
X71312Y-63735D01*
X71456Y-63763D01*
X80314Y-63763D01*
X80314Y-63763D01*
X80314Y-63763D01*
X80459Y-63735D01*
X80582Y-63653D01*
X81326Y-62908D01*
X81326Y-62908D01*
X81326Y-62908D01*
X81408Y-62786D01*
X81437Y-62641D01*
X81437Y-62494D01*
X81455Y-62482D01*
X81576Y-62301D01*
X81619Y-62086D01*
X81619Y-62728D01*
X80552Y-63795D01*
X75590Y-63795D01*
X75445Y-63824D01*
X75323Y-63905D01*
X75323Y-63905D01*
X74912Y-64316D01*
X74911Y-64316D01*
X74747Y-64384D01*
X74741Y-64390D01*
X74619Y-64414D01*
X74496Y-64496D01*
X74414Y-64619D01*
X74385Y-64763D01*
X74414Y-64908D01*
X74496Y-65031D01*
X74619Y-65112D01*
X74741Y-65137D01*
X74746Y-65142D01*
X74910Y-65210D01*
X75088Y-65210D01*
X75252Y-65142D01*
X75378Y-65017D01*
X75446Y-64853D01*
X75446Y-64851D01*
X75747Y-64551D01*
X80708Y-64551D01*
X80708Y-64551D01*
X80708Y-64551D01*
X80853Y-64522D01*
X80975Y-64440D01*
X83731Y-61684D01*
X83731Y-61684D01*
X83731Y-61684D01*
X83813Y-61561D01*
X83813Y-61561D01*
X83836Y-61446D01*
X83842Y-61417D01*
X83842Y-65493D01*
X83722Y-65517D01*
X83544Y-65636D01*
X83433Y-65802D01*
X83321Y-65636D01*
X83143Y-65517D01*
X82933Y-65475D01*
X82722Y-65517D01*
X82544Y-65636D01*
X82433Y-65802D01*
X82321Y-65636D01*
X82143Y-65517D01*
X81933Y-65475D01*
X81722Y-65517D01*
X81544Y-65636D01*
X81433Y-65802D01*
X81321Y-65636D01*
X81143Y-65517D01*
X80933Y-65475D01*
X80722Y-65517D01*
X80544Y-65636D01*
X80433Y-65802D01*
X80321Y-65636D01*
X80143Y-65517D01*
X79933Y-65475D01*
X79722Y-65517D01*
X79544Y-65636D01*
X79433Y-65802D01*
X79321Y-65636D01*
X79143Y-65517D01*
X78933Y-65475D01*
X78722Y-65517D01*
X78544Y-65636D01*
X78424Y-65814D01*
X78383Y-66025D01*
X78383Y-66454D01*
X78424Y-66665D01*
X78519Y-66807D01*
X78519Y-67373D01*
X78508Y-67381D01*
X78389Y-67559D01*
X78347Y-67769D01*
X78347Y-68403D01*
X78389Y-68613D01*
X78508Y-68792D01*
X78687Y-68911D01*
X78897Y-68953D01*
X79108Y-68911D01*
X79286Y-68792D01*
X79397Y-68625D01*
X79508Y-68792D01*
X79687Y-68911D01*
X79897Y-68953D01*
X80108Y-68911D01*
X80286Y-68792D01*
X80397Y-68625D01*
X80508Y-68792D01*
X80687Y-68911D01*
X80897Y-68953D01*
X81108Y-68911D01*
X81286Y-68792D01*
X81397Y-68625D01*
X81508Y-68792D01*
X81687Y-68911D01*
X81897Y-68953D01*
X82108Y-68911D01*
X82286Y-68792D01*
X82397Y-68625D01*
X82508Y-68792D01*
X82687Y-68911D01*
X82897Y-68953D01*
X83108Y-68911D01*
X83286Y-68792D01*
X83397Y-68625D01*
X83508Y-68792D01*
X83687Y-68911D01*
X83897Y-68953D01*
X84108Y-68911D01*
X84286Y-68792D01*
X84405Y-68613D01*
X84447Y-68403D01*
X84447Y-67769D01*
X84405Y-67559D01*
X84286Y-67381D01*
X84275Y-67373D01*
X84275Y-66874D01*
X84321Y-66843D01*
X84441Y-66665D01*
X84483Y-66454D01*
X84483Y-72171D01*
X77483Y-72171D01*
X77483Y-66454D01*
X77483Y-66025D01*
X77441Y-65814D01*
X77321Y-65636D01*
X77143Y-65517D01*
X76933Y-65475D01*
X76722Y-65517D01*
X76544Y-65636D01*
X76429Y-65808D01*
X76422Y-65783D01*
X76286Y-65615D01*
X76097Y-65512D01*
X76068Y-65507D01*
X75983Y-65555D01*
X75983Y-66190D01*
X75990Y-66190D01*
X75990Y-66290D01*
X75983Y-66290D01*
X75983Y-66925D01*
X76068Y-66973D01*
X76097Y-66967D01*
X76286Y-66864D01*
X76422Y-66696D01*
X76429Y-66672D01*
X76531Y-66824D01*
X76531Y-67472D01*
X76520Y-67479D01*
X76405Y-67651D01*
X76398Y-67628D01*
X76263Y-67460D01*
X76073Y-67357D01*
X76044Y-67351D01*
X75959Y-67400D01*
X75959Y-68135D01*
X75967Y-68135D01*
X75967Y-68235D01*
X75959Y-68235D01*
X75959Y-68969D01*
X76044Y-69018D01*
X76073Y-69012D01*
X76263Y-68909D01*
X76398Y-68741D01*
X76405Y-68718D01*
X76520Y-68890D01*
X76698Y-69009D01*
X76909Y-69051D01*
X77119Y-69009D01*
X77298Y-68890D01*
X77417Y-68712D01*
X77459Y-68501D01*
X77459Y-67868D01*
X77417Y-67657D01*
X77298Y-67479D01*
X77287Y-67472D01*
X77287Y-66866D01*
X77321Y-66843D01*
X77441Y-66665D01*
X77483Y-66454D01*
X77483Y-72171D01*
X75883Y-72171D01*
X75883Y-66925D01*
X75883Y-66290D01*
X75883Y-66190D01*
X75883Y-65555D01*
X75798Y-65507D01*
X75768Y-65512D01*
X75579Y-65615D01*
X75444Y-65783D01*
X75433Y-65820D01*
X75422Y-65783D01*
X75286Y-65615D01*
X75097Y-65512D01*
X75068Y-65507D01*
X74983Y-65555D01*
X74983Y-66190D01*
X75383Y-66190D01*
X75483Y-66190D01*
X75883Y-66190D01*
X75883Y-66290D01*
X75483Y-66290D01*
X75383Y-66290D01*
X74983Y-66290D01*
X74983Y-66925D01*
X75068Y-66973D01*
X75097Y-66967D01*
X75286Y-66864D01*
X75422Y-66696D01*
X75433Y-66659D01*
X75444Y-66696D01*
X75579Y-66864D01*
X75768Y-66967D01*
X75798Y-66973D01*
X75883Y-66925D01*
X75883Y-72171D01*
X75859Y-72171D01*
X75859Y-68969D01*
X75859Y-68235D01*
X75859Y-68135D01*
X75859Y-67400D01*
X75774Y-67351D01*
X75745Y-67357D01*
X75555Y-67460D01*
X75420Y-67628D01*
X75409Y-67665D01*
X75398Y-67628D01*
X75263Y-67460D01*
X75073Y-67357D01*
X75044Y-67351D01*
X74959Y-67400D01*
X74959Y-68135D01*
X75359Y-68135D01*
X75459Y-68135D01*
X75859Y-68135D01*
X75859Y-68235D01*
X75459Y-68235D01*
X75359Y-68235D01*
X74959Y-68235D01*
X74959Y-68969D01*
X75044Y-69018D01*
X75073Y-69012D01*
X75263Y-68909D01*
X75398Y-68741D01*
X75409Y-68704D01*
X75420Y-68741D01*
X75555Y-68909D01*
X75745Y-69012D01*
X75774Y-69018D01*
X75859Y-68969D01*
X75859Y-72171D01*
X74883Y-72171D01*
X74883Y-66925D01*
X74883Y-66290D01*
X74875Y-66290D01*
X74875Y-66190D01*
X74883Y-66190D01*
X74883Y-65555D01*
X74798Y-65507D01*
X74768Y-65512D01*
X74579Y-65615D01*
X74444Y-65783D01*
X74436Y-65808D01*
X74321Y-65636D01*
X74143Y-65517D01*
X73933Y-65475D01*
X73722Y-65517D01*
X73544Y-65636D01*
X73433Y-65802D01*
X73321Y-65636D01*
X73143Y-65517D01*
X72933Y-65475D01*
X72722Y-65517D01*
X72544Y-65636D01*
X72433Y-65802D01*
X72321Y-65636D01*
X72143Y-65517D01*
X71933Y-65475D01*
X71722Y-65517D01*
X71544Y-65636D01*
X71483Y-65727D01*
X71480Y-65713D01*
X71361Y-65534D01*
X71182Y-65415D01*
X70972Y-65373D01*
X70761Y-65415D01*
X70583Y-65534D01*
X70472Y-65700D01*
X70361Y-65534D01*
X70182Y-65415D01*
X69972Y-65373D01*
X69761Y-65415D01*
X69583Y-65534D01*
X69464Y-65713D01*
X69422Y-65923D01*
X69422Y-66556D01*
X69464Y-66767D01*
X69583Y-66945D01*
X69594Y-66953D01*
X69594Y-67495D01*
X69583Y-67503D01*
X69464Y-67681D01*
X69422Y-67892D01*
X69422Y-68525D01*
X69464Y-68735D01*
X69583Y-68914D01*
X69761Y-69033D01*
X69972Y-69075D01*
X70182Y-69033D01*
X70361Y-68914D01*
X70472Y-68747D01*
X70583Y-68914D01*
X70761Y-69033D01*
X70972Y-69075D01*
X71182Y-69033D01*
X71361Y-68914D01*
X71448Y-68783D01*
X71520Y-68890D01*
X71698Y-69009D01*
X71909Y-69051D01*
X72119Y-69009D01*
X72298Y-68890D01*
X72409Y-68724D01*
X72520Y-68890D01*
X72698Y-69009D01*
X72909Y-69051D01*
X73119Y-69009D01*
X73298Y-68890D01*
X73409Y-68724D01*
X73520Y-68890D01*
X73698Y-69009D01*
X73909Y-69051D01*
X74119Y-69009D01*
X74298Y-68890D01*
X74413Y-68718D01*
X74420Y-68741D01*
X74555Y-68909D01*
X74745Y-69012D01*
X74774Y-69018D01*
X74859Y-68969D01*
X74859Y-68235D01*
X74851Y-68235D01*
X74851Y-68135D01*
X74859Y-68135D01*
X74859Y-67400D01*
X74774Y-67351D01*
X74745Y-67357D01*
X74555Y-67460D01*
X74420Y-67628D01*
X74413Y-67651D01*
X74298Y-67479D01*
X74287Y-67472D01*
X74287Y-66866D01*
X74321Y-66843D01*
X74436Y-66672D01*
X74444Y-66696D01*
X74579Y-66864D01*
X74768Y-66967D01*
X74798Y-66973D01*
X74883Y-66925D01*
X74883Y-72171D01*
X69167Y-72171D01*
X69167Y-67716D01*
X69146Y-67613D01*
X69088Y-67525D01*
X69000Y-67467D01*
X68897Y-67446D01*
X65458Y-67446D01*
X65458Y-66037D01*
X65302Y-65660D01*
X65014Y-65371D01*
X64637Y-65215D01*
X64230Y-65214D01*
X63853Y-65370D01*
X63564Y-65658D01*
X63408Y-66035D01*
X63407Y-66443D01*
X63563Y-66820D01*
X63851Y-67108D01*
X64228Y-67264D01*
X64636Y-67265D01*
X65012Y-67109D01*
X65301Y-66821D01*
X65457Y-66444D01*
X65458Y-66037D01*
X65458Y-67446D01*
X59324Y-67446D01*
X59324Y-46332D01*
X64445Y-46332D01*
X64353Y-46370D01*
X64064Y-46658D01*
X63908Y-47035D01*
X63907Y-47443D01*
X64063Y-47820D01*
X64351Y-48108D01*
X64728Y-48264D01*
X65136Y-48265D01*
X65512Y-48109D01*
X65801Y-47821D01*
X65889Y-47610D01*
X65921Y-47771D01*
X66040Y-47949D01*
X66218Y-48068D01*
X66429Y-48110D01*
X66639Y-48068D01*
X66818Y-47949D01*
X66929Y-47783D01*
X67040Y-47949D01*
X67218Y-48068D01*
X67429Y-48110D01*
X67639Y-48068D01*
X67818Y-47949D01*
X67916Y-47802D01*
X67944Y-47843D01*
X68122Y-47962D01*
X68333Y-48004D01*
X68543Y-47962D01*
X68721Y-47843D01*
X68836Y-47672D01*
X68844Y-47696D01*
X68979Y-47864D01*
X69168Y-47967D01*
X69198Y-47973D01*
X69283Y-47925D01*
X69283Y-47290D01*
X69275Y-47290D01*
X69275Y-47190D01*
X69283Y-47190D01*
X69283Y-46555D01*
X69198Y-46507D01*
X69168Y-46512D01*
X68979Y-46615D01*
X68844Y-46783D01*
X68836Y-46808D01*
X68721Y-46636D01*
X68711Y-46629D01*
X68711Y-46122D01*
X68739Y-46103D01*
X68854Y-45930D01*
X68861Y-45954D01*
X68996Y-46121D01*
X69186Y-46224D01*
X69215Y-46230D01*
X69300Y-46182D01*
X69300Y-45447D01*
X69292Y-45447D01*
X69292Y-45347D01*
X69300Y-45347D01*
X69300Y-44612D01*
X69215Y-44564D01*
X69186Y-44570D01*
X68996Y-44673D01*
X68861Y-44840D01*
X68854Y-44864D01*
X68739Y-44692D01*
X68560Y-44572D01*
X68350Y-44530D01*
X68139Y-44572D01*
X67961Y-44692D01*
X67897Y-44787D01*
X67818Y-44668D01*
X67639Y-44549D01*
X67429Y-44507D01*
X67218Y-44549D01*
X67040Y-44668D01*
X66929Y-44834D01*
X66818Y-44668D01*
X66639Y-44549D01*
X66429Y-44507D01*
X66218Y-44549D01*
X66040Y-44668D01*
X65921Y-44846D01*
X65879Y-45057D01*
X65879Y-45690D01*
X65921Y-45901D01*
X66040Y-46079D01*
X66051Y-46086D01*
X66051Y-46531D01*
X66040Y-46538D01*
X65921Y-46716D01*
X65890Y-46872D01*
X65802Y-46660D01*
X65514Y-46371D01*
X65399Y-46323D01*
X65457Y-46312D01*
X65545Y-46253D01*
X65603Y-46166D01*
X65624Y-46062D01*
X65624Y-41214D01*
X84769Y-41214D01*
X84769Y-51181D01*
X84790Y-51284D01*
X84848Y-51371D01*
X85950Y-52473D01*
X85950Y-53019D01*
X85802Y-52660D01*
X85514Y-52371D01*
X85137Y-52215D01*
X84730Y-52214D01*
X84483Y-52317D01*
X84483Y-47454D01*
X84483Y-47025D01*
X84441Y-46814D01*
X84321Y-46636D01*
X84311Y-46629D01*
X84311Y-46090D01*
X84421Y-45924D01*
X84463Y-45714D01*
X84463Y-45080D01*
X84421Y-44870D01*
X84302Y-44692D01*
X84123Y-44572D01*
X83913Y-44530D01*
X83702Y-44572D01*
X83524Y-44692D01*
X83413Y-44858D01*
X83302Y-44692D01*
X83123Y-44572D01*
X82913Y-44530D01*
X82702Y-44572D01*
X82524Y-44692D01*
X82413Y-44858D01*
X82302Y-44692D01*
X82123Y-44572D01*
X81913Y-44530D01*
X81702Y-44572D01*
X81524Y-44692D01*
X81413Y-44858D01*
X81302Y-44692D01*
X81123Y-44572D01*
X80913Y-44530D01*
X80702Y-44572D01*
X80524Y-44692D01*
X80413Y-44858D01*
X80302Y-44692D01*
X80123Y-44572D01*
X79913Y-44530D01*
X79702Y-44572D01*
X79524Y-44692D01*
X79413Y-44858D01*
X79302Y-44692D01*
X79123Y-44572D01*
X78913Y-44530D01*
X78702Y-44572D01*
X78524Y-44692D01*
X78413Y-44858D01*
X78302Y-44692D01*
X78123Y-44572D01*
X77913Y-44530D01*
X77702Y-44572D01*
X77524Y-44692D01*
X77413Y-44858D01*
X77302Y-44692D01*
X77123Y-44572D01*
X76913Y-44530D01*
X76702Y-44572D01*
X76524Y-44692D01*
X76405Y-44870D01*
X76363Y-45080D01*
X76363Y-45714D01*
X76405Y-45924D01*
X76524Y-46103D01*
X76555Y-46123D01*
X76555Y-46629D01*
X76544Y-46636D01*
X76424Y-46814D01*
X76383Y-47025D01*
X76383Y-47454D01*
X76424Y-47665D01*
X76544Y-47843D01*
X76722Y-47962D01*
X76933Y-48004D01*
X77143Y-47962D01*
X77321Y-47843D01*
X77433Y-47677D01*
X77544Y-47843D01*
X77722Y-47962D01*
X77933Y-48004D01*
X78143Y-47962D01*
X78321Y-47843D01*
X78433Y-47677D01*
X78544Y-47843D01*
X78722Y-47962D01*
X78933Y-48004D01*
X79143Y-47962D01*
X79321Y-47843D01*
X79433Y-47677D01*
X79544Y-47843D01*
X79686Y-47939D01*
X79654Y-47961D01*
X79654Y-47961D01*
X79063Y-48551D01*
X78981Y-48674D01*
X78952Y-48818D01*
X78952Y-48818D01*
X78952Y-48926D01*
X78914Y-48942D01*
X78843Y-49012D01*
X78805Y-49104D01*
X78805Y-49204D01*
X78805Y-49554D01*
X78843Y-49646D01*
X78902Y-49704D01*
X78843Y-49762D01*
X78805Y-49854D01*
X78805Y-49954D01*
X78805Y-50304D01*
X78843Y-50396D01*
X78913Y-50466D01*
X79005Y-50504D01*
X79105Y-50504D01*
X79655Y-50504D01*
X79747Y-50466D01*
X79756Y-50457D01*
X79762Y-50457D01*
X79782Y-50487D01*
X79961Y-50606D01*
X80171Y-50648D01*
X80804Y-50648D01*
X81015Y-50606D01*
X81193Y-50487D01*
X81312Y-50308D01*
X81354Y-50098D01*
X81312Y-49887D01*
X81193Y-49709D01*
X81027Y-49598D01*
X81193Y-49487D01*
X81201Y-49476D01*
X81905Y-49476D01*
X81905Y-49476D01*
X81905Y-49476D01*
X82050Y-49447D01*
X82172Y-49365D01*
X82728Y-48809D01*
X82728Y-48809D01*
X82728Y-48809D01*
X82810Y-48686D01*
X82811Y-48681D01*
X82848Y-48645D01*
X82886Y-48553D01*
X82886Y-48453D01*
X82886Y-47995D01*
X82933Y-48004D01*
X83143Y-47962D01*
X83321Y-47843D01*
X83433Y-47677D01*
X83544Y-47843D01*
X83722Y-47962D01*
X83933Y-48004D01*
X84143Y-47962D01*
X84321Y-47843D01*
X84441Y-47665D01*
X84483Y-47454D01*
X84483Y-52317D01*
X84353Y-52370D01*
X84064Y-52658D01*
X83908Y-53035D01*
X83907Y-53443D01*
X84063Y-53820D01*
X84351Y-54108D01*
X84728Y-54264D01*
X85136Y-54265D01*
X85512Y-54109D01*
X85801Y-53821D01*
X85950Y-53462D01*
X85950Y-64019D01*
X85802Y-63660D01*
X85514Y-63371D01*
X85137Y-63215D01*
X84730Y-63214D01*
X84353Y-63370D01*
X84064Y-63658D01*
X83908Y-64035D01*
X83907Y-64443D01*
X84063Y-64820D01*
X84351Y-65108D01*
X84728Y-65264D01*
X85136Y-65265D01*
X85512Y-65109D01*
X85801Y-64821D01*
X85950Y-64462D01*
X85950Y-65242D01*
M02*
