G04 (created by PCBNEW (2013-07-07 BZR 4022)-stable) date 19-01-2019 19:24:24*
%MOIN*%
G04 Gerber Fmt 3.4, Leading zero omitted, Abs format*
%FSLAX34Y34*%
G01*
G70*
G90*
G04 APERTURE LIST*
%ADD10C,0.00590551*%
%ADD11C,0.0026*%
%ADD12C,0.006*%
%ADD13C,0.03*%
%ADD14C,0.015*%
%ADD15C,0.012*%
%ADD16C,0.01125*%
%ADD17C,0.008*%
G04 APERTURE END LIST*
G54D10*
G54D11*
X61561Y-64039D02*
X61561Y-63739D01*
X61561Y-63739D02*
X61361Y-63739D01*
X61361Y-64039D02*
X61361Y-63739D01*
X61561Y-64039D02*
X61361Y-64039D01*
X61561Y-63039D02*
X61561Y-62739D01*
X61561Y-62739D02*
X61361Y-62739D01*
X61361Y-63039D02*
X61361Y-62739D01*
X61561Y-63039D02*
X61361Y-63039D01*
X61561Y-62039D02*
X61561Y-61739D01*
X61561Y-61739D02*
X61361Y-61739D01*
X61361Y-62039D02*
X61361Y-61739D01*
X61561Y-62039D02*
X61361Y-62039D01*
X61561Y-61039D02*
X61561Y-60739D01*
X61561Y-60739D02*
X61361Y-60739D01*
X61361Y-61039D02*
X61361Y-60739D01*
X61561Y-61039D02*
X61361Y-61039D01*
X61561Y-60039D02*
X61561Y-59738D01*
X61561Y-59738D02*
X61361Y-59738D01*
X61361Y-60039D02*
X61361Y-59738D01*
X61561Y-60039D02*
X61361Y-60039D01*
X61561Y-59039D02*
X61561Y-58739D01*
X61561Y-58739D02*
X61361Y-58739D01*
X61361Y-59039D02*
X61361Y-58739D01*
X61561Y-59039D02*
X61361Y-59039D01*
X61561Y-58039D02*
X61561Y-57739D01*
X61561Y-57739D02*
X61361Y-57739D01*
X61361Y-58039D02*
X61361Y-57739D01*
X61561Y-58039D02*
X61361Y-58039D01*
X61561Y-57039D02*
X61561Y-56739D01*
X61561Y-56739D02*
X61361Y-56739D01*
X61361Y-57039D02*
X61361Y-56739D01*
X61561Y-57039D02*
X61361Y-57039D01*
X61561Y-56039D02*
X61561Y-55739D01*
X61561Y-55739D02*
X61361Y-55739D01*
X61361Y-56039D02*
X61361Y-55739D01*
X61561Y-56039D02*
X61361Y-56039D01*
X61561Y-55039D02*
X61561Y-54739D01*
X61561Y-54739D02*
X61361Y-54739D01*
X61361Y-55039D02*
X61361Y-54739D01*
X61561Y-55039D02*
X61361Y-55039D01*
X61561Y-54040D02*
X61561Y-53739D01*
X61561Y-53739D02*
X61361Y-53739D01*
X61361Y-54040D02*
X61361Y-53739D01*
X61561Y-54040D02*
X61361Y-54040D01*
X61561Y-53039D02*
X61561Y-52739D01*
X61561Y-52739D02*
X61361Y-52739D01*
X61361Y-53039D02*
X61361Y-52739D01*
X61561Y-53039D02*
X61361Y-53039D01*
X61561Y-52039D02*
X61561Y-51739D01*
X61561Y-51739D02*
X61361Y-51739D01*
X61361Y-52039D02*
X61361Y-51739D01*
X61561Y-52039D02*
X61361Y-52039D01*
X61561Y-51039D02*
X61561Y-50739D01*
X61561Y-50739D02*
X61361Y-50739D01*
X61361Y-51039D02*
X61361Y-50739D01*
X61561Y-51039D02*
X61361Y-51039D01*
X61561Y-50039D02*
X61561Y-49739D01*
X61561Y-49739D02*
X61361Y-49739D01*
X61361Y-50039D02*
X61361Y-49739D01*
X61561Y-50039D02*
X61361Y-50039D01*
X62961Y-64039D02*
X62961Y-63739D01*
X62961Y-63739D02*
X62561Y-63739D01*
X62561Y-64039D02*
X62561Y-63739D01*
X62961Y-64039D02*
X62561Y-64039D01*
X62961Y-63039D02*
X62961Y-62739D01*
X62961Y-62739D02*
X62561Y-62739D01*
X62561Y-63039D02*
X62561Y-62739D01*
X62961Y-63039D02*
X62561Y-63039D01*
X62961Y-62039D02*
X62961Y-61739D01*
X62961Y-61739D02*
X62561Y-61739D01*
X62561Y-62039D02*
X62561Y-61739D01*
X62961Y-62039D02*
X62561Y-62039D01*
X62961Y-61039D02*
X62961Y-60739D01*
X62961Y-60739D02*
X62561Y-60739D01*
X62561Y-61039D02*
X62561Y-60739D01*
X62961Y-61039D02*
X62561Y-61039D01*
X62961Y-60039D02*
X62961Y-59738D01*
X62961Y-59738D02*
X62561Y-59738D01*
X62561Y-60039D02*
X62561Y-59738D01*
X62961Y-60039D02*
X62561Y-60039D01*
X62961Y-59039D02*
X62961Y-58739D01*
X62961Y-58739D02*
X62561Y-58739D01*
X62561Y-59039D02*
X62561Y-58739D01*
X62961Y-59039D02*
X62561Y-59039D01*
X62961Y-58039D02*
X62961Y-57739D01*
X62961Y-57739D02*
X62561Y-57739D01*
X62561Y-58039D02*
X62561Y-57739D01*
X62961Y-58039D02*
X62561Y-58039D01*
X62961Y-57039D02*
X62961Y-56739D01*
X62961Y-56739D02*
X62561Y-56739D01*
X62561Y-57039D02*
X62561Y-56739D01*
X62961Y-57039D02*
X62561Y-57039D01*
X62961Y-56039D02*
X62961Y-55739D01*
X62961Y-55739D02*
X62561Y-55739D01*
X62561Y-56039D02*
X62561Y-55739D01*
X62961Y-56039D02*
X62561Y-56039D01*
X62961Y-55039D02*
X62961Y-54739D01*
X62961Y-54739D02*
X62561Y-54739D01*
X62561Y-55039D02*
X62561Y-54739D01*
X62961Y-55039D02*
X62561Y-55039D01*
X62961Y-54040D02*
X62961Y-53739D01*
X62961Y-53739D02*
X62561Y-53739D01*
X62561Y-54040D02*
X62561Y-53739D01*
X62961Y-54040D02*
X62561Y-54040D01*
X62961Y-53039D02*
X62961Y-52739D01*
X62961Y-52739D02*
X62561Y-52739D01*
X62561Y-53039D02*
X62561Y-52739D01*
X62961Y-53039D02*
X62561Y-53039D01*
X62961Y-52039D02*
X62961Y-51739D01*
X62961Y-51739D02*
X62561Y-51739D01*
X62561Y-52039D02*
X62561Y-51739D01*
X62961Y-52039D02*
X62561Y-52039D01*
X62961Y-51039D02*
X62961Y-50739D01*
X62961Y-50739D02*
X62561Y-50739D01*
X62561Y-51039D02*
X62561Y-50739D01*
X62961Y-51039D02*
X62561Y-51039D01*
X62961Y-50039D02*
X62961Y-49739D01*
X62961Y-49739D02*
X62561Y-49739D01*
X62561Y-50039D02*
X62561Y-49739D01*
X62961Y-50039D02*
X62561Y-50039D01*
G54D12*
X62561Y-64389D02*
X62561Y-63389D01*
X62561Y-63389D02*
X61561Y-63389D01*
X61561Y-63389D02*
X61561Y-64389D01*
X61561Y-64389D02*
X62561Y-64389D01*
G54D13*
X59061Y-63889D02*
X61311Y-63889D01*
G54D12*
X62561Y-63389D02*
X62561Y-62389D01*
X62561Y-62389D02*
X61561Y-62389D01*
X61561Y-62389D02*
X61561Y-63389D01*
G54D13*
X59061Y-62889D02*
X61311Y-62889D01*
G54D12*
X62561Y-62389D02*
X62561Y-61389D01*
X62561Y-61389D02*
X61561Y-61389D01*
X61561Y-61389D02*
X61561Y-62389D01*
G54D13*
X59061Y-61889D02*
X61311Y-61889D01*
G54D12*
X62561Y-61389D02*
X62561Y-60389D01*
X62561Y-60389D02*
X61561Y-60389D01*
X61561Y-60389D02*
X61561Y-61389D01*
G54D13*
X59061Y-60889D02*
X61311Y-60889D01*
G54D12*
X62561Y-60389D02*
X62561Y-59389D01*
X62561Y-59389D02*
X61561Y-59389D01*
X61561Y-59389D02*
X61561Y-60389D01*
G54D13*
X59061Y-59889D02*
X61311Y-59889D01*
G54D12*
X62561Y-59389D02*
X62561Y-58389D01*
X62561Y-58389D02*
X61561Y-58389D01*
X61561Y-58389D02*
X61561Y-59389D01*
G54D13*
X59061Y-58889D02*
X61311Y-58889D01*
G54D12*
X62561Y-58389D02*
X62561Y-57389D01*
X62561Y-57389D02*
X61561Y-57389D01*
X61561Y-57389D02*
X61561Y-58389D01*
G54D13*
X59061Y-57889D02*
X61311Y-57889D01*
G54D12*
X62561Y-57389D02*
X62561Y-56389D01*
X62561Y-56389D02*
X61561Y-56389D01*
X61561Y-56389D02*
X61561Y-57389D01*
G54D13*
X59061Y-56889D02*
X61311Y-56889D01*
G54D12*
X62561Y-56389D02*
X62561Y-55389D01*
X62561Y-55389D02*
X61561Y-55389D01*
X61561Y-55389D02*
X61561Y-56389D01*
G54D13*
X59061Y-55889D02*
X61311Y-55889D01*
G54D12*
X62561Y-55389D02*
X62561Y-54389D01*
X62561Y-54389D02*
X61561Y-54389D01*
X61561Y-54389D02*
X61561Y-55389D01*
G54D13*
X59061Y-54889D02*
X61311Y-54889D01*
G54D12*
X62561Y-54389D02*
X62561Y-53389D01*
X62561Y-53389D02*
X61561Y-53389D01*
X61561Y-53389D02*
X61561Y-54389D01*
G54D13*
X59061Y-53889D02*
X61311Y-53889D01*
G54D12*
X62561Y-53389D02*
X62561Y-52389D01*
X62561Y-52389D02*
X61561Y-52389D01*
X61561Y-52389D02*
X61561Y-53389D01*
G54D13*
X59061Y-52889D02*
X61311Y-52889D01*
G54D12*
X62561Y-52389D02*
X62561Y-51389D01*
X62561Y-51389D02*
X61561Y-51389D01*
X61561Y-51389D02*
X61561Y-52389D01*
G54D13*
X59061Y-51889D02*
X61311Y-51889D01*
G54D12*
X62561Y-51389D02*
X62561Y-50389D01*
X62561Y-50389D02*
X61561Y-50389D01*
X61561Y-50389D02*
X61561Y-51389D01*
G54D13*
X59061Y-50889D02*
X61311Y-50889D01*
G54D12*
X62561Y-50389D02*
X62561Y-49389D01*
X62561Y-49389D02*
X61561Y-49389D01*
X61561Y-49389D02*
X61561Y-50389D01*
G54D13*
X59061Y-49889D02*
X61311Y-49889D01*
G54D11*
X76763Y-43647D02*
X77063Y-43647D01*
X77063Y-43647D02*
X77063Y-43447D01*
X76763Y-43447D02*
X77063Y-43447D01*
X76763Y-43647D02*
X76763Y-43447D01*
X77763Y-43647D02*
X78063Y-43647D01*
X78063Y-43647D02*
X78063Y-43447D01*
X77763Y-43447D02*
X78063Y-43447D01*
X77763Y-43647D02*
X77763Y-43447D01*
X78763Y-43647D02*
X79063Y-43647D01*
X79063Y-43647D02*
X79063Y-43447D01*
X78763Y-43447D02*
X79063Y-43447D01*
X78763Y-43647D02*
X78763Y-43447D01*
X79763Y-43647D02*
X80063Y-43647D01*
X80063Y-43647D02*
X80063Y-43447D01*
X79763Y-43447D02*
X80063Y-43447D01*
X79763Y-43647D02*
X79763Y-43447D01*
X80763Y-43647D02*
X81063Y-43647D01*
X81063Y-43647D02*
X81063Y-43447D01*
X80763Y-43447D02*
X81063Y-43447D01*
X80763Y-43647D02*
X80763Y-43447D01*
X81763Y-43647D02*
X82063Y-43647D01*
X82063Y-43647D02*
X82063Y-43447D01*
X81763Y-43447D02*
X82063Y-43447D01*
X81763Y-43647D02*
X81763Y-43447D01*
X82763Y-43647D02*
X83063Y-43647D01*
X83063Y-43647D02*
X83063Y-43447D01*
X82763Y-43447D02*
X83063Y-43447D01*
X82763Y-43647D02*
X82763Y-43447D01*
X83763Y-43647D02*
X84063Y-43647D01*
X84063Y-43647D02*
X84063Y-43447D01*
X83763Y-43447D02*
X84063Y-43447D01*
X83763Y-43647D02*
X83763Y-43447D01*
X76763Y-45047D02*
X77063Y-45047D01*
X77063Y-45047D02*
X77063Y-44647D01*
X76763Y-44647D02*
X77063Y-44647D01*
X76763Y-45047D02*
X76763Y-44647D01*
X77763Y-45047D02*
X78063Y-45047D01*
X78063Y-45047D02*
X78063Y-44647D01*
X77763Y-44647D02*
X78063Y-44647D01*
X77763Y-45047D02*
X77763Y-44647D01*
X78763Y-45047D02*
X79063Y-45047D01*
X79063Y-45047D02*
X79063Y-44647D01*
X78763Y-44647D02*
X79063Y-44647D01*
X78763Y-45047D02*
X78763Y-44647D01*
X79763Y-45047D02*
X80063Y-45047D01*
X80063Y-45047D02*
X80063Y-44647D01*
X79763Y-44647D02*
X80063Y-44647D01*
X79763Y-45047D02*
X79763Y-44647D01*
X80763Y-45047D02*
X81063Y-45047D01*
X81063Y-45047D02*
X81063Y-44647D01*
X80763Y-44647D02*
X81063Y-44647D01*
X80763Y-45047D02*
X80763Y-44647D01*
X81763Y-45047D02*
X82063Y-45047D01*
X82063Y-45047D02*
X82063Y-44647D01*
X81763Y-44647D02*
X82063Y-44647D01*
X81763Y-45047D02*
X81763Y-44647D01*
X82763Y-45047D02*
X83063Y-45047D01*
X83063Y-45047D02*
X83063Y-44647D01*
X82763Y-44647D02*
X83063Y-44647D01*
X82763Y-45047D02*
X82763Y-44647D01*
X83763Y-45047D02*
X84063Y-45047D01*
X84063Y-45047D02*
X84063Y-44647D01*
X83763Y-44647D02*
X84063Y-44647D01*
X83763Y-45047D02*
X83763Y-44647D01*
G54D12*
X76413Y-44647D02*
X77413Y-44647D01*
X77413Y-44647D02*
X77413Y-43647D01*
X77413Y-43647D02*
X76413Y-43647D01*
X76413Y-43647D02*
X76413Y-44647D01*
G54D13*
X76913Y-41147D02*
X76913Y-43397D01*
G54D12*
X77413Y-44647D02*
X78413Y-44647D01*
X78413Y-44647D02*
X78413Y-43647D01*
X78413Y-43647D02*
X77413Y-43647D01*
G54D13*
X77913Y-41147D02*
X77913Y-43397D01*
G54D12*
X78413Y-44647D02*
X79413Y-44647D01*
X79413Y-44647D02*
X79413Y-43647D01*
X79413Y-43647D02*
X78413Y-43647D01*
G54D13*
X78913Y-41147D02*
X78913Y-43397D01*
G54D12*
X79413Y-44647D02*
X80413Y-44647D01*
X80413Y-44647D02*
X80413Y-43647D01*
X80413Y-43647D02*
X79413Y-43647D01*
G54D13*
X79913Y-41147D02*
X79913Y-43397D01*
G54D12*
X80413Y-44647D02*
X81413Y-44647D01*
X81413Y-44647D02*
X81413Y-43647D01*
X81413Y-43647D02*
X80413Y-43647D01*
G54D13*
X80913Y-41147D02*
X80913Y-43397D01*
G54D12*
X81413Y-44647D02*
X82413Y-44647D01*
X82413Y-44647D02*
X82413Y-43647D01*
X82413Y-43647D02*
X81413Y-43647D01*
G54D13*
X81913Y-41147D02*
X81913Y-43397D01*
G54D12*
X82413Y-44647D02*
X83413Y-44647D01*
X83413Y-44647D02*
X83413Y-43647D01*
X83413Y-43647D02*
X82413Y-43647D01*
G54D13*
X82913Y-41147D02*
X82913Y-43397D01*
G54D12*
X83413Y-44647D02*
X84413Y-44647D01*
X84413Y-44647D02*
X84413Y-43647D01*
X84413Y-43647D02*
X83413Y-43647D01*
G54D13*
X83913Y-41147D02*
X83913Y-43397D01*
G54D11*
X68200Y-43647D02*
X68500Y-43647D01*
X68500Y-43647D02*
X68500Y-43447D01*
X68200Y-43447D02*
X68500Y-43447D01*
X68200Y-43647D02*
X68200Y-43447D01*
X69200Y-43647D02*
X69500Y-43647D01*
X69500Y-43647D02*
X69500Y-43447D01*
X69200Y-43447D02*
X69500Y-43447D01*
X69200Y-43647D02*
X69200Y-43447D01*
X70200Y-43647D02*
X70500Y-43647D01*
X70500Y-43647D02*
X70500Y-43447D01*
X70200Y-43447D02*
X70500Y-43447D01*
X70200Y-43647D02*
X70200Y-43447D01*
X71200Y-43647D02*
X71500Y-43647D01*
X71500Y-43647D02*
X71500Y-43447D01*
X71200Y-43447D02*
X71500Y-43447D01*
X71200Y-43647D02*
X71200Y-43447D01*
X72200Y-43647D02*
X72500Y-43647D01*
X72500Y-43647D02*
X72500Y-43447D01*
X72200Y-43447D02*
X72500Y-43447D01*
X72200Y-43647D02*
X72200Y-43447D01*
X73200Y-43647D02*
X73500Y-43647D01*
X73500Y-43647D02*
X73500Y-43447D01*
X73200Y-43447D02*
X73500Y-43447D01*
X73200Y-43647D02*
X73200Y-43447D01*
X74200Y-43647D02*
X74500Y-43647D01*
X74500Y-43647D02*
X74500Y-43447D01*
X74200Y-43447D02*
X74500Y-43447D01*
X74200Y-43647D02*
X74200Y-43447D01*
X75200Y-43647D02*
X75500Y-43647D01*
X75500Y-43647D02*
X75500Y-43447D01*
X75200Y-43447D02*
X75500Y-43447D01*
X75200Y-43647D02*
X75200Y-43447D01*
X68200Y-45047D02*
X68500Y-45047D01*
X68500Y-45047D02*
X68500Y-44647D01*
X68200Y-44647D02*
X68500Y-44647D01*
X68200Y-45047D02*
X68200Y-44647D01*
X69200Y-45047D02*
X69500Y-45047D01*
X69500Y-45047D02*
X69500Y-44647D01*
X69200Y-44647D02*
X69500Y-44647D01*
X69200Y-45047D02*
X69200Y-44647D01*
X70200Y-45047D02*
X70500Y-45047D01*
X70500Y-45047D02*
X70500Y-44647D01*
X70200Y-44647D02*
X70500Y-44647D01*
X70200Y-45047D02*
X70200Y-44647D01*
X71200Y-45047D02*
X71500Y-45047D01*
X71500Y-45047D02*
X71500Y-44647D01*
X71200Y-44647D02*
X71500Y-44647D01*
X71200Y-45047D02*
X71200Y-44647D01*
X72200Y-45047D02*
X72500Y-45047D01*
X72500Y-45047D02*
X72500Y-44647D01*
X72200Y-44647D02*
X72500Y-44647D01*
X72200Y-45047D02*
X72200Y-44647D01*
X73200Y-45047D02*
X73500Y-45047D01*
X73500Y-45047D02*
X73500Y-44647D01*
X73200Y-44647D02*
X73500Y-44647D01*
X73200Y-45047D02*
X73200Y-44647D01*
X74200Y-45047D02*
X74500Y-45047D01*
X74500Y-45047D02*
X74500Y-44647D01*
X74200Y-44647D02*
X74500Y-44647D01*
X74200Y-45047D02*
X74200Y-44647D01*
X75200Y-45047D02*
X75500Y-45047D01*
X75500Y-45047D02*
X75500Y-44647D01*
X75200Y-44647D02*
X75500Y-44647D01*
X75200Y-45047D02*
X75200Y-44647D01*
G54D12*
X67850Y-44647D02*
X68850Y-44647D01*
X68850Y-44647D02*
X68850Y-43647D01*
X68850Y-43647D02*
X67850Y-43647D01*
X67850Y-43647D02*
X67850Y-44647D01*
G54D13*
X68350Y-41147D02*
X68350Y-43397D01*
G54D12*
X68850Y-44647D02*
X69850Y-44647D01*
X69850Y-44647D02*
X69850Y-43647D01*
X69850Y-43647D02*
X68850Y-43647D01*
G54D13*
X69350Y-41147D02*
X69350Y-43397D01*
G54D12*
X69850Y-44647D02*
X70850Y-44647D01*
X70850Y-44647D02*
X70850Y-43647D01*
X70850Y-43647D02*
X69850Y-43647D01*
G54D13*
X70350Y-41147D02*
X70350Y-43397D01*
G54D12*
X70850Y-44647D02*
X71850Y-44647D01*
X71850Y-44647D02*
X71850Y-43647D01*
X71850Y-43647D02*
X70850Y-43647D01*
G54D13*
X71350Y-41147D02*
X71350Y-43397D01*
G54D12*
X71850Y-44647D02*
X72850Y-44647D01*
X72850Y-44647D02*
X72850Y-43647D01*
X72850Y-43647D02*
X71850Y-43647D01*
G54D13*
X72350Y-41147D02*
X72350Y-43397D01*
G54D12*
X72850Y-44647D02*
X73850Y-44647D01*
X73850Y-44647D02*
X73850Y-43647D01*
X73850Y-43647D02*
X72850Y-43647D01*
G54D13*
X73350Y-41147D02*
X73350Y-43397D01*
G54D12*
X73850Y-44647D02*
X74850Y-44647D01*
X74850Y-44647D02*
X74850Y-43647D01*
X74850Y-43647D02*
X73850Y-43647D01*
G54D13*
X74350Y-41147D02*
X74350Y-43397D01*
G54D12*
X74850Y-44647D02*
X75850Y-44647D01*
X75850Y-44647D02*
X75850Y-43647D01*
X75850Y-43647D02*
X74850Y-43647D01*
G54D13*
X75350Y-41147D02*
X75350Y-43397D01*
G54D11*
X77059Y-69935D02*
X76759Y-69935D01*
X76759Y-69935D02*
X76759Y-70135D01*
X77059Y-70135D02*
X76759Y-70135D01*
X77059Y-69935D02*
X77059Y-70135D01*
X76059Y-69935D02*
X75759Y-69935D01*
X75759Y-69935D02*
X75759Y-70135D01*
X76059Y-70135D02*
X75759Y-70135D01*
X76059Y-69935D02*
X76059Y-70135D01*
X75059Y-69935D02*
X74759Y-69935D01*
X74759Y-69935D02*
X74759Y-70135D01*
X75059Y-70135D02*
X74759Y-70135D01*
X75059Y-69935D02*
X75059Y-70135D01*
X74059Y-69935D02*
X73759Y-69935D01*
X73759Y-69935D02*
X73759Y-70135D01*
X74059Y-70135D02*
X73759Y-70135D01*
X74059Y-69935D02*
X74059Y-70135D01*
X73059Y-69935D02*
X72759Y-69935D01*
X72759Y-69935D02*
X72759Y-70135D01*
X73059Y-70135D02*
X72759Y-70135D01*
X73059Y-69935D02*
X73059Y-70135D01*
X72059Y-69935D02*
X71759Y-69935D01*
X71759Y-69935D02*
X71759Y-70135D01*
X72059Y-70135D02*
X71759Y-70135D01*
X72059Y-69935D02*
X72059Y-70135D01*
X77059Y-68535D02*
X76759Y-68535D01*
X76759Y-68535D02*
X76759Y-68935D01*
X77059Y-68935D02*
X76759Y-68935D01*
X77059Y-68535D02*
X77059Y-68935D01*
X76059Y-68535D02*
X75759Y-68535D01*
X75759Y-68535D02*
X75759Y-68935D01*
X76059Y-68935D02*
X75759Y-68935D01*
X76059Y-68535D02*
X76059Y-68935D01*
X75059Y-68535D02*
X74759Y-68535D01*
X74759Y-68535D02*
X74759Y-68935D01*
X75059Y-68935D02*
X74759Y-68935D01*
X75059Y-68535D02*
X75059Y-68935D01*
X74059Y-68535D02*
X73759Y-68535D01*
X73759Y-68535D02*
X73759Y-68935D01*
X74059Y-68935D02*
X73759Y-68935D01*
X74059Y-68535D02*
X74059Y-68935D01*
X73059Y-68535D02*
X72759Y-68535D01*
X72759Y-68535D02*
X72759Y-68935D01*
X73059Y-68935D02*
X72759Y-68935D01*
X73059Y-68535D02*
X73059Y-68935D01*
X72059Y-68535D02*
X71759Y-68535D01*
X71759Y-68535D02*
X71759Y-68935D01*
X72059Y-68935D02*
X71759Y-68935D01*
X72059Y-68535D02*
X72059Y-68935D01*
G54D12*
X77409Y-68935D02*
X76409Y-68935D01*
X76409Y-68935D02*
X76409Y-69935D01*
X76409Y-69935D02*
X77409Y-69935D01*
X77409Y-69935D02*
X77409Y-68935D01*
G54D13*
X76909Y-72435D02*
X76909Y-70185D01*
G54D12*
X76409Y-68935D02*
X75409Y-68935D01*
X75409Y-68935D02*
X75409Y-69935D01*
X75409Y-69935D02*
X76409Y-69935D01*
G54D13*
X75909Y-72435D02*
X75909Y-70185D01*
G54D12*
X75409Y-68935D02*
X74409Y-68935D01*
X74409Y-68935D02*
X74409Y-69935D01*
X74409Y-69935D02*
X75409Y-69935D01*
G54D13*
X74909Y-72435D02*
X74909Y-70185D01*
G54D12*
X74409Y-68935D02*
X73409Y-68935D01*
X73409Y-68935D02*
X73409Y-69935D01*
X73409Y-69935D02*
X74409Y-69935D01*
G54D13*
X73909Y-72435D02*
X73909Y-70185D01*
G54D12*
X73409Y-68935D02*
X72409Y-68935D01*
X72409Y-68935D02*
X72409Y-69935D01*
X72409Y-69935D02*
X73409Y-69935D01*
G54D13*
X72909Y-72435D02*
X72909Y-70185D01*
G54D12*
X72409Y-68935D02*
X71409Y-68935D01*
X71409Y-68935D02*
X71409Y-69935D01*
X71409Y-69935D02*
X72409Y-69935D01*
G54D13*
X71909Y-72435D02*
X71909Y-70185D01*
G54D11*
X82238Y-48948D02*
X82238Y-49248D01*
X82238Y-49248D02*
X82438Y-49248D01*
X82438Y-48948D02*
X82438Y-49248D01*
X82238Y-48948D02*
X82438Y-48948D01*
X82238Y-49948D02*
X82238Y-50248D01*
X82238Y-50248D02*
X82438Y-50248D01*
X82438Y-49948D02*
X82438Y-50248D01*
X82238Y-49948D02*
X82438Y-49948D01*
X80838Y-48948D02*
X80838Y-49248D01*
X80838Y-49248D02*
X81238Y-49248D01*
X81238Y-48948D02*
X81238Y-49248D01*
X80838Y-48948D02*
X81238Y-48948D01*
X80838Y-49948D02*
X80838Y-50248D01*
X80838Y-50248D02*
X81238Y-50248D01*
X81238Y-49948D02*
X81238Y-50248D01*
X80838Y-49948D02*
X81238Y-49948D01*
G54D12*
X81238Y-48598D02*
X81238Y-49598D01*
X81238Y-49598D02*
X82238Y-49598D01*
X82238Y-49598D02*
X82238Y-48598D01*
X82238Y-48598D02*
X81238Y-48598D01*
G54D13*
X84738Y-49098D02*
X82488Y-49098D01*
G54D12*
X81238Y-49598D02*
X81238Y-50598D01*
X81238Y-50598D02*
X82238Y-50598D01*
X82238Y-50598D02*
X82238Y-49598D01*
G54D13*
X84738Y-50098D02*
X82488Y-50098D01*
G54D11*
X66329Y-45474D02*
X66529Y-45474D01*
X66529Y-45474D02*
X66529Y-45274D01*
X66329Y-45274D02*
X66529Y-45274D01*
X66329Y-45474D02*
X66329Y-45274D01*
X67329Y-45474D02*
X67529Y-45474D01*
X67529Y-45474D02*
X67529Y-45274D01*
X67329Y-45274D02*
X67529Y-45274D01*
X67329Y-45474D02*
X67329Y-45274D01*
G54D12*
X66179Y-44874D02*
X66679Y-44874D01*
X66679Y-44874D02*
X66929Y-45124D01*
X66929Y-45124D02*
X66929Y-45624D01*
X66929Y-45624D02*
X66679Y-45874D01*
X65929Y-45124D02*
X65929Y-45624D01*
X66179Y-44874D02*
X65929Y-45124D01*
X65929Y-45624D02*
X66179Y-45874D01*
X66679Y-45874D02*
X66179Y-45874D01*
X66929Y-45124D02*
X67179Y-44874D01*
X67179Y-44874D02*
X67679Y-44874D01*
X67679Y-44874D02*
X67929Y-45124D01*
X67929Y-45124D02*
X67929Y-45624D01*
X67929Y-45624D02*
X67679Y-45874D01*
X67679Y-45874D02*
X67179Y-45874D01*
X67179Y-45874D02*
X66929Y-45624D01*
G54D11*
X69872Y-68308D02*
X70072Y-68308D01*
X70072Y-68308D02*
X70072Y-68108D01*
X69872Y-68108D02*
X70072Y-68108D01*
X69872Y-68308D02*
X69872Y-68108D01*
X70872Y-68308D02*
X71072Y-68308D01*
X71072Y-68308D02*
X71072Y-68108D01*
X70872Y-68108D02*
X71072Y-68108D01*
X70872Y-68308D02*
X70872Y-68108D01*
G54D12*
X69722Y-67708D02*
X70222Y-67708D01*
X70222Y-67708D02*
X70472Y-67958D01*
X70472Y-67958D02*
X70472Y-68458D01*
X70472Y-68458D02*
X70222Y-68708D01*
X69472Y-67958D02*
X69472Y-68458D01*
X69722Y-67708D02*
X69472Y-67958D01*
X69472Y-68458D02*
X69722Y-68708D01*
X70222Y-68708D02*
X69722Y-68708D01*
X70472Y-67958D02*
X70722Y-67708D01*
X70722Y-67708D02*
X71222Y-67708D01*
X71222Y-67708D02*
X71472Y-67958D01*
X71472Y-67958D02*
X71472Y-68458D01*
X71472Y-68458D02*
X71222Y-68708D01*
X71222Y-68708D02*
X70722Y-68708D01*
X70722Y-68708D02*
X70472Y-68458D01*
G54D11*
X64663Y-60817D02*
X64663Y-61017D01*
X64663Y-61017D02*
X64863Y-61017D01*
X64863Y-60817D02*
X64863Y-61017D01*
X64663Y-60817D02*
X64863Y-60817D01*
X64663Y-61817D02*
X64663Y-62017D01*
X64663Y-62017D02*
X64863Y-62017D01*
X64863Y-61817D02*
X64863Y-62017D01*
X64663Y-61817D02*
X64863Y-61817D01*
G54D12*
X65263Y-60667D02*
X65263Y-61167D01*
X65263Y-61167D02*
X65013Y-61417D01*
X65013Y-61417D02*
X64513Y-61417D01*
X64513Y-61417D02*
X64263Y-61167D01*
X65013Y-60417D02*
X64513Y-60417D01*
X65263Y-60667D02*
X65013Y-60417D01*
X64513Y-60417D02*
X64263Y-60667D01*
X64263Y-61167D02*
X64263Y-60667D01*
X65013Y-61417D02*
X65263Y-61667D01*
X65263Y-61667D02*
X65263Y-62167D01*
X65263Y-62167D02*
X65013Y-62417D01*
X65013Y-62417D02*
X64513Y-62417D01*
X64513Y-62417D02*
X64263Y-62167D01*
X64263Y-62167D02*
X64263Y-61667D01*
X64263Y-61667D02*
X64513Y-61417D01*
G54D14*
X67307Y-53718D02*
X67307Y-50218D01*
X67307Y-50218D02*
X69307Y-50218D01*
X69307Y-50218D02*
X69307Y-53718D01*
X69307Y-53718D02*
X67307Y-53718D01*
X68057Y-53718D02*
X68057Y-53218D01*
X68057Y-53218D02*
X68557Y-53218D01*
X68557Y-53218D02*
X68557Y-53718D01*
X67307Y-64742D02*
X67307Y-61242D01*
X67307Y-61242D02*
X69307Y-61242D01*
X69307Y-61242D02*
X69307Y-64742D01*
X69307Y-64742D02*
X67307Y-64742D01*
X68057Y-64742D02*
X68057Y-64242D01*
X68057Y-64242D02*
X68557Y-64242D01*
X68557Y-64242D02*
X68557Y-64742D01*
X67307Y-57655D02*
X67307Y-54155D01*
X67307Y-54155D02*
X69307Y-54155D01*
X69307Y-54155D02*
X69307Y-57655D01*
X69307Y-57655D02*
X67307Y-57655D01*
X68057Y-57655D02*
X68057Y-57155D01*
X68057Y-57155D02*
X68557Y-57155D01*
X68557Y-57155D02*
X68557Y-57655D01*
X76000Y-50809D02*
X76000Y-54309D01*
X76000Y-54309D02*
X74000Y-54309D01*
X74000Y-54309D02*
X74000Y-50809D01*
X74000Y-50809D02*
X76000Y-50809D01*
X75250Y-50809D02*
X75250Y-51309D01*
X75250Y-51309D02*
X74750Y-51309D01*
X74750Y-51309D02*
X74750Y-50809D01*
X81905Y-50809D02*
X81905Y-54309D01*
X81905Y-54309D02*
X79905Y-54309D01*
X79905Y-54309D02*
X79905Y-50809D01*
X79905Y-50809D02*
X81905Y-50809D01*
X81155Y-50809D02*
X81155Y-51309D01*
X81155Y-51309D02*
X80655Y-51309D01*
X80655Y-51309D02*
X80655Y-50809D01*
X82059Y-60933D02*
X82059Y-60933D01*
X82059Y-60933D02*
X81559Y-60933D01*
X81559Y-60933D02*
X81559Y-59933D01*
X81559Y-59933D02*
X82059Y-59933D01*
X82059Y-61433D02*
X73059Y-61433D01*
X73059Y-61433D02*
X73059Y-59433D01*
X73059Y-59433D02*
X82059Y-59433D01*
X82059Y-59433D02*
X82059Y-61433D01*
G54D15*
X72547Y-58933D02*
X72547Y-61933D01*
X72547Y-61933D02*
X71547Y-61933D01*
X71547Y-61933D02*
X71547Y-58933D01*
X71547Y-58933D02*
X72547Y-58933D01*
X72547Y-61683D02*
X71547Y-61683D01*
X71547Y-61433D02*
X72547Y-61433D01*
X72047Y-58933D02*
X72047Y-58433D01*
X72047Y-61933D02*
X72047Y-62433D01*
G54D14*
X84933Y-51240D02*
X84933Y-46740D01*
X84933Y-46740D02*
X84433Y-46240D01*
X84433Y-46240D02*
X58933Y-46240D01*
X84933Y-67240D02*
X58933Y-67240D01*
X58933Y-67240D02*
X58933Y-46240D01*
X84933Y-51240D02*
X85933Y-52240D01*
X85933Y-52240D02*
X85933Y-65240D01*
X85933Y-65240D02*
X84933Y-66240D01*
X84933Y-66240D02*
X84933Y-67240D01*
G54D11*
X84047Y-69836D02*
X83747Y-69836D01*
X83747Y-69836D02*
X83747Y-70036D01*
X84047Y-70036D02*
X83747Y-70036D01*
X84047Y-69836D02*
X84047Y-70036D01*
X83047Y-69836D02*
X82747Y-69836D01*
X82747Y-69836D02*
X82747Y-70036D01*
X83047Y-70036D02*
X82747Y-70036D01*
X83047Y-69836D02*
X83047Y-70036D01*
X82047Y-69836D02*
X81747Y-69836D01*
X81747Y-69836D02*
X81747Y-70036D01*
X82047Y-70036D02*
X81747Y-70036D01*
X82047Y-69836D02*
X82047Y-70036D01*
X81047Y-69836D02*
X80747Y-69836D01*
X80747Y-69836D02*
X80747Y-70036D01*
X81047Y-70036D02*
X80747Y-70036D01*
X81047Y-69836D02*
X81047Y-70036D01*
X80047Y-69836D02*
X79747Y-69836D01*
X79747Y-69836D02*
X79747Y-70036D01*
X80047Y-70036D02*
X79747Y-70036D01*
X80047Y-69836D02*
X80047Y-70036D01*
X79047Y-69836D02*
X78747Y-69836D01*
X78747Y-69836D02*
X78747Y-70036D01*
X79047Y-70036D02*
X78747Y-70036D01*
X79047Y-69836D02*
X79047Y-70036D01*
X84047Y-68436D02*
X83747Y-68436D01*
X83747Y-68436D02*
X83747Y-68836D01*
X84047Y-68836D02*
X83747Y-68836D01*
X84047Y-68436D02*
X84047Y-68836D01*
X83047Y-68436D02*
X82747Y-68436D01*
X82747Y-68436D02*
X82747Y-68836D01*
X83047Y-68836D02*
X82747Y-68836D01*
X83047Y-68436D02*
X83047Y-68836D01*
X82047Y-68436D02*
X81747Y-68436D01*
X81747Y-68436D02*
X81747Y-68836D01*
X82047Y-68836D02*
X81747Y-68836D01*
X82047Y-68436D02*
X82047Y-68836D01*
X81047Y-68436D02*
X80747Y-68436D01*
X80747Y-68436D02*
X80747Y-68836D01*
X81047Y-68836D02*
X80747Y-68836D01*
X81047Y-68436D02*
X81047Y-68836D01*
X80047Y-68436D02*
X79747Y-68436D01*
X79747Y-68436D02*
X79747Y-68836D01*
X80047Y-68836D02*
X79747Y-68836D01*
X80047Y-68436D02*
X80047Y-68836D01*
X79047Y-68436D02*
X78747Y-68436D01*
X78747Y-68436D02*
X78747Y-68836D01*
X79047Y-68836D02*
X78747Y-68836D01*
X79047Y-68436D02*
X79047Y-68836D01*
G54D12*
X84397Y-68836D02*
X83397Y-68836D01*
X83397Y-68836D02*
X83397Y-69836D01*
X83397Y-69836D02*
X84397Y-69836D01*
X84397Y-69836D02*
X84397Y-68836D01*
G54D13*
X83897Y-72336D02*
X83897Y-70086D01*
G54D12*
X83397Y-68836D02*
X82397Y-68836D01*
X82397Y-68836D02*
X82397Y-69836D01*
X82397Y-69836D02*
X83397Y-69836D01*
G54D13*
X82897Y-72336D02*
X82897Y-70086D01*
G54D12*
X82397Y-68836D02*
X81397Y-68836D01*
X81397Y-68836D02*
X81397Y-69836D01*
X81397Y-69836D02*
X82397Y-69836D01*
G54D13*
X81897Y-72336D02*
X81897Y-70086D01*
G54D12*
X81397Y-68836D02*
X80397Y-68836D01*
X80397Y-68836D02*
X80397Y-69836D01*
X80397Y-69836D02*
X81397Y-69836D01*
G54D13*
X80897Y-72336D02*
X80897Y-70086D01*
G54D12*
X80397Y-68836D02*
X79397Y-68836D01*
X79397Y-68836D02*
X79397Y-69836D01*
X79397Y-69836D02*
X80397Y-69836D01*
G54D13*
X79897Y-72336D02*
X79897Y-70086D01*
G54D12*
X79397Y-68836D02*
X78397Y-68836D01*
X78397Y-68836D02*
X78397Y-69836D01*
X78397Y-69836D02*
X79397Y-69836D01*
G54D13*
X78897Y-72336D02*
X78897Y-70086D01*
G54D11*
X69872Y-66340D02*
X70072Y-66340D01*
X70072Y-66340D02*
X70072Y-66140D01*
X69872Y-66140D02*
X70072Y-66140D01*
X69872Y-66340D02*
X69872Y-66140D01*
X70872Y-66340D02*
X71072Y-66340D01*
X71072Y-66340D02*
X71072Y-66140D01*
X70872Y-66140D02*
X71072Y-66140D01*
X70872Y-66340D02*
X70872Y-66140D01*
G54D12*
X69722Y-65740D02*
X70222Y-65740D01*
X70222Y-65740D02*
X70472Y-65990D01*
X70472Y-65990D02*
X70472Y-66490D01*
X70472Y-66490D02*
X70222Y-66740D01*
X69472Y-65990D02*
X69472Y-66490D01*
X69722Y-65740D02*
X69472Y-65990D01*
X69472Y-66490D02*
X69722Y-66740D01*
X70222Y-66740D02*
X69722Y-66740D01*
X70472Y-65990D02*
X70722Y-65740D01*
X70722Y-65740D02*
X71222Y-65740D01*
X71222Y-65740D02*
X71472Y-65990D01*
X71472Y-65990D02*
X71472Y-66490D01*
X71472Y-66490D02*
X71222Y-66740D01*
X71222Y-66740D02*
X70722Y-66740D01*
X70722Y-66740D02*
X70472Y-66490D01*
G54D11*
X66329Y-47344D02*
X66529Y-47344D01*
X66529Y-47344D02*
X66529Y-47144D01*
X66329Y-47144D02*
X66529Y-47144D01*
X66329Y-47344D02*
X66329Y-47144D01*
X67329Y-47344D02*
X67529Y-47344D01*
X67529Y-47344D02*
X67529Y-47144D01*
X67329Y-47144D02*
X67529Y-47144D01*
X67329Y-47344D02*
X67329Y-47144D01*
G54D12*
X66179Y-46744D02*
X66679Y-46744D01*
X66679Y-46744D02*
X66929Y-46994D01*
X66929Y-46994D02*
X66929Y-47494D01*
X66929Y-47494D02*
X66679Y-47744D01*
X65929Y-46994D02*
X65929Y-47494D01*
X66179Y-46744D02*
X65929Y-46994D01*
X65929Y-47494D02*
X66179Y-47744D01*
X66679Y-47744D02*
X66179Y-47744D01*
X66929Y-46994D02*
X67179Y-46744D01*
X67179Y-46744D02*
X67679Y-46744D01*
X67679Y-46744D02*
X67929Y-46994D01*
X67929Y-46994D02*
X67929Y-47494D01*
X67929Y-47494D02*
X67679Y-47744D01*
X67679Y-47744D02*
X67179Y-47744D01*
X67179Y-47744D02*
X66929Y-47494D01*
X68149Y-52358D02*
X67549Y-52358D01*
X68092Y-51939D02*
X68121Y-51958D01*
X68149Y-52016D01*
X68149Y-52054D01*
X68121Y-52111D01*
X68064Y-52149D01*
X68007Y-52168D01*
X67892Y-52187D01*
X67807Y-52187D01*
X67692Y-52168D01*
X67635Y-52149D01*
X67578Y-52111D01*
X67549Y-52054D01*
X67549Y-52016D01*
X67578Y-51958D01*
X67607Y-51939D01*
X67749Y-51597D02*
X68149Y-51597D01*
X67521Y-51692D02*
X67949Y-51787D01*
X67949Y-51539D01*
X68676Y-52418D02*
X69009Y-52418D01*
X68485Y-52501D02*
X68842Y-52585D01*
X68842Y-52368D01*
X69009Y-52235D02*
X68509Y-52235D01*
X69009Y-52035D01*
X68509Y-52035D01*
X68557Y-51885D02*
X68533Y-51868D01*
X68509Y-51835D01*
X68509Y-51751D01*
X68533Y-51718D01*
X68557Y-51701D01*
X68604Y-51685D01*
X68652Y-51685D01*
X68723Y-51701D01*
X69009Y-51901D01*
X69009Y-51685D01*
X68509Y-51368D02*
X68509Y-51535D01*
X68747Y-51551D01*
X68723Y-51535D01*
X68699Y-51501D01*
X68699Y-51418D01*
X68723Y-51385D01*
X68747Y-51368D01*
X68795Y-51351D01*
X68914Y-51351D01*
X68961Y-51368D01*
X68985Y-51385D01*
X69009Y-51418D01*
X69009Y-51501D01*
X68985Y-51535D01*
X68961Y-51551D01*
X68149Y-63382D02*
X67549Y-63382D01*
X68092Y-62963D02*
X68121Y-62982D01*
X68149Y-63039D01*
X68149Y-63077D01*
X68121Y-63134D01*
X68064Y-63173D01*
X68007Y-63192D01*
X67892Y-63211D01*
X67807Y-63211D01*
X67692Y-63192D01*
X67635Y-63173D01*
X67578Y-63134D01*
X67549Y-63077D01*
X67549Y-63039D01*
X67578Y-62982D01*
X67607Y-62963D01*
X67549Y-62830D02*
X67549Y-62582D01*
X67778Y-62715D01*
X67778Y-62658D01*
X67807Y-62620D01*
X67835Y-62601D01*
X67892Y-62582D01*
X68035Y-62582D01*
X68092Y-62601D01*
X68121Y-62620D01*
X68149Y-62658D01*
X68149Y-62773D01*
X68121Y-62811D01*
X68092Y-62830D01*
X68676Y-63442D02*
X69009Y-63442D01*
X68485Y-63525D02*
X68842Y-63608D01*
X68842Y-63392D01*
X69009Y-63258D02*
X68509Y-63258D01*
X69009Y-63058D01*
X68509Y-63058D01*
X68557Y-62908D02*
X68533Y-62892D01*
X68509Y-62858D01*
X68509Y-62775D01*
X68533Y-62742D01*
X68557Y-62725D01*
X68604Y-62708D01*
X68652Y-62708D01*
X68723Y-62725D01*
X69009Y-62925D01*
X69009Y-62708D01*
X68509Y-62392D02*
X68509Y-62558D01*
X68747Y-62575D01*
X68723Y-62558D01*
X68699Y-62525D01*
X68699Y-62442D01*
X68723Y-62408D01*
X68747Y-62392D01*
X68795Y-62375D01*
X68914Y-62375D01*
X68961Y-62392D01*
X68985Y-62408D01*
X69009Y-62442D01*
X69009Y-62525D01*
X68985Y-62558D01*
X68961Y-62575D01*
X68149Y-56295D02*
X67549Y-56295D01*
X68092Y-55876D02*
X68121Y-55895D01*
X68149Y-55953D01*
X68149Y-55991D01*
X68121Y-56048D01*
X68064Y-56086D01*
X68007Y-56105D01*
X67892Y-56124D01*
X67807Y-56124D01*
X67692Y-56105D01*
X67635Y-56086D01*
X67578Y-56048D01*
X67549Y-55991D01*
X67549Y-55953D01*
X67578Y-55895D01*
X67607Y-55876D01*
X67549Y-55515D02*
X67549Y-55705D01*
X67835Y-55724D01*
X67807Y-55705D01*
X67778Y-55667D01*
X67778Y-55572D01*
X67807Y-55534D01*
X67835Y-55515D01*
X67892Y-55495D01*
X68035Y-55495D01*
X68092Y-55515D01*
X68121Y-55534D01*
X68149Y-55572D01*
X68149Y-55667D01*
X68121Y-55705D01*
X68092Y-55724D01*
X68676Y-56355D02*
X69009Y-56355D01*
X68485Y-56438D02*
X68842Y-56522D01*
X68842Y-56305D01*
X69009Y-56172D02*
X68509Y-56172D01*
X69009Y-55972D01*
X68509Y-55972D01*
X68557Y-55822D02*
X68533Y-55805D01*
X68509Y-55772D01*
X68509Y-55688D01*
X68533Y-55655D01*
X68557Y-55638D01*
X68604Y-55622D01*
X68652Y-55622D01*
X68723Y-55638D01*
X69009Y-55838D01*
X69009Y-55622D01*
X68509Y-55305D02*
X68509Y-55472D01*
X68747Y-55488D01*
X68723Y-55472D01*
X68699Y-55438D01*
X68699Y-55355D01*
X68723Y-55322D01*
X68747Y-55305D01*
X68795Y-55288D01*
X68914Y-55288D01*
X68961Y-55305D01*
X68985Y-55322D01*
X69009Y-55355D01*
X69009Y-55438D01*
X68985Y-55472D01*
X68961Y-55488D01*
X75642Y-52949D02*
X75042Y-52949D01*
X75585Y-52530D02*
X75614Y-52549D01*
X75642Y-52606D01*
X75642Y-52644D01*
X75614Y-52701D01*
X75557Y-52740D01*
X75500Y-52759D01*
X75385Y-52778D01*
X75300Y-52778D01*
X75185Y-52759D01*
X75128Y-52740D01*
X75071Y-52701D01*
X75042Y-52644D01*
X75042Y-52606D01*
X75071Y-52549D01*
X75100Y-52530D01*
X75100Y-52378D02*
X75071Y-52359D01*
X75042Y-52320D01*
X75042Y-52225D01*
X75071Y-52187D01*
X75100Y-52168D01*
X75157Y-52149D01*
X75214Y-52149D01*
X75300Y-52168D01*
X75642Y-52397D01*
X75642Y-52149D01*
X74369Y-53009D02*
X74702Y-53009D01*
X74178Y-53092D02*
X74535Y-53175D01*
X74535Y-52959D01*
X74702Y-52825D02*
X74202Y-52825D01*
X74702Y-52625D01*
X74202Y-52625D01*
X74250Y-52475D02*
X74226Y-52459D01*
X74202Y-52425D01*
X74202Y-52342D01*
X74226Y-52309D01*
X74250Y-52292D01*
X74297Y-52275D01*
X74345Y-52275D01*
X74416Y-52292D01*
X74702Y-52492D01*
X74702Y-52275D01*
X74202Y-51959D02*
X74202Y-52125D01*
X74440Y-52142D01*
X74416Y-52125D01*
X74392Y-52092D01*
X74392Y-52009D01*
X74416Y-51975D01*
X74440Y-51959D01*
X74488Y-51942D01*
X74607Y-51942D01*
X74654Y-51959D01*
X74678Y-51975D01*
X74702Y-52009D01*
X74702Y-52092D01*
X74678Y-52125D01*
X74654Y-52142D01*
X81548Y-52949D02*
X80948Y-52949D01*
X81491Y-52530D02*
X81519Y-52549D01*
X81548Y-52606D01*
X81548Y-52644D01*
X81519Y-52701D01*
X81462Y-52740D01*
X81405Y-52759D01*
X81291Y-52778D01*
X81205Y-52778D01*
X81091Y-52759D01*
X81034Y-52740D01*
X80976Y-52701D01*
X80948Y-52644D01*
X80948Y-52606D01*
X80976Y-52549D01*
X81005Y-52530D01*
X81548Y-52149D02*
X81548Y-52378D01*
X81548Y-52263D02*
X80948Y-52263D01*
X81034Y-52301D01*
X81091Y-52340D01*
X81119Y-52378D01*
X80274Y-53009D02*
X80607Y-53009D01*
X80084Y-53092D02*
X80441Y-53175D01*
X80441Y-52959D01*
X80607Y-52825D02*
X80107Y-52825D01*
X80607Y-52625D01*
X80107Y-52625D01*
X80155Y-52475D02*
X80131Y-52459D01*
X80107Y-52425D01*
X80107Y-52342D01*
X80131Y-52309D01*
X80155Y-52292D01*
X80203Y-52275D01*
X80250Y-52275D01*
X80322Y-52292D01*
X80607Y-52492D01*
X80607Y-52275D01*
X80107Y-51959D02*
X80107Y-52125D01*
X80345Y-52142D01*
X80322Y-52125D01*
X80298Y-52092D01*
X80298Y-52009D01*
X80322Y-51975D01*
X80345Y-51959D01*
X80393Y-51942D01*
X80512Y-51942D01*
X80560Y-51959D01*
X80584Y-51975D01*
X80607Y-52009D01*
X80607Y-52092D01*
X80584Y-52125D01*
X80560Y-52142D01*
G54D16*
X79716Y-60575D02*
X79716Y-61061D01*
X79737Y-61118D01*
X79759Y-61147D01*
X79801Y-61175D01*
X79887Y-61175D01*
X79930Y-61147D01*
X79951Y-61118D01*
X79973Y-61061D01*
X79973Y-60575D01*
X80423Y-61175D02*
X80166Y-61175D01*
X80294Y-61175D02*
X80294Y-60575D01*
X80251Y-60661D01*
X80209Y-60718D01*
X80166Y-60747D01*
G54D15*
G54D16*
X75462Y-59575D02*
X75462Y-60061D01*
X75484Y-60118D01*
X75505Y-60147D01*
X75548Y-60175D01*
X75634Y-60175D01*
X75676Y-60147D01*
X75698Y-60118D01*
X75719Y-60061D01*
X75719Y-59575D01*
X76148Y-60175D02*
X75934Y-60175D01*
X75934Y-59575D01*
X76298Y-60175D02*
X76298Y-59575D01*
X76555Y-60175D01*
X76555Y-59575D01*
X76748Y-59633D02*
X76769Y-59604D01*
X76812Y-59575D01*
X76919Y-59575D01*
X76962Y-59604D01*
X76984Y-59633D01*
X77005Y-59690D01*
X77005Y-59747D01*
X76984Y-59833D01*
X76726Y-60175D01*
X77005Y-60175D01*
X77284Y-59575D02*
X77326Y-59575D01*
X77369Y-59604D01*
X77391Y-59633D01*
X77412Y-59690D01*
X77434Y-59804D01*
X77434Y-59947D01*
X77412Y-60061D01*
X77391Y-60118D01*
X77369Y-60147D01*
X77326Y-60175D01*
X77284Y-60175D01*
X77241Y-60147D01*
X77219Y-60118D01*
X77198Y-60061D01*
X77176Y-59947D01*
X77176Y-59804D01*
X77198Y-59690D01*
X77219Y-59633D01*
X77241Y-59604D01*
X77284Y-59575D01*
X77712Y-59575D02*
X77755Y-59575D01*
X77798Y-59604D01*
X77819Y-59633D01*
X77841Y-59690D01*
X77862Y-59804D01*
X77862Y-59947D01*
X77841Y-60061D01*
X77819Y-60118D01*
X77798Y-60147D01*
X77755Y-60175D01*
X77712Y-60175D01*
X77669Y-60147D01*
X77648Y-60118D01*
X77626Y-60061D01*
X77605Y-59947D01*
X77605Y-59804D01*
X77626Y-59690D01*
X77648Y-59633D01*
X77669Y-59604D01*
X77712Y-59575D01*
X78012Y-59575D02*
X78291Y-59575D01*
X78141Y-59804D01*
X78205Y-59804D01*
X78248Y-59833D01*
X78269Y-59861D01*
X78291Y-59918D01*
X78291Y-60061D01*
X78269Y-60118D01*
X78248Y-60147D01*
X78205Y-60175D01*
X78076Y-60175D01*
X78034Y-60147D01*
X78012Y-60118D01*
X78462Y-60004D02*
X78676Y-60004D01*
X78419Y-60175D02*
X78569Y-59575D01*
X78719Y-60175D01*
G54D15*
G54D17*
X72249Y-60728D02*
X71749Y-60728D01*
X71749Y-60633D01*
X71773Y-60575D01*
X71821Y-60537D01*
X71868Y-60518D01*
X71963Y-60499D01*
X72035Y-60499D01*
X72130Y-60518D01*
X72178Y-60537D01*
X72225Y-60575D01*
X72249Y-60633D01*
X72249Y-60728D01*
X72249Y-60118D02*
X72249Y-60347D01*
X72249Y-60233D02*
X71749Y-60233D01*
X71821Y-60271D01*
X71868Y-60309D01*
X71892Y-60347D01*
G54D15*
X59454Y-44954D02*
X59540Y-44983D01*
X59683Y-44983D01*
X59740Y-44954D01*
X59768Y-44925D01*
X59797Y-44868D01*
X59797Y-44811D01*
X59768Y-44754D01*
X59740Y-44725D01*
X59683Y-44697D01*
X59568Y-44668D01*
X59511Y-44640D01*
X59483Y-44611D01*
X59454Y-44554D01*
X59454Y-44497D01*
X59483Y-44440D01*
X59511Y-44411D01*
X59568Y-44383D01*
X59711Y-44383D01*
X59797Y-44411D01*
X60054Y-44983D02*
X60054Y-44383D01*
X60054Y-44668D02*
X60397Y-44668D01*
X60397Y-44983D02*
X60397Y-44383D01*
X60683Y-44983D02*
X60683Y-44383D01*
X60968Y-44668D02*
X61168Y-44668D01*
X61254Y-44983D02*
X60968Y-44983D01*
X60968Y-44383D01*
X61254Y-44383D01*
X61797Y-44983D02*
X61511Y-44983D01*
X61511Y-44383D01*
X61997Y-44983D02*
X61997Y-44383D01*
X62140Y-44383D01*
X62225Y-44411D01*
X62283Y-44468D01*
X62311Y-44525D01*
X62340Y-44640D01*
X62340Y-44725D01*
X62311Y-44840D01*
X62283Y-44897D01*
X62225Y-44954D01*
X62140Y-44983D01*
X61997Y-44983D01*
X62911Y-44983D02*
X62568Y-44983D01*
X62740Y-44983D02*
X62740Y-44383D01*
X62683Y-44468D01*
X62625Y-44525D01*
X62568Y-44554D01*
M02*
