M48
;DRILL file {Pcbnew (2013-07-07 BZR 4022)-stable} date 19-01-2019 19:24:21
;FORMAT={-:-/ absolute / inch / decimal}
FMAT,2
INCH,TZ
T1C0.031
T2C0.032
T3C0.040
T4C0.125
%
G90
G05
M72
T1
X6.0827Y-6.3386
X6.2008Y-6.3583
X6.4862Y-5.4724
X6.6732Y-6.063
X6.6929Y-5.8268
X6.6929Y-5.9055
X6.6929Y-5.9843
X6.9291Y-4.8228
X6.9488Y-4.9803
X6.9488Y-5.8465
X6.9488Y-5.9252
X6.9488Y-6.0039
X6.9488Y-6.063
X7.185Y-5.0591
X7.2244Y-5.1181
X7.2933Y-5.4331
X7.3031Y-4.9409
X7.3031Y-6.4961
X7.3622Y-4.9803
X7.5Y-6.4764
T2
X6.6807Y-5.0969
X6.6807Y-5.1969
X6.6807Y-5.2969
X6.6807Y-5.4906
X6.6807Y-5.5906
X6.6807Y-5.6906
X6.6807Y-6.1992
X6.6807Y-6.2992
X6.6807Y-6.3992
X6.8333Y-4.724
X6.9333Y-4.724
X6.9807Y-5.0969
X6.9807Y-5.1969
X6.9807Y-5.2969
X6.9807Y-5.4906
X6.9807Y-5.5906
X6.9807Y-5.6906
X6.9807Y-6.1992
X6.9807Y-6.2992
X6.9807Y-6.3992
X7.0333Y-4.724
X7.1333Y-4.724
X7.1933Y-6.624
X7.2333Y-4.724
X7.2933Y-6.624
X7.3333Y-4.724
X7.35Y-5.1559
X7.35Y-5.2559
X7.35Y-5.3559
X7.3933Y-6.624
X7.4059Y-5.8933
X7.4059Y-6.1933
X7.4333Y-4.724
X7.4933Y-6.624
X7.5059Y-5.8933
X7.5059Y-6.1933
X7.5333Y-4.724
X7.5933Y-6.624
X7.6059Y-5.8933
X7.6059Y-6.1933
X7.65Y-5.1559
X7.65Y-5.2559
X7.65Y-5.3559
X7.6933Y-4.724
X7.6933Y-6.624
X7.7059Y-5.8933
X7.7059Y-6.1933
X7.7933Y-4.724
X7.8059Y-5.8933
X7.8059Y-6.1933
X7.8933Y-4.724
X7.8933Y-6.624
X7.9059Y-5.8933
X7.9059Y-6.1933
X7.9406Y-5.1559
X7.9406Y-5.2559
X7.9406Y-5.3559
X7.9933Y-4.724
X7.9933Y-6.624
X8.0059Y-5.8933
X8.0059Y-6.1933
X8.0933Y-4.724
X8.0933Y-6.624
X8.1059Y-5.8933
X8.1059Y-6.1933
X8.1933Y-4.724
X8.1933Y-6.624
X8.2406Y-5.1559
X8.2406Y-5.2559
X8.2406Y-5.3559
X8.2933Y-4.724
X8.2933Y-6.624
X8.3933Y-4.724
X8.3933Y-6.624
T3
X6.3311Y-4.989
X6.3311Y-5.089
X6.3311Y-5.189
X6.3311Y-5.289
X6.3311Y-5.389
X6.3311Y-5.489
X6.3311Y-5.589
X6.3311Y-5.689
X6.3311Y-5.789
X6.3311Y-5.889
X6.3311Y-5.989
X6.3311Y-6.089
X6.3311Y-6.189
X6.3311Y-6.289
X6.3311Y-6.389
X6.4764Y-6.0917
X6.4764Y-6.1917
X6.6429Y-4.5374
X6.6429Y-4.7244
X6.7429Y-4.5374
X6.7429Y-4.7244
X6.835Y-4.5398
X6.935Y-4.5398
X6.9972Y-6.624
X6.9972Y-6.8209
X7.035Y-4.5398
X7.0972Y-6.624
X7.0972Y-6.8209
X7.135Y-4.5398
X7.1909Y-6.8185
X7.2047Y-5.8433
X7.2047Y-6.2433
X7.235Y-4.5398
X7.2909Y-6.8185
X7.335Y-4.5398
X7.3909Y-6.8185
X7.435Y-4.5398
X7.4909Y-6.8185
X7.535Y-4.5398
X7.5909Y-6.8185
X7.6909Y-6.8185
X7.6913Y-4.5398
X7.7913Y-4.5398
X7.8898Y-6.8087
X7.8913Y-4.5398
X7.9898Y-6.8087
X7.9913Y-4.5398
X8.0488Y-4.9098
X8.0488Y-5.0098
X8.0898Y-6.8087
X8.0913Y-4.5398
X8.1898Y-6.8087
X8.1913Y-4.5398
X8.2898Y-6.8087
X8.2913Y-4.5398
X8.3898Y-6.8087
X8.3913Y-4.5398
T4
X6.4433Y-6.624
X6.4933Y-4.724
X8.4933Y-5.324
X8.4933Y-6.424
T0
M30
