G04 (created by PCBNEW (2013-07-07 BZR 4022)-stable) date 19-01-2019 19:24:24*
%MOIN*%
G04 Gerber Fmt 3.4, Leading zero omitted, Abs format*
%FSLAX34Y34*%
G01*
G70*
G90*
G04 APERTURE LIST*
%ADD10C,0.00590551*%
%ADD11C,0.0039*%
%ADD12C,0.0043*%
%ADD13C,0.0035*%
G04 APERTURE END LIST*
G54D10*
G54D11*
X82830Y-54271D02*
G75*
G03X82830Y-54271I-50J0D01*
G74*
G01*
X82780Y-54721D02*
X82780Y-54321D01*
X82780Y-54321D02*
X82180Y-54321D01*
X82180Y-54321D02*
X82180Y-54721D01*
X82180Y-55121D02*
X82180Y-55521D01*
X82180Y-55521D02*
X82780Y-55521D01*
X82780Y-55521D02*
X82780Y-55121D01*
X64916Y-51712D02*
G75*
G03X64916Y-51712I-50J0D01*
G74*
G01*
X64866Y-52162D02*
X64866Y-51762D01*
X64866Y-51762D02*
X64266Y-51762D01*
X64266Y-51762D02*
X64266Y-52162D01*
X64266Y-52562D02*
X64266Y-52962D01*
X64266Y-52962D02*
X64866Y-52962D01*
X64866Y-52962D02*
X64866Y-52562D01*
X64916Y-49743D02*
G75*
G03X64916Y-49743I-50J0D01*
G74*
G01*
X64866Y-50193D02*
X64866Y-49793D01*
X64866Y-49793D02*
X64266Y-49793D01*
X64266Y-49793D02*
X64266Y-50193D01*
X64266Y-50593D02*
X64266Y-50993D01*
X64266Y-50993D02*
X64866Y-50993D01*
X64866Y-50993D02*
X64866Y-50593D01*
X76924Y-54271D02*
G75*
G03X76924Y-54271I-50J0D01*
G74*
G01*
X76874Y-54721D02*
X76874Y-54321D01*
X76874Y-54321D02*
X76274Y-54321D01*
X76274Y-54321D02*
X76274Y-54721D01*
X76274Y-55121D02*
X76274Y-55521D01*
X76274Y-55521D02*
X76874Y-55521D01*
X76874Y-55521D02*
X76874Y-55121D01*
X64513Y-64035D02*
G75*
G03X64513Y-64035I-50J0D01*
G74*
G01*
X64463Y-63585D02*
X64463Y-63985D01*
X64463Y-63985D02*
X65063Y-63985D01*
X65063Y-63985D02*
X65063Y-63585D01*
X65063Y-63185D02*
X65063Y-62785D01*
X65063Y-62785D02*
X64463Y-62785D01*
X64463Y-62785D02*
X64463Y-63185D01*
X71609Y-47972D02*
G75*
G03X71609Y-47972I-50J0D01*
G74*
G01*
X71559Y-48422D02*
X71559Y-48022D01*
X71559Y-48022D02*
X70959Y-48022D01*
X70959Y-48022D02*
X70959Y-48422D01*
X70959Y-48822D02*
X70959Y-49222D01*
X70959Y-49222D02*
X71559Y-49222D01*
X71559Y-49222D02*
X71559Y-48822D01*
X72594Y-47972D02*
G75*
G03X72594Y-47972I-50J0D01*
G74*
G01*
X72544Y-48422D02*
X72544Y-48022D01*
X72544Y-48022D02*
X71944Y-48022D01*
X71944Y-48022D02*
X71944Y-48422D01*
X71944Y-48822D02*
X71944Y-49222D01*
X71944Y-49222D02*
X72544Y-49222D01*
X72544Y-49222D02*
X72544Y-48822D01*
X74759Y-47972D02*
G75*
G03X74759Y-47972I-50J0D01*
G74*
G01*
X74709Y-48422D02*
X74709Y-48022D01*
X74709Y-48022D02*
X74109Y-48022D01*
X74109Y-48022D02*
X74109Y-48422D01*
X74109Y-48822D02*
X74109Y-49222D01*
X74109Y-49222D02*
X74709Y-49222D01*
X74709Y-49222D02*
X74709Y-48822D01*
X75743Y-47972D02*
G75*
G03X75743Y-47972I-50J0D01*
G74*
G01*
X75693Y-48422D02*
X75693Y-48022D01*
X75693Y-48022D02*
X75093Y-48022D01*
X75093Y-48022D02*
X75093Y-48422D01*
X75093Y-48822D02*
X75093Y-49222D01*
X75093Y-49222D02*
X75693Y-49222D01*
X75693Y-49222D02*
X75693Y-48822D01*
X70625Y-47972D02*
G75*
G03X70625Y-47972I-50J0D01*
G74*
G01*
X70575Y-48422D02*
X70575Y-48022D01*
X70575Y-48022D02*
X69975Y-48022D01*
X69975Y-48022D02*
X69975Y-48422D01*
X69975Y-48822D02*
X69975Y-49222D01*
X69975Y-49222D02*
X70575Y-49222D01*
X70575Y-49222D02*
X70575Y-48822D01*
X81486Y-47928D02*
G75*
G03X81486Y-47928I-50J0D01*
G74*
G01*
X81886Y-47928D02*
X81486Y-47928D01*
X81486Y-47928D02*
X81486Y-48528D01*
X81486Y-48528D02*
X81886Y-48528D01*
X82286Y-48528D02*
X82686Y-48528D01*
X82686Y-48528D02*
X82686Y-47928D01*
X82686Y-47928D02*
X82286Y-47928D01*
X79680Y-49054D02*
G75*
G03X79680Y-49054I-50J0D01*
G74*
G01*
X79630Y-49504D02*
X79630Y-49104D01*
X79630Y-49104D02*
X79030Y-49104D01*
X79030Y-49104D02*
X79030Y-49504D01*
X79030Y-49904D02*
X79030Y-50304D01*
X79030Y-50304D02*
X79630Y-50304D01*
X79630Y-50304D02*
X79630Y-49904D01*
G54D12*
X82435Y-54888D02*
X82341Y-54822D01*
X82435Y-54775D02*
X82238Y-54775D01*
X82238Y-54850D01*
X82247Y-54869D01*
X82256Y-54879D01*
X82275Y-54888D01*
X82303Y-54888D01*
X82322Y-54879D01*
X82331Y-54869D01*
X82341Y-54850D01*
X82341Y-54775D01*
X82256Y-54963D02*
X82247Y-54972D01*
X82238Y-54991D01*
X82238Y-55038D01*
X82247Y-55057D01*
X82256Y-55066D01*
X82275Y-55076D01*
X82294Y-55076D01*
X82322Y-55066D01*
X82435Y-54954D01*
X82435Y-55076D01*
X82710Y-54803D02*
X82710Y-54691D01*
X82710Y-54747D02*
X82513Y-54747D01*
X82541Y-54728D01*
X82559Y-54710D01*
X82569Y-54691D01*
X82513Y-54982D02*
X82513Y-54888D01*
X82606Y-54879D01*
X82597Y-54888D01*
X82588Y-54907D01*
X82588Y-54954D01*
X82597Y-54972D01*
X82606Y-54982D01*
X82625Y-54991D01*
X82672Y-54991D01*
X82691Y-54982D01*
X82700Y-54972D01*
X82710Y-54954D01*
X82710Y-54907D01*
X82700Y-54888D01*
X82691Y-54879D01*
X82710Y-55076D02*
X82513Y-55076D01*
X82635Y-55094D02*
X82710Y-55151D01*
X82578Y-55151D02*
X82653Y-55076D01*
X64521Y-52235D02*
X64427Y-52169D01*
X64521Y-52122D02*
X64324Y-52122D01*
X64324Y-52198D01*
X64334Y-52216D01*
X64343Y-52226D01*
X64362Y-52235D01*
X64390Y-52235D01*
X64409Y-52226D01*
X64418Y-52216D01*
X64427Y-52198D01*
X64427Y-52122D01*
X64521Y-52423D02*
X64521Y-52310D01*
X64521Y-52366D02*
X64324Y-52366D01*
X64352Y-52348D01*
X64371Y-52329D01*
X64380Y-52310D01*
X64343Y-52498D02*
X64334Y-52507D01*
X64324Y-52526D01*
X64324Y-52573D01*
X64334Y-52592D01*
X64343Y-52601D01*
X64362Y-52610D01*
X64380Y-52610D01*
X64409Y-52601D01*
X64521Y-52488D01*
X64521Y-52610D01*
X64796Y-52244D02*
X64796Y-52132D01*
X64796Y-52188D02*
X64599Y-52188D01*
X64627Y-52169D01*
X64646Y-52151D01*
X64655Y-52132D01*
X64599Y-52423D02*
X64599Y-52329D01*
X64693Y-52319D01*
X64684Y-52329D01*
X64674Y-52348D01*
X64674Y-52395D01*
X64684Y-52413D01*
X64693Y-52423D01*
X64712Y-52432D01*
X64759Y-52432D01*
X64777Y-52423D01*
X64787Y-52413D01*
X64796Y-52395D01*
X64796Y-52348D01*
X64787Y-52329D01*
X64777Y-52319D01*
X64796Y-52516D02*
X64599Y-52516D01*
X64721Y-52535D02*
X64796Y-52592D01*
X64665Y-52592D02*
X64740Y-52516D01*
X64521Y-50267D02*
X64427Y-50201D01*
X64521Y-50154D02*
X64324Y-50154D01*
X64324Y-50229D01*
X64334Y-50248D01*
X64343Y-50257D01*
X64362Y-50267D01*
X64390Y-50267D01*
X64409Y-50257D01*
X64418Y-50248D01*
X64427Y-50229D01*
X64427Y-50154D01*
X64521Y-50454D02*
X64521Y-50342D01*
X64521Y-50398D02*
X64324Y-50398D01*
X64352Y-50379D01*
X64371Y-50360D01*
X64380Y-50342D01*
X64521Y-50642D02*
X64521Y-50529D01*
X64521Y-50586D02*
X64324Y-50586D01*
X64352Y-50567D01*
X64371Y-50548D01*
X64380Y-50529D01*
X64796Y-50276D02*
X64796Y-50163D01*
X64796Y-50220D02*
X64599Y-50220D01*
X64627Y-50201D01*
X64646Y-50182D01*
X64655Y-50163D01*
X64599Y-50454D02*
X64599Y-50360D01*
X64693Y-50351D01*
X64684Y-50360D01*
X64674Y-50379D01*
X64674Y-50426D01*
X64684Y-50445D01*
X64693Y-50454D01*
X64712Y-50464D01*
X64759Y-50464D01*
X64777Y-50454D01*
X64787Y-50445D01*
X64796Y-50426D01*
X64796Y-50379D01*
X64787Y-50360D01*
X64777Y-50351D01*
X64796Y-50548D02*
X64599Y-50548D01*
X64721Y-50567D02*
X64796Y-50623D01*
X64665Y-50623D02*
X64740Y-50548D01*
X76529Y-54888D02*
X76435Y-54822D01*
X76529Y-54775D02*
X76332Y-54775D01*
X76332Y-54850D01*
X76341Y-54869D01*
X76351Y-54879D01*
X76370Y-54888D01*
X76398Y-54888D01*
X76416Y-54879D01*
X76426Y-54869D01*
X76435Y-54850D01*
X76435Y-54775D01*
X76398Y-55057D02*
X76529Y-55057D01*
X76323Y-55010D02*
X76463Y-54963D01*
X76463Y-55085D01*
X76804Y-54803D02*
X76804Y-54691D01*
X76804Y-54747D02*
X76607Y-54747D01*
X76635Y-54728D01*
X76654Y-54710D01*
X76663Y-54691D01*
X76607Y-54982D02*
X76607Y-54888D01*
X76701Y-54879D01*
X76691Y-54888D01*
X76682Y-54907D01*
X76682Y-54954D01*
X76691Y-54972D01*
X76701Y-54982D01*
X76720Y-54991D01*
X76767Y-54991D01*
X76785Y-54982D01*
X76795Y-54972D01*
X76804Y-54954D01*
X76804Y-54907D01*
X76795Y-54888D01*
X76785Y-54879D01*
X76804Y-55076D02*
X76607Y-55076D01*
X76729Y-55094D02*
X76804Y-55151D01*
X76673Y-55151D02*
X76748Y-55076D01*
X64968Y-63259D02*
X64874Y-63193D01*
X64968Y-63146D02*
X64771Y-63146D01*
X64771Y-63221D01*
X64780Y-63240D01*
X64790Y-63249D01*
X64809Y-63259D01*
X64837Y-63259D01*
X64855Y-63249D01*
X64865Y-63240D01*
X64874Y-63221D01*
X64874Y-63146D01*
X64968Y-63446D02*
X64968Y-63334D01*
X64968Y-63390D02*
X64771Y-63390D01*
X64799Y-63371D01*
X64818Y-63352D01*
X64827Y-63334D01*
X64771Y-63568D02*
X64771Y-63587D01*
X64780Y-63606D01*
X64790Y-63615D01*
X64809Y-63625D01*
X64846Y-63634D01*
X64893Y-63634D01*
X64930Y-63625D01*
X64949Y-63615D01*
X64959Y-63606D01*
X64968Y-63587D01*
X64968Y-63568D01*
X64959Y-63549D01*
X64949Y-63540D01*
X64930Y-63531D01*
X64893Y-63521D01*
X64846Y-63521D01*
X64809Y-63531D01*
X64790Y-63540D01*
X64780Y-63549D01*
X64771Y-63568D01*
X64693Y-63268D02*
X64693Y-63155D01*
X64693Y-63212D02*
X64496Y-63212D01*
X64524Y-63193D01*
X64543Y-63174D01*
X64552Y-63155D01*
X64496Y-63446D02*
X64496Y-63352D01*
X64590Y-63343D01*
X64580Y-63352D01*
X64571Y-63371D01*
X64571Y-63418D01*
X64580Y-63437D01*
X64590Y-63446D01*
X64609Y-63456D01*
X64655Y-63456D01*
X64674Y-63446D01*
X64684Y-63437D01*
X64693Y-63418D01*
X64693Y-63371D01*
X64684Y-63352D01*
X64674Y-63343D01*
X64693Y-63540D02*
X64496Y-63540D01*
X64618Y-63559D02*
X64693Y-63615D01*
X64562Y-63615D02*
X64637Y-63540D01*
G54D13*
X61715Y-65044D02*
X61691Y-65068D01*
X61620Y-65092D01*
X61572Y-65092D01*
X61501Y-65068D01*
X61453Y-65020D01*
X61430Y-64973D01*
X61406Y-64877D01*
X61406Y-64806D01*
X61430Y-64711D01*
X61453Y-64663D01*
X61501Y-64615D01*
X61572Y-64592D01*
X61620Y-64592D01*
X61691Y-64615D01*
X61715Y-64639D01*
X61930Y-65092D02*
X61930Y-64592D01*
X62215Y-65092D01*
X62215Y-64592D01*
X62715Y-65092D02*
X62430Y-65092D01*
X62572Y-65092D02*
X62572Y-64592D01*
X62525Y-64663D01*
X62477Y-64711D01*
X62430Y-64735D01*
X57811Y-49092D02*
X57811Y-48592D01*
X57811Y-48830D02*
X58096Y-48830D01*
X58096Y-49092D02*
X58096Y-48592D01*
X58334Y-49092D02*
X58334Y-48592D01*
X58453Y-48592D01*
X58525Y-48615D01*
X58572Y-48663D01*
X58596Y-48711D01*
X58620Y-48806D01*
X58620Y-48877D01*
X58596Y-48973D01*
X58572Y-49020D01*
X58525Y-49068D01*
X58453Y-49092D01*
X58334Y-49092D01*
X59120Y-49092D02*
X58953Y-48854D01*
X58834Y-49092D02*
X58834Y-48592D01*
X59025Y-48592D01*
X59072Y-48615D01*
X59096Y-48639D01*
X59120Y-48687D01*
X59120Y-48758D01*
X59096Y-48806D01*
X59072Y-48830D01*
X59025Y-48854D01*
X58834Y-48854D01*
X59334Y-48901D02*
X59715Y-48901D01*
X60215Y-49092D02*
X59930Y-49092D01*
X60072Y-49092D02*
X60072Y-48592D01*
X60025Y-48663D01*
X59977Y-48711D01*
X59930Y-48735D01*
X60382Y-48592D02*
X60715Y-49092D01*
X60715Y-48592D02*
X60382Y-49092D01*
X61168Y-49092D02*
X60882Y-49092D01*
X61025Y-49092D02*
X61025Y-48592D01*
X60977Y-48663D01*
X60930Y-48711D01*
X60882Y-48735D01*
X61620Y-48592D02*
X61382Y-48592D01*
X61358Y-48830D01*
X61382Y-48806D01*
X61430Y-48782D01*
X61549Y-48782D01*
X61596Y-48806D01*
X61620Y-48830D01*
X61644Y-48877D01*
X61644Y-48996D01*
X61620Y-49044D01*
X61596Y-49068D01*
X61549Y-49092D01*
X61430Y-49092D01*
X61382Y-49068D01*
X61358Y-49044D01*
X61858Y-48901D02*
X62239Y-48901D01*
X62739Y-49092D02*
X62453Y-49092D01*
X62596Y-49092D02*
X62596Y-48592D01*
X62549Y-48663D01*
X62501Y-48711D01*
X62453Y-48735D01*
X63191Y-48592D02*
X62953Y-48592D01*
X62930Y-48830D01*
X62953Y-48806D01*
X63001Y-48782D01*
X63120Y-48782D01*
X63168Y-48806D01*
X63191Y-48830D01*
X63215Y-48877D01*
X63215Y-48996D01*
X63191Y-49044D01*
X63168Y-49068D01*
X63120Y-49092D01*
X63001Y-49092D01*
X62953Y-49068D01*
X62930Y-49044D01*
X63430Y-48901D02*
X63811Y-48901D01*
X64072Y-49092D02*
X64168Y-49092D01*
X64215Y-49068D01*
X64239Y-49044D01*
X64287Y-48973D01*
X64311Y-48877D01*
X64311Y-48687D01*
X64287Y-48639D01*
X64263Y-48615D01*
X64215Y-48592D01*
X64120Y-48592D01*
X64072Y-48615D01*
X64049Y-48639D01*
X64025Y-48687D01*
X64025Y-48806D01*
X64049Y-48854D01*
X64072Y-48877D01*
X64120Y-48901D01*
X64215Y-48901D01*
X64263Y-48877D01*
X64287Y-48854D01*
X64311Y-48806D01*
X64787Y-49092D02*
X64501Y-49092D01*
X64644Y-49092D02*
X64644Y-48592D01*
X64596Y-48663D01*
X64549Y-48711D01*
X64501Y-48735D01*
X65001Y-48901D02*
X65382Y-48901D01*
X65691Y-49044D02*
X65715Y-49068D01*
X65691Y-49092D01*
X65668Y-49068D01*
X65691Y-49044D01*
X65691Y-49092D01*
X65596Y-48615D02*
X65644Y-48592D01*
X65763Y-48592D01*
X65811Y-48615D01*
X65834Y-48663D01*
X65834Y-48711D01*
X65811Y-48758D01*
X65787Y-48782D01*
X65739Y-48806D01*
X65715Y-48830D01*
X65691Y-48877D01*
X65691Y-48901D01*
X76115Y-44754D02*
X75615Y-44754D01*
X75615Y-44564D01*
X75639Y-44516D01*
X75663Y-44492D01*
X75711Y-44469D01*
X75782Y-44469D01*
X75830Y-44492D01*
X75853Y-44516D01*
X75877Y-44564D01*
X75877Y-44754D01*
X76115Y-43992D02*
X76115Y-44278D01*
X76115Y-44135D02*
X75615Y-44135D01*
X75687Y-44183D01*
X75734Y-44230D01*
X75758Y-44278D01*
X75615Y-43683D02*
X75615Y-43635D01*
X75639Y-43588D01*
X75663Y-43564D01*
X75711Y-43540D01*
X75806Y-43516D01*
X75925Y-43516D01*
X76020Y-43540D01*
X76068Y-43564D01*
X76091Y-43588D01*
X76115Y-43635D01*
X76115Y-43683D01*
X76091Y-43730D01*
X76068Y-43754D01*
X76020Y-43778D01*
X75925Y-43802D01*
X75806Y-43802D01*
X75711Y-43778D01*
X75663Y-43754D01*
X75639Y-43730D01*
X75615Y-43683D01*
X85068Y-44957D02*
X85091Y-44980D01*
X85115Y-45052D01*
X85115Y-45100D01*
X85091Y-45171D01*
X85044Y-45219D01*
X84996Y-45242D01*
X84901Y-45266D01*
X84830Y-45266D01*
X84734Y-45242D01*
X84687Y-45219D01*
X84639Y-45171D01*
X84615Y-45100D01*
X84615Y-45052D01*
X84639Y-44980D01*
X84663Y-44957D01*
X84615Y-44647D02*
X84615Y-44552D01*
X84639Y-44504D01*
X84687Y-44457D01*
X84782Y-44433D01*
X84949Y-44433D01*
X85044Y-44457D01*
X85091Y-44504D01*
X85115Y-44552D01*
X85115Y-44647D01*
X85091Y-44695D01*
X85044Y-44742D01*
X84949Y-44766D01*
X84782Y-44766D01*
X84687Y-44742D01*
X84639Y-44695D01*
X84615Y-44647D01*
X85115Y-44219D02*
X84615Y-44219D01*
X85115Y-43933D01*
X84615Y-43933D01*
X85115Y-43695D02*
X84615Y-43695D01*
X85115Y-43409D01*
X84615Y-43409D01*
X85163Y-43290D02*
X85163Y-42909D01*
X84830Y-42719D02*
X84806Y-42766D01*
X84782Y-42790D01*
X84734Y-42814D01*
X84711Y-42814D01*
X84663Y-42790D01*
X84639Y-42766D01*
X84615Y-42719D01*
X84615Y-42623D01*
X84639Y-42576D01*
X84663Y-42552D01*
X84711Y-42528D01*
X84734Y-42528D01*
X84782Y-42552D01*
X84806Y-42576D01*
X84830Y-42623D01*
X84830Y-42719D01*
X84853Y-42766D01*
X84877Y-42790D01*
X84925Y-42814D01*
X85020Y-42814D01*
X85068Y-42790D01*
X85091Y-42766D01*
X85115Y-42719D01*
X85115Y-42623D01*
X85091Y-42576D01*
X85068Y-42552D01*
X85020Y-42528D01*
X84925Y-42528D01*
X84877Y-42552D01*
X84853Y-42576D01*
X84830Y-42623D01*
X67552Y-44754D02*
X67052Y-44754D01*
X67052Y-44564D01*
X67076Y-44516D01*
X67100Y-44492D01*
X67148Y-44469D01*
X67219Y-44469D01*
X67267Y-44492D01*
X67290Y-44516D01*
X67314Y-44564D01*
X67314Y-44754D01*
X67552Y-43992D02*
X67552Y-44278D01*
X67552Y-44135D02*
X67052Y-44135D01*
X67124Y-44183D01*
X67171Y-44230D01*
X67195Y-44278D01*
X67552Y-43516D02*
X67552Y-43802D01*
X67552Y-43659D02*
X67052Y-43659D01*
X67124Y-43707D01*
X67171Y-43754D01*
X67195Y-43802D01*
X76505Y-44957D02*
X76528Y-44980D01*
X76552Y-45052D01*
X76552Y-45100D01*
X76528Y-45171D01*
X76481Y-45219D01*
X76433Y-45242D01*
X76338Y-45266D01*
X76267Y-45266D01*
X76171Y-45242D01*
X76124Y-45219D01*
X76076Y-45171D01*
X76052Y-45100D01*
X76052Y-45052D01*
X76076Y-44980D01*
X76100Y-44957D01*
X76052Y-44647D02*
X76052Y-44552D01*
X76076Y-44504D01*
X76124Y-44457D01*
X76219Y-44433D01*
X76386Y-44433D01*
X76481Y-44457D01*
X76528Y-44504D01*
X76552Y-44552D01*
X76552Y-44647D01*
X76528Y-44695D01*
X76481Y-44742D01*
X76386Y-44766D01*
X76219Y-44766D01*
X76124Y-44742D01*
X76076Y-44695D01*
X76052Y-44647D01*
X76552Y-44219D02*
X76052Y-44219D01*
X76552Y-43933D01*
X76052Y-43933D01*
X76552Y-43695D02*
X76052Y-43695D01*
X76552Y-43409D01*
X76052Y-43409D01*
X76600Y-43290D02*
X76600Y-42909D01*
X76267Y-42719D02*
X76243Y-42766D01*
X76219Y-42790D01*
X76171Y-42814D01*
X76148Y-42814D01*
X76100Y-42790D01*
X76076Y-42766D01*
X76052Y-42719D01*
X76052Y-42623D01*
X76076Y-42576D01*
X76100Y-42552D01*
X76148Y-42528D01*
X76171Y-42528D01*
X76219Y-42552D01*
X76243Y-42576D01*
X76267Y-42623D01*
X76267Y-42719D01*
X76290Y-42766D01*
X76314Y-42790D01*
X76362Y-42814D01*
X76457Y-42814D01*
X76505Y-42790D01*
X76528Y-42766D01*
X76552Y-42719D01*
X76552Y-42623D01*
X76528Y-42576D01*
X76505Y-42552D01*
X76457Y-42528D01*
X76362Y-42528D01*
X76314Y-42552D01*
X76290Y-42576D01*
X76267Y-42623D01*
X78111Y-69804D02*
X77611Y-69804D01*
X77611Y-69613D01*
X77635Y-69565D01*
X77659Y-69542D01*
X77707Y-69518D01*
X77778Y-69518D01*
X77826Y-69542D01*
X77849Y-69565D01*
X77873Y-69613D01*
X77873Y-69804D01*
X78111Y-69042D02*
X78111Y-69327D01*
X78111Y-69185D02*
X77611Y-69185D01*
X77683Y-69232D01*
X77730Y-69280D01*
X77754Y-69327D01*
X71064Y-70744D02*
X71088Y-70768D01*
X71111Y-70839D01*
X71111Y-70887D01*
X71088Y-70958D01*
X71040Y-71006D01*
X70992Y-71030D01*
X70897Y-71054D01*
X70826Y-71054D01*
X70730Y-71030D01*
X70683Y-71006D01*
X70635Y-70958D01*
X70611Y-70887D01*
X70611Y-70839D01*
X70635Y-70768D01*
X70659Y-70744D01*
X70611Y-70435D02*
X70611Y-70339D01*
X70635Y-70292D01*
X70683Y-70244D01*
X70778Y-70220D01*
X70945Y-70220D01*
X71040Y-70244D01*
X71088Y-70292D01*
X71111Y-70339D01*
X71111Y-70435D01*
X71088Y-70482D01*
X71040Y-70530D01*
X70945Y-70554D01*
X70778Y-70554D01*
X70683Y-70530D01*
X70635Y-70482D01*
X70611Y-70435D01*
X71111Y-70006D02*
X70611Y-70006D01*
X71111Y-69720D01*
X70611Y-69720D01*
X71111Y-69482D02*
X70611Y-69482D01*
X71111Y-69196D01*
X70611Y-69196D01*
X71159Y-69077D02*
X71159Y-68696D01*
X70611Y-68363D02*
X70611Y-68458D01*
X70635Y-68506D01*
X70659Y-68530D01*
X70730Y-68577D01*
X70826Y-68601D01*
X71016Y-68601D01*
X71064Y-68577D01*
X71088Y-68554D01*
X71111Y-68506D01*
X71111Y-68411D01*
X71088Y-68363D01*
X71064Y-68339D01*
X71016Y-68315D01*
X70897Y-68315D01*
X70849Y-68339D01*
X70826Y-68363D01*
X70802Y-68411D01*
X70802Y-68506D01*
X70826Y-68554D01*
X70849Y-68577D01*
X70897Y-68601D01*
X81369Y-48300D02*
X81369Y-47800D01*
X81559Y-47800D01*
X81607Y-47824D01*
X81631Y-47848D01*
X81654Y-47896D01*
X81654Y-47967D01*
X81631Y-48015D01*
X81607Y-48038D01*
X81559Y-48062D01*
X81369Y-48062D01*
X81892Y-48300D02*
X81988Y-48300D01*
X82035Y-48276D01*
X82059Y-48253D01*
X82107Y-48181D01*
X82131Y-48086D01*
X82131Y-47896D01*
X82107Y-47848D01*
X82083Y-47824D01*
X82035Y-47800D01*
X81940Y-47800D01*
X81892Y-47824D01*
X81869Y-47848D01*
X81845Y-47896D01*
X81845Y-48015D01*
X81869Y-48062D01*
X81892Y-48086D01*
X81940Y-48110D01*
X82035Y-48110D01*
X82083Y-48086D01*
X82107Y-48062D01*
X82131Y-48015D01*
X80928Y-51253D02*
X80904Y-51276D01*
X80833Y-51300D01*
X80785Y-51300D01*
X80714Y-51276D01*
X80666Y-51229D01*
X80642Y-51181D01*
X80619Y-51086D01*
X80619Y-51015D01*
X80642Y-50919D01*
X80666Y-50872D01*
X80714Y-50824D01*
X80785Y-50800D01*
X80833Y-50800D01*
X80904Y-50824D01*
X80928Y-50848D01*
X81238Y-50800D02*
X81333Y-50800D01*
X81381Y-50824D01*
X81428Y-50872D01*
X81452Y-50967D01*
X81452Y-51134D01*
X81428Y-51229D01*
X81381Y-51276D01*
X81333Y-51300D01*
X81238Y-51300D01*
X81190Y-51276D01*
X81142Y-51229D01*
X81119Y-51134D01*
X81119Y-50967D01*
X81142Y-50872D01*
X81190Y-50824D01*
X81238Y-50800D01*
X81666Y-51300D02*
X81666Y-50800D01*
X81952Y-51300D01*
X81952Y-50800D01*
X82190Y-51300D02*
X82190Y-50800D01*
X82476Y-51300D01*
X82476Y-50800D01*
X82595Y-51348D02*
X82976Y-51348D01*
X83071Y-50848D02*
X83095Y-50824D01*
X83142Y-50800D01*
X83261Y-50800D01*
X83309Y-50824D01*
X83333Y-50848D01*
X83357Y-50896D01*
X83357Y-50943D01*
X83333Y-51015D01*
X83047Y-51300D01*
X83357Y-51300D01*
X66780Y-44606D02*
X66780Y-44106D01*
X66970Y-44106D01*
X67018Y-44130D01*
X67041Y-44154D01*
X67065Y-44201D01*
X67065Y-44273D01*
X67041Y-44320D01*
X67018Y-44344D01*
X66970Y-44368D01*
X66780Y-44368D01*
X67518Y-44106D02*
X67280Y-44106D01*
X67256Y-44344D01*
X67280Y-44320D01*
X67327Y-44296D01*
X67446Y-44296D01*
X67494Y-44320D01*
X67518Y-44344D01*
X67541Y-44392D01*
X67541Y-44511D01*
X67518Y-44558D01*
X67494Y-44582D01*
X67446Y-44606D01*
X67327Y-44606D01*
X67280Y-44582D01*
X67256Y-44558D01*
X66369Y-46528D02*
X66345Y-46552D01*
X66274Y-46576D01*
X66226Y-46576D01*
X66155Y-46552D01*
X66107Y-46504D01*
X66083Y-46457D01*
X66060Y-46362D01*
X66060Y-46290D01*
X66083Y-46195D01*
X66107Y-46147D01*
X66155Y-46100D01*
X66226Y-46076D01*
X66274Y-46076D01*
X66345Y-46100D01*
X66369Y-46124D01*
X66679Y-46076D02*
X66774Y-46076D01*
X66821Y-46100D01*
X66869Y-46147D01*
X66893Y-46243D01*
X66893Y-46409D01*
X66869Y-46504D01*
X66821Y-46552D01*
X66774Y-46576D01*
X66679Y-46576D01*
X66631Y-46552D01*
X66583Y-46504D01*
X66560Y-46409D01*
X66560Y-46243D01*
X66583Y-46147D01*
X66631Y-46100D01*
X66679Y-46076D01*
X67107Y-46576D02*
X67107Y-46076D01*
X67393Y-46576D01*
X67393Y-46076D01*
X67631Y-46576D02*
X67631Y-46076D01*
X67917Y-46576D01*
X67917Y-46076D01*
X68036Y-46624D02*
X68417Y-46624D01*
X68512Y-46124D02*
X68536Y-46100D01*
X68583Y-46076D01*
X68702Y-46076D01*
X68750Y-46100D01*
X68774Y-46124D01*
X68798Y-46171D01*
X68798Y-46219D01*
X68774Y-46290D01*
X68488Y-46576D01*
X68798Y-46576D01*
X70323Y-67441D02*
X70323Y-66941D01*
X70513Y-66941D01*
X70561Y-66964D01*
X70585Y-66988D01*
X70609Y-67036D01*
X70609Y-67107D01*
X70585Y-67155D01*
X70561Y-67179D01*
X70513Y-67202D01*
X70323Y-67202D01*
X70799Y-66988D02*
X70823Y-66964D01*
X70871Y-66941D01*
X70990Y-66941D01*
X71037Y-66964D01*
X71061Y-66988D01*
X71085Y-67036D01*
X71085Y-67083D01*
X71061Y-67155D01*
X70775Y-67441D01*
X71085Y-67441D01*
X69912Y-69363D02*
X69889Y-69387D01*
X69817Y-69411D01*
X69770Y-69411D01*
X69698Y-69387D01*
X69651Y-69339D01*
X69627Y-69291D01*
X69603Y-69196D01*
X69603Y-69125D01*
X69627Y-69030D01*
X69651Y-68982D01*
X69698Y-68934D01*
X69770Y-68911D01*
X69817Y-68911D01*
X69889Y-68934D01*
X69912Y-68958D01*
X70222Y-68911D02*
X70317Y-68911D01*
X70365Y-68934D01*
X70412Y-68982D01*
X70436Y-69077D01*
X70436Y-69244D01*
X70412Y-69339D01*
X70365Y-69387D01*
X70317Y-69411D01*
X70222Y-69411D01*
X70174Y-69387D01*
X70127Y-69339D01*
X70103Y-69244D01*
X70103Y-69077D01*
X70127Y-68982D01*
X70174Y-68934D01*
X70222Y-68911D01*
X70651Y-69411D02*
X70651Y-68911D01*
X70936Y-69411D01*
X70936Y-68911D01*
X71174Y-69411D02*
X71174Y-68911D01*
X71460Y-69411D01*
X71460Y-68911D01*
X71579Y-69458D02*
X71960Y-69458D01*
X72055Y-68958D02*
X72079Y-68934D01*
X72127Y-68911D01*
X72246Y-68911D01*
X72293Y-68934D01*
X72317Y-68958D01*
X72341Y-69006D01*
X72341Y-69053D01*
X72317Y-69125D01*
X72031Y-69411D01*
X72341Y-69411D01*
X65936Y-62244D02*
X65436Y-62244D01*
X65436Y-62053D01*
X65459Y-62006D01*
X65483Y-61982D01*
X65531Y-61958D01*
X65602Y-61958D01*
X65650Y-61982D01*
X65674Y-62006D01*
X65698Y-62053D01*
X65698Y-62244D01*
X65936Y-61482D02*
X65936Y-61768D01*
X65936Y-61625D02*
X65436Y-61625D01*
X65507Y-61673D01*
X65555Y-61720D01*
X65579Y-61768D01*
X65483Y-61292D02*
X65459Y-61268D01*
X65436Y-61220D01*
X65436Y-61101D01*
X65459Y-61053D01*
X65483Y-61030D01*
X65531Y-61006D01*
X65579Y-61006D01*
X65650Y-61030D01*
X65936Y-61315D01*
X65936Y-61006D01*
X63918Y-62976D02*
X63942Y-63000D01*
X63966Y-63072D01*
X63966Y-63119D01*
X63942Y-63191D01*
X63894Y-63238D01*
X63847Y-63262D01*
X63751Y-63286D01*
X63680Y-63286D01*
X63585Y-63262D01*
X63537Y-63238D01*
X63489Y-63191D01*
X63466Y-63119D01*
X63466Y-63072D01*
X63489Y-63000D01*
X63513Y-62976D01*
X63466Y-62667D02*
X63466Y-62572D01*
X63489Y-62524D01*
X63537Y-62476D01*
X63632Y-62453D01*
X63799Y-62453D01*
X63894Y-62476D01*
X63942Y-62524D01*
X63966Y-62572D01*
X63966Y-62667D01*
X63942Y-62714D01*
X63894Y-62762D01*
X63799Y-62786D01*
X63632Y-62786D01*
X63537Y-62762D01*
X63489Y-62714D01*
X63466Y-62667D01*
X63966Y-62238D02*
X63466Y-62238D01*
X63966Y-61953D01*
X63466Y-61953D01*
X63966Y-61714D02*
X63466Y-61714D01*
X63966Y-61429D01*
X63466Y-61429D01*
X64013Y-61310D02*
X64013Y-60929D01*
X63513Y-60833D02*
X63489Y-60810D01*
X63466Y-60762D01*
X63466Y-60643D01*
X63489Y-60595D01*
X63513Y-60572D01*
X63561Y-60548D01*
X63609Y-60548D01*
X63680Y-60572D01*
X63966Y-60857D01*
X63966Y-60548D01*
X85100Y-69705D02*
X84600Y-69705D01*
X84600Y-69515D01*
X84623Y-69467D01*
X84647Y-69443D01*
X84695Y-69419D01*
X84766Y-69419D01*
X84814Y-69443D01*
X84838Y-69467D01*
X84861Y-69515D01*
X84861Y-69705D01*
X84600Y-68991D02*
X84600Y-69086D01*
X84623Y-69134D01*
X84647Y-69158D01*
X84719Y-69205D01*
X84814Y-69229D01*
X85004Y-69229D01*
X85052Y-69205D01*
X85076Y-69181D01*
X85100Y-69134D01*
X85100Y-69038D01*
X85076Y-68991D01*
X85052Y-68967D01*
X85004Y-68943D01*
X84885Y-68943D01*
X84838Y-68967D01*
X84814Y-68991D01*
X84790Y-69038D01*
X84790Y-69134D01*
X84814Y-69181D01*
X84838Y-69205D01*
X84885Y-69229D01*
X78052Y-70646D02*
X78076Y-70669D01*
X78100Y-70741D01*
X78100Y-70788D01*
X78076Y-70860D01*
X78028Y-70908D01*
X77980Y-70931D01*
X77885Y-70955D01*
X77814Y-70955D01*
X77719Y-70931D01*
X77671Y-70908D01*
X77623Y-70860D01*
X77600Y-70788D01*
X77600Y-70741D01*
X77623Y-70669D01*
X77647Y-70646D01*
X77600Y-70336D02*
X77600Y-70241D01*
X77623Y-70193D01*
X77671Y-70146D01*
X77766Y-70122D01*
X77933Y-70122D01*
X78028Y-70146D01*
X78076Y-70193D01*
X78100Y-70241D01*
X78100Y-70336D01*
X78076Y-70384D01*
X78028Y-70431D01*
X77933Y-70455D01*
X77766Y-70455D01*
X77671Y-70431D01*
X77623Y-70384D01*
X77600Y-70336D01*
X78100Y-69908D02*
X77600Y-69908D01*
X78100Y-69622D01*
X77600Y-69622D01*
X78100Y-69384D02*
X77600Y-69384D01*
X78100Y-69098D01*
X77600Y-69098D01*
X78147Y-68979D02*
X78147Y-68598D01*
X77600Y-68265D02*
X77600Y-68360D01*
X77623Y-68408D01*
X77647Y-68431D01*
X77719Y-68479D01*
X77814Y-68503D01*
X78004Y-68503D01*
X78052Y-68479D01*
X78076Y-68455D01*
X78100Y-68408D01*
X78100Y-68312D01*
X78076Y-68265D01*
X78052Y-68241D01*
X78004Y-68217D01*
X77885Y-68217D01*
X77838Y-68241D01*
X77814Y-68265D01*
X77790Y-68312D01*
X77790Y-68408D01*
X77814Y-68455D01*
X77838Y-68479D01*
X77885Y-68503D01*
X70323Y-65472D02*
X70323Y-64972D01*
X70513Y-64972D01*
X70561Y-64996D01*
X70585Y-65020D01*
X70609Y-65067D01*
X70609Y-65139D01*
X70585Y-65186D01*
X70561Y-65210D01*
X70513Y-65234D01*
X70323Y-65234D01*
X70775Y-64972D02*
X71085Y-64972D01*
X70918Y-65163D01*
X70990Y-65163D01*
X71037Y-65186D01*
X71061Y-65210D01*
X71085Y-65258D01*
X71085Y-65377D01*
X71061Y-65424D01*
X71037Y-65448D01*
X70990Y-65472D01*
X70847Y-65472D01*
X70799Y-65448D01*
X70775Y-65424D01*
X69912Y-67394D02*
X69889Y-67418D01*
X69817Y-67442D01*
X69770Y-67442D01*
X69698Y-67418D01*
X69651Y-67371D01*
X69627Y-67323D01*
X69603Y-67228D01*
X69603Y-67156D01*
X69627Y-67061D01*
X69651Y-67013D01*
X69698Y-66966D01*
X69770Y-66942D01*
X69817Y-66942D01*
X69889Y-66966D01*
X69912Y-66990D01*
X70222Y-66942D02*
X70317Y-66942D01*
X70365Y-66966D01*
X70412Y-67013D01*
X70436Y-67109D01*
X70436Y-67275D01*
X70412Y-67371D01*
X70365Y-67418D01*
X70317Y-67442D01*
X70222Y-67442D01*
X70174Y-67418D01*
X70127Y-67371D01*
X70103Y-67275D01*
X70103Y-67109D01*
X70127Y-67013D01*
X70174Y-66966D01*
X70222Y-66942D01*
X70651Y-67442D02*
X70651Y-66942D01*
X70936Y-67442D01*
X70936Y-66942D01*
X71174Y-67442D02*
X71174Y-66942D01*
X71460Y-67442D01*
X71460Y-66942D01*
X71579Y-67490D02*
X71960Y-67490D01*
X72055Y-66990D02*
X72079Y-66966D01*
X72127Y-66942D01*
X72246Y-66942D01*
X72293Y-66966D01*
X72317Y-66990D01*
X72341Y-67037D01*
X72341Y-67085D01*
X72317Y-67156D01*
X72031Y-67442D01*
X72341Y-67442D01*
X66780Y-46476D02*
X66780Y-45976D01*
X66970Y-45976D01*
X67018Y-46000D01*
X67041Y-46024D01*
X67065Y-46071D01*
X67065Y-46143D01*
X67041Y-46190D01*
X67018Y-46214D01*
X66970Y-46238D01*
X66780Y-46238D01*
X67494Y-46143D02*
X67494Y-46476D01*
X67375Y-45952D02*
X67256Y-46309D01*
X67565Y-46309D01*
X66369Y-48398D02*
X66345Y-48422D01*
X66274Y-48446D01*
X66226Y-48446D01*
X66155Y-48422D01*
X66107Y-48375D01*
X66083Y-48327D01*
X66060Y-48232D01*
X66060Y-48160D01*
X66083Y-48065D01*
X66107Y-48017D01*
X66155Y-47970D01*
X66226Y-47946D01*
X66274Y-47946D01*
X66345Y-47970D01*
X66369Y-47994D01*
X66679Y-47946D02*
X66774Y-47946D01*
X66821Y-47970D01*
X66869Y-48017D01*
X66893Y-48113D01*
X66893Y-48279D01*
X66869Y-48375D01*
X66821Y-48422D01*
X66774Y-48446D01*
X66679Y-48446D01*
X66631Y-48422D01*
X66583Y-48375D01*
X66560Y-48279D01*
X66560Y-48113D01*
X66583Y-48017D01*
X66631Y-47970D01*
X66679Y-47946D01*
X67107Y-48446D02*
X67107Y-47946D01*
X67393Y-48446D01*
X67393Y-47946D01*
X67631Y-48446D02*
X67631Y-47946D01*
X67917Y-48446D01*
X67917Y-47946D01*
X68036Y-48494D02*
X68417Y-48494D01*
X68512Y-47994D02*
X68536Y-47970D01*
X68583Y-47946D01*
X68702Y-47946D01*
X68750Y-47970D01*
X68774Y-47994D01*
X68798Y-48041D01*
X68798Y-48089D01*
X68774Y-48160D01*
X68488Y-48446D01*
X68798Y-48446D01*
G54D12*
X71214Y-48589D02*
X71120Y-48523D01*
X71214Y-48476D02*
X71017Y-48476D01*
X71017Y-48551D01*
X71026Y-48570D01*
X71036Y-48579D01*
X71055Y-48589D01*
X71083Y-48589D01*
X71102Y-48579D01*
X71111Y-48570D01*
X71120Y-48551D01*
X71120Y-48476D01*
X71017Y-48654D02*
X71017Y-48776D01*
X71092Y-48711D01*
X71092Y-48739D01*
X71102Y-48758D01*
X71111Y-48767D01*
X71130Y-48776D01*
X71177Y-48776D01*
X71195Y-48767D01*
X71205Y-48758D01*
X71214Y-48739D01*
X71214Y-48683D01*
X71205Y-48664D01*
X71195Y-48654D01*
X71358Y-48382D02*
X71489Y-48382D01*
X71283Y-48335D02*
X71423Y-48289D01*
X71423Y-48410D01*
X71292Y-48467D02*
X71292Y-48598D01*
X71489Y-48514D01*
X71292Y-48711D02*
X71292Y-48729D01*
X71301Y-48748D01*
X71311Y-48758D01*
X71330Y-48767D01*
X71367Y-48776D01*
X71414Y-48776D01*
X71452Y-48767D01*
X71470Y-48758D01*
X71480Y-48748D01*
X71489Y-48729D01*
X71489Y-48711D01*
X71480Y-48692D01*
X71470Y-48683D01*
X71452Y-48673D01*
X71414Y-48664D01*
X71367Y-48664D01*
X71330Y-48673D01*
X71311Y-48683D01*
X71301Y-48692D01*
X71292Y-48711D01*
X71386Y-48861D02*
X71386Y-48926D01*
X71489Y-48955D02*
X71489Y-48861D01*
X71292Y-48861D01*
X71292Y-48955D01*
X72198Y-48589D02*
X72105Y-48523D01*
X72198Y-48476D02*
X72001Y-48476D01*
X72001Y-48551D01*
X72011Y-48570D01*
X72020Y-48579D01*
X72039Y-48589D01*
X72067Y-48589D01*
X72086Y-48579D01*
X72095Y-48570D01*
X72105Y-48551D01*
X72105Y-48476D01*
X72198Y-48776D02*
X72198Y-48664D01*
X72198Y-48720D02*
X72001Y-48720D01*
X72029Y-48701D01*
X72048Y-48683D01*
X72058Y-48664D01*
X72342Y-48382D02*
X72473Y-48382D01*
X72267Y-48335D02*
X72408Y-48289D01*
X72408Y-48410D01*
X72276Y-48467D02*
X72276Y-48598D01*
X72473Y-48514D01*
X72276Y-48711D02*
X72276Y-48729D01*
X72286Y-48748D01*
X72295Y-48758D01*
X72314Y-48767D01*
X72351Y-48776D01*
X72398Y-48776D01*
X72436Y-48767D01*
X72455Y-48758D01*
X72464Y-48748D01*
X72473Y-48729D01*
X72473Y-48711D01*
X72464Y-48692D01*
X72455Y-48683D01*
X72436Y-48673D01*
X72398Y-48664D01*
X72351Y-48664D01*
X72314Y-48673D01*
X72295Y-48683D01*
X72286Y-48692D01*
X72276Y-48711D01*
X72370Y-48861D02*
X72370Y-48926D01*
X72473Y-48955D02*
X72473Y-48861D01*
X72276Y-48861D01*
X72276Y-48955D01*
X74364Y-48589D02*
X74270Y-48523D01*
X74364Y-48476D02*
X74167Y-48476D01*
X74167Y-48551D01*
X74176Y-48570D01*
X74185Y-48579D01*
X74204Y-48589D01*
X74232Y-48589D01*
X74251Y-48579D01*
X74260Y-48570D01*
X74270Y-48551D01*
X74270Y-48476D01*
X74251Y-48701D02*
X74242Y-48683D01*
X74232Y-48673D01*
X74214Y-48664D01*
X74204Y-48664D01*
X74185Y-48673D01*
X74176Y-48683D01*
X74167Y-48701D01*
X74167Y-48739D01*
X74176Y-48758D01*
X74185Y-48767D01*
X74204Y-48776D01*
X74214Y-48776D01*
X74232Y-48767D01*
X74242Y-48758D01*
X74251Y-48739D01*
X74251Y-48701D01*
X74260Y-48683D01*
X74270Y-48673D01*
X74289Y-48664D01*
X74326Y-48664D01*
X74345Y-48673D01*
X74354Y-48683D01*
X74364Y-48701D01*
X74364Y-48739D01*
X74354Y-48758D01*
X74345Y-48767D01*
X74326Y-48776D01*
X74289Y-48776D01*
X74270Y-48767D01*
X74260Y-48758D01*
X74251Y-48739D01*
X74442Y-48392D02*
X74442Y-48298D01*
X74535Y-48289D01*
X74526Y-48298D01*
X74517Y-48317D01*
X74517Y-48364D01*
X74526Y-48382D01*
X74535Y-48392D01*
X74554Y-48401D01*
X74601Y-48401D01*
X74620Y-48392D01*
X74629Y-48382D01*
X74639Y-48364D01*
X74639Y-48317D01*
X74629Y-48298D01*
X74620Y-48289D01*
X74442Y-48570D02*
X74442Y-48532D01*
X74451Y-48514D01*
X74460Y-48504D01*
X74489Y-48486D01*
X74526Y-48476D01*
X74601Y-48476D01*
X74620Y-48486D01*
X74629Y-48495D01*
X74639Y-48514D01*
X74639Y-48551D01*
X74629Y-48570D01*
X74620Y-48579D01*
X74601Y-48589D01*
X74554Y-48589D01*
X74535Y-48579D01*
X74526Y-48570D01*
X74517Y-48551D01*
X74517Y-48514D01*
X74526Y-48495D01*
X74535Y-48486D01*
X74554Y-48476D01*
X74442Y-48711D02*
X74442Y-48729D01*
X74451Y-48748D01*
X74460Y-48758D01*
X74479Y-48767D01*
X74517Y-48776D01*
X74564Y-48776D01*
X74601Y-48767D01*
X74620Y-48758D01*
X74629Y-48748D01*
X74639Y-48729D01*
X74639Y-48711D01*
X74629Y-48692D01*
X74620Y-48683D01*
X74601Y-48673D01*
X74564Y-48664D01*
X74517Y-48664D01*
X74479Y-48673D01*
X74460Y-48683D01*
X74451Y-48692D01*
X74442Y-48711D01*
X74535Y-48861D02*
X74535Y-48926D01*
X74639Y-48955D02*
X74639Y-48861D01*
X74442Y-48861D01*
X74442Y-48955D01*
X75348Y-48589D02*
X75254Y-48523D01*
X75348Y-48476D02*
X75151Y-48476D01*
X75151Y-48551D01*
X75160Y-48570D01*
X75170Y-48579D01*
X75188Y-48589D01*
X75217Y-48589D01*
X75235Y-48579D01*
X75245Y-48570D01*
X75254Y-48551D01*
X75254Y-48476D01*
X75348Y-48683D02*
X75348Y-48720D01*
X75339Y-48739D01*
X75329Y-48748D01*
X75301Y-48767D01*
X75264Y-48776D01*
X75188Y-48776D01*
X75170Y-48767D01*
X75160Y-48758D01*
X75151Y-48739D01*
X75151Y-48701D01*
X75160Y-48683D01*
X75170Y-48673D01*
X75188Y-48664D01*
X75235Y-48664D01*
X75254Y-48673D01*
X75264Y-48683D01*
X75273Y-48701D01*
X75273Y-48739D01*
X75264Y-48758D01*
X75254Y-48767D01*
X75235Y-48776D01*
X75426Y-48392D02*
X75426Y-48298D01*
X75520Y-48289D01*
X75510Y-48298D01*
X75501Y-48317D01*
X75501Y-48364D01*
X75510Y-48382D01*
X75520Y-48392D01*
X75539Y-48401D01*
X75585Y-48401D01*
X75604Y-48392D01*
X75614Y-48382D01*
X75623Y-48364D01*
X75623Y-48317D01*
X75614Y-48298D01*
X75604Y-48289D01*
X75426Y-48570D02*
X75426Y-48532D01*
X75435Y-48514D01*
X75445Y-48504D01*
X75473Y-48486D01*
X75510Y-48476D01*
X75585Y-48476D01*
X75604Y-48486D01*
X75614Y-48495D01*
X75623Y-48514D01*
X75623Y-48551D01*
X75614Y-48570D01*
X75604Y-48579D01*
X75585Y-48589D01*
X75539Y-48589D01*
X75520Y-48579D01*
X75510Y-48570D01*
X75501Y-48551D01*
X75501Y-48514D01*
X75510Y-48495D01*
X75520Y-48486D01*
X75539Y-48476D01*
X75426Y-48711D02*
X75426Y-48729D01*
X75435Y-48748D01*
X75445Y-48758D01*
X75463Y-48767D01*
X75501Y-48776D01*
X75548Y-48776D01*
X75585Y-48767D01*
X75604Y-48758D01*
X75614Y-48748D01*
X75623Y-48729D01*
X75623Y-48711D01*
X75614Y-48692D01*
X75604Y-48683D01*
X75585Y-48673D01*
X75548Y-48664D01*
X75501Y-48664D01*
X75463Y-48673D01*
X75445Y-48683D01*
X75435Y-48692D01*
X75426Y-48711D01*
X75520Y-48861D02*
X75520Y-48926D01*
X75623Y-48955D02*
X75623Y-48861D01*
X75426Y-48861D01*
X75426Y-48955D01*
X70230Y-48589D02*
X70136Y-48523D01*
X70230Y-48476D02*
X70033Y-48476D01*
X70033Y-48551D01*
X70042Y-48570D01*
X70052Y-48579D01*
X70070Y-48589D01*
X70098Y-48589D01*
X70117Y-48579D01*
X70127Y-48570D01*
X70136Y-48551D01*
X70136Y-48476D01*
X70033Y-48654D02*
X70033Y-48786D01*
X70230Y-48701D01*
X70308Y-48392D02*
X70308Y-48298D01*
X70402Y-48289D01*
X70392Y-48298D01*
X70383Y-48317D01*
X70383Y-48364D01*
X70392Y-48382D01*
X70402Y-48392D01*
X70420Y-48401D01*
X70467Y-48401D01*
X70486Y-48392D01*
X70495Y-48382D01*
X70505Y-48364D01*
X70505Y-48317D01*
X70495Y-48298D01*
X70486Y-48289D01*
X70308Y-48570D02*
X70308Y-48532D01*
X70317Y-48514D01*
X70327Y-48504D01*
X70355Y-48486D01*
X70392Y-48476D01*
X70467Y-48476D01*
X70486Y-48486D01*
X70495Y-48495D01*
X70505Y-48514D01*
X70505Y-48551D01*
X70495Y-48570D01*
X70486Y-48579D01*
X70467Y-48589D01*
X70420Y-48589D01*
X70402Y-48579D01*
X70392Y-48570D01*
X70383Y-48551D01*
X70383Y-48514D01*
X70392Y-48495D01*
X70402Y-48486D01*
X70420Y-48476D01*
X70308Y-48711D02*
X70308Y-48729D01*
X70317Y-48748D01*
X70327Y-48758D01*
X70345Y-48767D01*
X70383Y-48776D01*
X70430Y-48776D01*
X70467Y-48767D01*
X70486Y-48758D01*
X70495Y-48748D01*
X70505Y-48729D01*
X70505Y-48711D01*
X70495Y-48692D01*
X70486Y-48683D01*
X70467Y-48673D01*
X70430Y-48664D01*
X70383Y-48664D01*
X70345Y-48673D01*
X70327Y-48683D01*
X70317Y-48692D01*
X70308Y-48711D01*
X70402Y-48861D02*
X70402Y-48926D01*
X70505Y-48955D02*
X70505Y-48861D01*
X70308Y-48861D01*
X70308Y-48955D01*
X82119Y-48433D02*
X82185Y-48339D01*
X82232Y-48433D02*
X82232Y-48236D01*
X82156Y-48236D01*
X82138Y-48245D01*
X82128Y-48254D01*
X82119Y-48273D01*
X82119Y-48301D01*
X82128Y-48320D01*
X82138Y-48329D01*
X82156Y-48339D01*
X82232Y-48339D01*
X81941Y-48236D02*
X82035Y-48236D01*
X82044Y-48329D01*
X82035Y-48320D01*
X82016Y-48311D01*
X81969Y-48311D01*
X81950Y-48320D01*
X81941Y-48329D01*
X81931Y-48348D01*
X81931Y-48395D01*
X81941Y-48414D01*
X81950Y-48423D01*
X81969Y-48433D01*
X82016Y-48433D01*
X82035Y-48423D01*
X82044Y-48414D01*
X82316Y-47961D02*
X82410Y-47961D01*
X82419Y-48054D01*
X82410Y-48045D01*
X82391Y-48036D01*
X82344Y-48036D01*
X82325Y-48045D01*
X82316Y-48054D01*
X82307Y-48073D01*
X82307Y-48120D01*
X82316Y-48139D01*
X82325Y-48148D01*
X82344Y-48158D01*
X82391Y-48158D01*
X82410Y-48148D01*
X82419Y-48139D01*
X82138Y-47961D02*
X82175Y-47961D01*
X82194Y-47970D01*
X82203Y-47979D01*
X82222Y-48007D01*
X82232Y-48045D01*
X82232Y-48120D01*
X82222Y-48139D01*
X82213Y-48148D01*
X82194Y-48158D01*
X82156Y-48158D01*
X82138Y-48148D01*
X82128Y-48139D01*
X82119Y-48120D01*
X82119Y-48073D01*
X82128Y-48054D01*
X82138Y-48045D01*
X82156Y-48036D01*
X82194Y-48036D01*
X82213Y-48045D01*
X82222Y-48054D01*
X82232Y-48073D01*
X81997Y-47961D02*
X81978Y-47961D01*
X81959Y-47970D01*
X81950Y-47979D01*
X81941Y-47998D01*
X81931Y-48036D01*
X81931Y-48083D01*
X81941Y-48120D01*
X81950Y-48139D01*
X81959Y-48148D01*
X81978Y-48158D01*
X81997Y-48158D01*
X82016Y-48148D01*
X82025Y-48139D01*
X82035Y-48120D01*
X82044Y-48083D01*
X82044Y-48036D01*
X82035Y-47998D01*
X82025Y-47979D01*
X82016Y-47970D01*
X81997Y-47961D01*
X81847Y-48054D02*
X81781Y-48054D01*
X81753Y-48158D02*
X81847Y-48158D01*
X81847Y-47961D01*
X81753Y-47961D01*
X79285Y-49671D02*
X79191Y-49606D01*
X79285Y-49559D02*
X79088Y-49559D01*
X79088Y-49634D01*
X79097Y-49653D01*
X79107Y-49662D01*
X79125Y-49671D01*
X79154Y-49671D01*
X79172Y-49662D01*
X79182Y-49653D01*
X79191Y-49634D01*
X79191Y-49559D01*
X79088Y-49840D02*
X79088Y-49803D01*
X79097Y-49784D01*
X79107Y-49775D01*
X79135Y-49756D01*
X79172Y-49746D01*
X79247Y-49746D01*
X79266Y-49756D01*
X79276Y-49765D01*
X79285Y-49784D01*
X79285Y-49821D01*
X79276Y-49840D01*
X79266Y-49850D01*
X79247Y-49859D01*
X79201Y-49859D01*
X79182Y-49850D01*
X79172Y-49840D01*
X79163Y-49821D01*
X79163Y-49784D01*
X79172Y-49765D01*
X79182Y-49756D01*
X79201Y-49746D01*
X79363Y-49474D02*
X79363Y-49381D01*
X79457Y-49371D01*
X79447Y-49381D01*
X79438Y-49399D01*
X79438Y-49446D01*
X79447Y-49465D01*
X79457Y-49474D01*
X79476Y-49484D01*
X79522Y-49484D01*
X79541Y-49474D01*
X79551Y-49465D01*
X79560Y-49446D01*
X79560Y-49399D01*
X79551Y-49381D01*
X79541Y-49371D01*
X79363Y-49653D02*
X79363Y-49615D01*
X79372Y-49596D01*
X79382Y-49587D01*
X79410Y-49568D01*
X79447Y-49559D01*
X79522Y-49559D01*
X79541Y-49568D01*
X79551Y-49578D01*
X79560Y-49596D01*
X79560Y-49634D01*
X79551Y-49653D01*
X79541Y-49662D01*
X79522Y-49671D01*
X79476Y-49671D01*
X79457Y-49662D01*
X79447Y-49653D01*
X79438Y-49634D01*
X79438Y-49596D01*
X79447Y-49578D01*
X79457Y-49568D01*
X79476Y-49559D01*
X79363Y-49793D02*
X79363Y-49812D01*
X79372Y-49831D01*
X79382Y-49840D01*
X79400Y-49850D01*
X79438Y-49859D01*
X79485Y-49859D01*
X79522Y-49850D01*
X79541Y-49840D01*
X79551Y-49831D01*
X79560Y-49812D01*
X79560Y-49793D01*
X79551Y-49775D01*
X79541Y-49765D01*
X79522Y-49756D01*
X79485Y-49746D01*
X79438Y-49746D01*
X79400Y-49756D01*
X79382Y-49765D01*
X79372Y-49775D01*
X79363Y-49793D01*
X79457Y-49943D02*
X79457Y-50009D01*
X79560Y-50037D02*
X79560Y-49943D01*
X79363Y-49943D01*
X79363Y-50037D01*
M02*
