G04 (created by PCBNEW (2013-07-07 BZR 4022)-stable) date 19-01-2019 19:24:24*
%MOIN*%
G04 Gerber Fmt 3.4, Leading zero omitted, Abs format*
%FSLAX34Y34*%
G01*
G70*
G90*
G04 APERTURE LIST*
%ADD10C,0.00590551*%
%ADD11O,0.12X0.06*%
%ADD12O,0.06X0.12*%
%ADD13R,0.09X0.062*%
%ADD14O,0.09X0.062*%
%ADD15R,0.062X0.09*%
%ADD16O,0.062X0.09*%
%ADD17C,0.07*%
%ADD18R,0.07X0.07*%
%ADD19O,0.06X0.1*%
%ADD20C,0.155*%
%ADD21C,0.0393701*%
%ADD22C,0.0255906*%
G04 APERTURE END LIST*
G54D10*
G54D11*
X63311Y-63889D03*
X63311Y-62889D03*
X63311Y-61889D03*
X63311Y-60889D03*
X63311Y-59889D03*
X63311Y-58889D03*
X63311Y-57889D03*
X63311Y-56889D03*
X63311Y-55889D03*
X63311Y-54889D03*
X63311Y-53889D03*
X63311Y-52889D03*
X63311Y-51889D03*
X63311Y-50889D03*
X63311Y-49889D03*
G54D12*
X76913Y-45397D03*
X77913Y-45397D03*
X78913Y-45397D03*
X79913Y-45397D03*
X80913Y-45397D03*
X81913Y-45397D03*
X82913Y-45397D03*
X83913Y-45397D03*
X68350Y-45397D03*
X69350Y-45397D03*
X70350Y-45397D03*
X71350Y-45397D03*
X72350Y-45397D03*
X73350Y-45397D03*
X74350Y-45397D03*
X75350Y-45397D03*
X76909Y-68185D03*
X75909Y-68185D03*
X74909Y-68185D03*
X73909Y-68185D03*
X72909Y-68185D03*
X71909Y-68185D03*
G54D11*
X80488Y-49098D03*
X80488Y-50098D03*
G54D12*
X66429Y-45374D03*
X67429Y-45374D03*
X69972Y-68208D03*
X70972Y-68208D03*
G54D11*
X64763Y-60917D03*
X64763Y-61917D03*
G54D13*
X69807Y-52968D03*
G54D14*
X69807Y-51968D03*
X69807Y-50968D03*
X66807Y-50968D03*
X66807Y-51968D03*
X66807Y-52968D03*
G54D13*
X69807Y-63992D03*
G54D14*
X69807Y-62992D03*
X69807Y-61992D03*
X66807Y-61992D03*
X66807Y-62992D03*
X66807Y-63992D03*
G54D13*
X69807Y-56905D03*
G54D14*
X69807Y-55905D03*
X69807Y-54905D03*
X66807Y-54905D03*
X66807Y-55905D03*
X66807Y-56905D03*
G54D13*
X73500Y-51559D03*
G54D14*
X73500Y-52559D03*
X73500Y-53559D03*
X76500Y-53559D03*
X76500Y-52559D03*
X76500Y-51559D03*
G54D13*
X79405Y-51559D03*
G54D14*
X79405Y-52559D03*
X79405Y-53559D03*
X82405Y-53559D03*
X82405Y-52559D03*
X82405Y-51559D03*
G54D15*
X81059Y-58933D03*
G54D16*
X80059Y-58933D03*
X79059Y-58933D03*
X78059Y-58933D03*
X77059Y-58933D03*
X76059Y-58933D03*
X75059Y-58933D03*
X74059Y-58933D03*
X74059Y-61933D03*
X75059Y-61933D03*
X76059Y-61933D03*
X77059Y-61933D03*
X78059Y-61933D03*
X79059Y-61933D03*
X80059Y-61933D03*
X81059Y-61933D03*
G54D17*
X72047Y-58433D03*
G54D18*
X72047Y-62433D03*
G54D19*
X83933Y-66240D03*
X82933Y-66240D03*
X81933Y-66240D03*
X78933Y-66240D03*
X79933Y-66240D03*
X80933Y-66240D03*
X76933Y-66240D03*
X75933Y-66240D03*
X74933Y-66240D03*
X72933Y-66240D03*
X71933Y-66240D03*
X83933Y-47240D03*
X82933Y-47240D03*
X81933Y-47240D03*
X80933Y-47240D03*
X79933Y-47240D03*
X78933Y-47240D03*
X77933Y-47240D03*
X76933Y-47240D03*
X75333Y-47240D03*
X74333Y-47240D03*
X73333Y-47240D03*
X72333Y-47240D03*
X71333Y-47240D03*
X70333Y-47240D03*
X69333Y-47240D03*
X68333Y-47240D03*
X73933Y-66240D03*
G54D20*
X84933Y-64240D03*
X84933Y-53240D03*
X64933Y-47240D03*
X64433Y-66240D03*
G54D12*
X83897Y-68086D03*
X82897Y-68086D03*
X81897Y-68086D03*
X80897Y-68086D03*
X79897Y-68086D03*
X78897Y-68086D03*
X69972Y-66240D03*
X70972Y-66240D03*
X66429Y-47244D03*
X67429Y-47244D03*
G54D21*
X69488Y-58464D03*
X66929Y-58267D03*
X72933Y-54330D03*
X64862Y-54724D03*
X62007Y-63582D03*
X60826Y-63385D03*
X69488Y-49803D03*
X69291Y-48228D03*
X75000Y-64763D03*
X73031Y-64960D03*
X73031Y-49409D03*
X71850Y-50590D03*
X73622Y-49803D03*
X72244Y-51181D03*
X69488Y-60039D03*
X66929Y-59842D03*
X69488Y-59251D03*
X66929Y-59055D03*
X69488Y-60629D03*
X66732Y-60629D03*
G54D22*
X67125Y-58464D02*
X69488Y-58464D01*
X66929Y-58267D02*
X67125Y-58464D01*
X72736Y-54133D02*
X72933Y-54330D01*
X65452Y-54133D02*
X72736Y-54133D01*
X64862Y-54724D02*
X65452Y-54133D01*
X62007Y-63582D02*
X61811Y-63385D01*
X61811Y-63385D02*
X60826Y-63385D01*
X69488Y-48425D02*
X69488Y-49803D01*
X69291Y-48228D02*
X69488Y-48425D01*
X73228Y-64763D02*
X75000Y-64763D01*
X73031Y-64960D02*
X73228Y-64763D01*
X71850Y-50590D02*
X73031Y-49409D01*
X73425Y-50000D02*
X73622Y-49803D01*
X72244Y-51181D02*
X73425Y-50000D01*
X67125Y-60039D02*
X69488Y-60039D01*
X66929Y-59842D02*
X67125Y-60039D01*
X67125Y-59251D02*
X69488Y-59251D01*
X66929Y-59055D02*
X67125Y-59251D01*
X66732Y-60629D02*
X69488Y-60629D01*
M02*
